<svg width="1920" height="926" viewBox="0 0 1920 926" fill="none" xmlns="http://www.w3.org/2000/svg">
<g clip-path="url(#clip0)">
<ellipse cx="184.5" cy="842.5" rx="227.5" ry="217.5" fill="#27AE60" fill-opacity="0.25"/>
<ellipse cx="921.5" cy="182" rx="153.5" ry="147" fill="#3F3D56" fill-opacity="0.3"/>
<ellipse cx="1920" cy="264" rx="276" ry="264" fill="#F2C94C" fill-opacity="0.25"/>
<path d="M336 560L446.851 772.25H225.149L336 560Z" fill="#F2C94C" fill-opacity="0.3"/>
<path d="M890.655 854.332C891.935 853.225 892.942 852.319 893.675 851.612C894.422 850.892 895.042 850.145 895.535 849.372C896.029 848.599 896.275 847.825 896.275 847.052C896.275 846.252 896.082 845.625 895.695 845.172C895.322 844.719 894.729 844.492 893.915 844.492C893.129 844.492 892.515 844.745 892.075 845.252C891.649 845.745 891.422 846.412 891.395 847.252H889.195C889.235 845.732 889.689 844.572 890.555 843.772C891.435 842.959 892.549 842.552 893.895 842.552C895.349 842.552 896.482 842.952 897.295 843.752C898.122 844.552 898.535 845.619 898.535 846.952C898.535 847.912 898.289 848.839 897.795 849.732C897.315 850.612 896.735 851.405 896.055 852.112C895.389 852.805 894.535 853.612 893.495 854.532L892.595 855.332H898.935V857.232H889.215V855.572L890.655 854.332ZM900.938 849.952C900.938 847.645 901.325 845.845 902.098 844.552C902.885 843.245 904.232 842.592 906.138 842.592C908.045 842.592 909.385 843.245 910.158 844.552C910.945 845.845 911.338 847.645 911.338 849.952C911.338 852.285 910.945 854.112 910.158 855.432C909.385 856.739 908.045 857.392 906.138 857.392C904.232 857.392 902.885 856.739 902.098 855.432C901.325 854.112 900.938 852.285 900.938 849.952ZM909.098 849.952C909.098 848.872 909.025 847.959 908.878 847.212C908.745 846.465 908.465 845.859 908.038 845.392C907.612 844.912 906.978 844.672 906.138 844.672C905.298 844.672 904.665 844.912 904.238 845.392C903.812 845.859 903.525 846.465 903.378 847.212C903.245 847.959 903.178 848.872 903.178 849.952C903.178 851.072 903.245 852.012 903.378 852.772C903.512 853.532 903.792 854.145 904.218 854.612C904.658 855.079 905.298 855.312 906.138 855.312C906.978 855.312 907.612 855.079 908.038 854.612C908.478 854.145 908.765 853.532 908.898 852.772C909.032 852.012 909.098 851.072 909.098 849.952ZM915.011 854.332C916.291 853.225 917.297 852.319 918.031 851.612C918.777 850.892 919.397 850.145 919.891 849.372C920.384 848.599 920.631 847.825 920.631 847.052C920.631 846.252 920.437 845.625 920.051 845.172C919.677 844.719 919.084 844.492 918.271 844.492C917.484 844.492 916.871 844.745 916.431 845.252C916.004 845.745 915.777 846.412 915.751 847.252H913.551C913.591 845.732 914.044 844.572 914.911 843.772C915.791 842.959 916.904 842.552 918.251 842.552C919.704 842.552 920.837 842.952 921.651 843.752C922.477 844.552 922.891 845.619 922.891 846.952C922.891 847.912 922.644 848.839 922.151 849.732C921.671 850.612 921.091 851.405 920.411 852.112C919.744 852.805 918.891 853.612 917.851 854.532L916.951 855.332H923.291V857.232H913.571V855.572L915.011 854.332ZM925.294 849.952C925.294 847.645 925.68 845.845 926.454 844.552C927.24 843.245 928.587 842.592 930.494 842.592C932.4 842.592 933.74 843.245 934.514 844.552C935.3 845.845 935.694 847.645 935.694 849.952C935.694 852.285 935.3 854.112 934.514 855.432C933.74 856.739 932.4 857.392 930.494 857.392C928.587 857.392 927.24 856.739 926.454 855.432C925.68 854.112 925.294 852.285 925.294 849.952ZM933.454 849.952C933.454 848.872 933.38 847.959 933.234 847.212C933.1 846.465 932.82 845.859 932.394 845.392C931.967 844.912 931.334 844.672 930.494 844.672C929.654 844.672 929.02 844.912 928.594 845.392C928.167 845.859 927.88 846.465 927.734 847.212C927.6 847.959 927.534 848.872 927.534 849.952C927.534 851.072 927.6 852.012 927.734 852.772C927.867 853.532 928.147 854.145 928.574 854.612C929.014 855.079 929.654 855.312 930.494 855.312C931.334 855.312 931.967 855.079 932.394 854.612C932.834 854.145 933.12 853.532 933.254 852.772C933.387 852.012 933.454 851.072 933.454 849.952ZM952.062 849.232V851.152H943.842V849.232H952.062ZM968.876 854.592H963.056L962.056 857.432H959.676L964.656 843.512H967.296L972.276 857.432H969.876L968.876 854.592ZM968.236 852.732L965.976 846.272L963.696 852.732H968.236ZM976.721 855.592H981.421V857.432H974.441V843.532H976.721V855.592ZM985.608 855.592H990.308V857.432H983.328V843.532H985.608V855.592ZM1004.63 857.432L1001.43 851.872H999.69V857.432H997.41V843.532H1002.21C1003.28 843.532 1004.18 843.719 1004.91 844.092C1005.66 844.465 1006.21 844.965 1006.57 845.592C1006.94 846.219 1007.13 846.919 1007.13 847.692C1007.13 848.599 1006.86 849.425 1006.33 850.172C1005.81 850.905 1005 851.405 1003.91 851.672L1007.35 857.432H1004.63ZM999.69 850.052H1002.21C1003.06 850.052 1003.7 849.839 1004.13 849.412C1004.57 848.985 1004.79 848.412 1004.79 847.692C1004.79 846.972 1004.58 846.412 1004.15 846.012C1003.72 845.599 1003.08 845.392 1002.21 845.392H999.69V850.052ZM1012.33 843.532V857.432H1010.05V843.532H1012.33ZM1025.38 847.532C1025.02 846.839 1024.52 846.319 1023.88 845.972C1023.24 845.612 1022.5 845.432 1021.66 845.432C1020.74 845.432 1019.92 845.639 1019.2 846.052C1018.48 846.465 1017.91 847.052 1017.5 847.812C1017.1 848.572 1016.9 849.452 1016.9 850.452C1016.9 851.452 1017.1 852.339 1017.5 853.112C1017.91 853.872 1018.48 854.459 1019.2 854.872C1019.92 855.285 1020.74 855.492 1021.66 855.492C1022.9 855.492 1023.91 855.145 1024.68 854.452C1025.45 853.759 1025.93 852.819 1026.1 851.632H1020.88V849.812H1028.54V851.592C1028.39 852.672 1028.01 853.665 1027.38 854.572C1026.77 855.479 1025.96 856.205 1024.96 856.752C1023.97 857.285 1022.87 857.552 1021.66 857.552C1020.35 857.552 1019.16 857.252 1018.08 856.652C1017 856.039 1016.14 855.192 1015.5 854.112C1014.87 853.032 1014.56 851.812 1014.56 850.452C1014.56 849.092 1014.87 847.872 1015.5 846.792C1016.14 845.712 1017 844.872 1018.08 844.272C1019.17 843.659 1020.37 843.352 1021.66 843.352C1023.14 843.352 1024.45 843.719 1025.6 844.452C1026.76 845.172 1027.6 846.199 1028.12 847.532H1025.38ZM1041.89 843.532V857.432H1039.61V851.352H1033.07V857.432H1030.79V843.532H1033.07V849.492H1039.61V843.532H1041.89ZM1053.87 843.532V845.392H1050.17V857.432H1047.89V845.392H1044.17V843.532H1053.87ZM1068.6 857.432L1065.4 851.872H1063.66V857.432H1061.38V843.532H1066.18C1067.24 843.532 1068.14 843.719 1068.88 844.092C1069.62 844.465 1070.18 844.965 1070.54 845.592C1070.91 846.219 1071.1 846.919 1071.1 847.692C1071.1 848.599 1070.83 849.425 1070.3 850.172C1069.78 850.905 1068.97 851.405 1067.88 851.672L1071.32 857.432H1068.6ZM1063.66 850.052H1066.18C1067.03 850.052 1067.67 849.839 1068.1 849.412C1068.54 848.985 1068.76 848.412 1068.76 847.692C1068.76 846.972 1068.54 846.412 1068.12 846.012C1067.69 845.599 1067.04 845.392 1066.18 845.392H1063.66V850.052ZM1076.29 845.372V849.452H1081.09V851.312H1076.29V855.572H1081.69V857.432H1074.01V843.512H1081.69V845.372H1076.29ZM1089.08 857.572C1088.15 857.572 1087.31 857.412 1086.56 857.092C1085.81 856.759 1085.23 856.292 1084.8 855.692C1084.37 855.092 1084.16 854.392 1084.16 853.592H1086.6C1086.65 854.192 1086.89 854.685 1087.3 855.072C1087.73 855.459 1088.32 855.652 1089.08 855.652C1089.87 855.652 1090.48 855.465 1090.92 855.092C1091.36 854.705 1091.58 854.212 1091.58 853.612C1091.58 853.145 1091.44 852.765 1091.16 852.472C1090.89 852.179 1090.55 851.952 1090.14 851.792C1089.74 851.632 1089.18 851.459 1088.46 851.272C1087.55 851.032 1086.81 850.792 1086.24 850.552C1085.68 850.299 1085.2 849.912 1084.8 849.392C1084.4 848.872 1084.2 848.179 1084.2 847.312C1084.2 846.512 1084.4 845.812 1084.8 845.212C1085.2 844.612 1085.76 844.152 1086.48 843.832C1087.2 843.512 1088.03 843.352 1088.98 843.352C1090.33 843.352 1091.43 843.692 1092.28 844.372C1093.15 845.039 1093.63 845.959 1093.72 847.132H1091.2C1091.16 846.625 1090.92 846.192 1090.48 845.832C1090.04 845.472 1089.46 845.292 1088.74 845.292C1088.09 845.292 1087.55 845.459 1087.14 845.792C1086.73 846.125 1086.52 846.605 1086.52 847.232C1086.52 847.659 1086.65 848.012 1086.9 848.292C1087.17 848.559 1087.5 848.772 1087.9 848.932C1088.3 849.092 1088.85 849.265 1089.54 849.452C1090.46 849.705 1091.21 849.959 1091.78 850.212C1092.37 850.465 1092.86 850.859 1093.26 851.392C1093.67 851.912 1093.88 852.612 1093.88 853.492C1093.88 854.199 1093.69 854.865 1093.3 855.492C1092.93 856.119 1092.37 856.625 1091.64 857.012C1090.92 857.385 1090.07 857.572 1089.08 857.572ZM1098.85 845.372V849.452H1103.65V851.312H1098.85V855.572H1104.25V857.432H1096.57V843.512H1104.25V845.372H1098.85ZM1114.28 857.432L1111.08 851.872H1109.34V857.432H1107.06V843.532H1111.86C1112.93 843.532 1113.83 843.719 1114.56 844.092C1115.31 844.465 1115.86 844.965 1116.22 845.592C1116.59 846.219 1116.78 846.919 1116.78 847.692C1116.78 848.599 1116.51 849.425 1115.98 850.172C1115.46 850.905 1114.65 851.405 1113.56 851.672L1117 857.432H1114.28ZM1109.34 850.052H1111.86C1112.71 850.052 1113.35 849.839 1113.78 849.412C1114.22 848.985 1114.44 848.412 1114.44 847.692C1114.44 846.972 1114.23 846.412 1113.8 846.012C1113.37 845.599 1112.73 845.392 1111.86 845.392H1109.34V850.052ZM1131.68 843.532L1126.46 857.432H1123.82L1118.58 843.532H1121.02L1125.14 855.092L1129.28 843.532H1131.68ZM1135.86 845.372V849.452H1140.66V851.312H1135.86V855.572H1141.26V857.432H1133.58V843.512H1141.26V845.372H1135.86ZM1148.61 843.532C1150.09 843.532 1151.38 843.819 1152.49 844.392C1153.61 844.952 1154.47 845.765 1155.07 846.832C1155.68 847.885 1155.99 849.119 1155.99 850.532C1155.99 851.945 1155.68 853.172 1155.07 854.212C1154.47 855.252 1153.61 856.052 1152.49 856.612C1151.38 857.159 1150.09 857.432 1148.61 857.432H1144.07V843.532H1148.61ZM1148.61 855.572C1150.24 855.572 1151.48 855.132 1152.35 854.252C1153.22 853.372 1153.65 852.132 1153.65 850.532C1153.65 848.919 1153.22 847.659 1152.35 846.752C1151.48 845.845 1150.24 845.392 1148.61 845.392H1146.35V855.572H1148.61Z" fill="black"/>
<path d="M800.682 842.952C800.682 850.848 794.017 857.403 785.602 857.403C777.188 857.403 770.523 850.848 770.523 842.952C770.523 835.055 777.188 828.5 785.602 828.5C794.017 828.5 800.682 835.055 800.682 842.952Z" stroke="#27AE60" stroke-width="5"/>
<ellipse cx="780.58" cy="851.742" rx="17.5795" ry="16.9517" fill="#27AE60"/>
<rect x="771.476" y="845.62" width="13.4986" height="3.29616" fill="#F2C94C"/>
<rect x="771.476" y="850.015" width="19.1491" height="3.29616" fill="#F2C94C"/>
<rect x="771.476" y="854.41" width="16.7947" height="3.29616" fill="#F2C94C"/>
<path d="M814.558 850.845C814.558 849.849 814.762 848.967 815.17 848.199C815.59 847.431 816.154 846.837 816.862 846.417C817.582 845.985 818.374 845.769 819.238 845.769C820.018 845.769 820.696 845.925 821.272 846.237C821.86 846.537 822.328 846.915 822.676 847.371V845.931H824.746V855.849H822.676V854.373C822.328 854.841 821.854 855.231 821.254 855.543C820.654 855.855 819.97 856.011 819.202 856.011C818.35 856.011 817.57 855.795 816.862 855.363C816.154 854.919 815.59 854.307 815.17 853.527C814.762 852.735 814.558 851.841 814.558 850.845ZM822.676 850.881C822.676 850.197 822.532 849.603 822.244 849.099C821.968 848.595 821.602 848.211 821.146 847.947C820.69 847.683 820.198 847.551 819.67 847.551C819.142 847.551 818.65 847.683 818.194 847.947C817.738 848.199 817.366 848.577 817.078 849.081C816.802 849.573 816.664 850.161 816.664 850.845C816.664 851.529 816.802 852.129 817.078 852.645C817.366 853.161 817.738 853.557 818.194 853.833C818.662 854.097 819.154 854.229 819.67 854.229C820.198 854.229 820.69 854.097 821.146 853.833C821.602 853.569 821.968 853.185 822.244 852.681C822.532 852.165 822.676 851.565 822.676 850.881ZM829.835 847.605V853.095C829.835 853.467 829.919 853.737 830.087 853.905C830.267 854.061 830.567 854.139 830.987 854.139H832.247V855.849H830.627C829.703 855.849 828.995 855.633 828.503 855.201C828.011 854.769 827.765 854.067 827.765 853.095V847.605H826.595V845.931H827.765V843.465H829.835V845.931H832.247V847.605H829.835ZM843.12 845.931V855.849H841.068V854.679C840.744 855.087 840.318 855.411 839.79 855.651C839.274 855.879 838.722 855.993 838.134 855.993C837.354 855.993 836.652 855.831 836.028 855.507C835.416 855.183 834.93 854.703 834.57 854.067C834.222 853.431 834.048 852.663 834.048 851.763V845.931H836.082V851.457C836.082 852.345 836.304 853.029 836.748 853.509C837.192 853.977 837.798 854.211 838.566 854.211C839.334 854.211 839.94 853.977 840.384 853.509C840.84 853.029 841.068 852.345 841.068 851.457V845.931H843.12ZM847.88 847.371C848.18 846.867 848.576 846.477 849.068 846.201C849.572 845.913 850.166 845.769 850.85 845.769V847.893H850.328C849.524 847.893 848.912 848.097 848.492 848.505C848.084 848.913 847.88 849.621 847.88 850.629V855.849H845.828V845.931H847.88V847.371ZM860.35 848.469V850.197H852.952V848.469H860.35ZM865.317 843.339V855.849H863.265V843.339H865.317ZM873.015 845.769C873.795 845.769 874.491 845.931 875.103 846.255C875.727 846.579 876.213 847.059 876.561 847.695C876.909 848.331 877.083 849.099 877.083 849.999V855.849H875.049V850.305C875.049 849.417 874.827 848.739 874.383 848.271C873.939 847.791 873.333 847.551 872.565 847.551C871.797 847.551 871.185 847.791 870.729 848.271C870.285 848.739 870.063 849.417 870.063 850.305V855.849H868.011V845.931H870.063V847.065C870.399 846.657 870.825 846.339 871.341 846.111C871.869 845.883 872.427 845.769 873.015 845.769Z" fill="#27AE60"/>
<rect x="564" y="168" width="792" height="77" fill="#F2F2F2" stroke="#333333" stroke-width="2"/>
<rect x="564" y="270" width="792" height="78" fill="#F2F2F2" stroke="#333333" stroke-width="2"/>
<rect x="563" y="371" width="792" height="78" fill="#F2F2F2" stroke="#333333" stroke-width="2"/>
<rect x="563" y="472" width="792" height="210" fill="#F2F2F2" stroke="#333333" stroke-width="2"/>
<path d="M783.623 115L775.943 101.656H771.767V115H766.295V81.64H777.815C780.375 81.64 782.535 82.088 784.295 82.984C786.087 83.88 787.415 85.08 788.279 86.584C789.175 88.088 789.623 89.768 789.623 91.624C789.623 93.8 788.983 95.784 787.703 97.576C786.455 99.336 784.519 100.536 781.895 101.176L790.151 115H783.623ZM771.767 97.288H777.815C779.863 97.288 781.399 96.776 782.423 95.752C783.479 94.728 784.007 93.352 784.007 91.624C784.007 89.896 783.495 88.552 782.471 87.592C781.447 86.6 779.895 86.104 777.815 86.104H771.767V97.288ZM820.863 101.128C820.863 102.12 820.799 103.016 820.671 103.816H800.463C800.623 105.928 801.407 107.624 802.815 108.904C804.223 110.184 805.951 110.824 807.999 110.824C810.943 110.824 813.023 109.592 814.239 107.128H820.143C819.343 109.56 817.887 111.56 815.775 113.128C813.695 114.664 811.103 115.432 807.999 115.432C805.471 115.432 803.199 114.872 801.183 113.752C799.199 112.6 797.631 111 796.479 108.952C795.359 106.872 794.799 104.472 794.799 101.752C794.799 99.032 795.343 96.648 796.431 94.6C797.551 92.52 799.103 90.92 801.087 89.8C803.103 88.68 805.407 88.12 807.999 88.12C810.495 88.12 812.719 88.664 814.671 89.752C816.623 90.84 818.143 92.376 819.231 94.36C820.319 96.312 820.863 98.568 820.863 101.128ZM815.151 99.4C815.119 97.384 814.399 95.768 812.991 94.552C811.583 93.336 809.839 92.728 807.759 92.728C805.871 92.728 804.255 93.336 802.911 94.552C801.567 95.736 800.767 97.352 800.511 99.4H815.151ZM824.424 101.656C824.424 99 824.968 96.648 826.056 94.6C827.176 92.552 828.68 90.968 830.568 89.848C832.488 88.696 834.616 88.12 836.952 88.12C839 88.12 840.808 88.536 842.376 89.368C843.976 90.2 845.208 91.208 846.072 92.392V88.552H851.592V127.576H846.072V111.16C845.208 112.344 843.96 113.352 842.328 114.184C840.696 115.016 838.84 115.432 836.76 115.432C834.488 115.432 832.408 114.856 830.52 113.704C828.664 112.52 827.176 110.888 826.056 108.808C824.968 106.696 824.424 104.312 824.424 101.656ZM846.072 101.752C846.072 99.928 845.688 98.344 844.92 97C844.184 95.656 843.208 94.632 841.992 93.928C840.776 93.224 839.464 92.872 838.056 92.872C836.648 92.872 835.336 93.224 834.12 93.928C832.904 94.6 831.912 95.608 831.144 96.952C830.408 98.264 830.04 99.832 830.04 101.656C830.04 103.48 830.408 105.08 831.144 106.456C831.912 107.832 832.904 108.888 834.12 109.624C835.368 110.328 836.68 110.68 838.056 110.68C839.464 110.68 840.776 110.328 841.992 109.624C843.208 108.92 844.184 107.896 844.92 106.552C845.688 105.176 846.072 103.576 846.072 101.752ZM882.732 88.552V115H877.26V111.88C876.396 112.968 875.26 113.832 873.852 114.472C872.476 115.08 871.004 115.384 869.436 115.384C867.356 115.384 865.484 114.952 863.82 114.088C862.188 113.224 860.892 111.944 859.932 110.248C859.004 108.552 858.54 106.504 858.54 104.104V88.552H863.964V103.288C863.964 105.656 864.556 107.48 865.74 108.76C866.924 110.008 868.54 110.632 870.588 110.632C872.636 110.632 874.252 110.008 875.436 108.76C876.652 107.48 877.26 105.656 877.26 103.288V88.552H882.732ZM914.192 101.128C914.192 102.12 914.128 103.016 914 103.816H893.792C893.952 105.928 894.736 107.624 896.144 108.904C897.552 110.184 899.28 110.824 901.328 110.824C904.272 110.824 906.352 109.592 907.568 107.128H913.472C912.672 109.56 911.216 111.56 909.104 113.128C907.024 114.664 904.432 115.432 901.328 115.432C898.8 115.432 896.528 114.872 894.512 113.752C892.528 112.6 890.96 111 889.808 108.952C888.688 106.872 888.128 104.472 888.128 101.752C888.128 99.032 888.672 96.648 889.76 94.6C890.88 92.52 892.432 90.92 894.416 89.8C896.432 88.68 898.736 88.12 901.328 88.12C903.824 88.12 906.048 88.664 908 89.752C909.952 90.84 911.472 92.376 912.56 94.36C913.648 96.312 914.192 98.568 914.192 101.128ZM908.48 99.4C908.448 97.384 907.728 95.768 906.32 94.552C904.912 93.336 903.168 92.728 901.088 92.728C899.2 92.728 897.584 93.336 896.24 94.552C894.896 95.736 894.096 97.352 893.84 99.4H908.48ZM929.177 115.432C927.097 115.432 925.225 115.064 923.561 114.328C921.929 113.56 920.633 112.536 919.673 111.256C918.713 109.944 918.201 108.488 918.137 106.888H923.801C923.897 108.008 924.425 108.952 925.385 109.72C926.377 110.456 927.609 110.824 929.081 110.824C930.617 110.824 931.801 110.536 932.633 109.96C933.497 109.352 933.929 108.584 933.929 107.656C933.929 106.664 933.449 105.928 932.489 105.448C931.561 104.968 930.073 104.44 928.025 103.864C926.041 103.32 924.425 102.792 923.177 102.28C921.929 101.768 920.841 100.984 919.913 99.928C919.017 98.872 918.569 97.48 918.569 95.752C918.569 94.344 918.985 93.064 919.817 91.912C920.649 90.728 921.833 89.8 923.369 89.128C924.937 88.456 926.729 88.12 928.745 88.12C931.753 88.12 934.169 88.888 935.993 90.424C937.849 91.928 938.841 93.992 938.969 96.616H933.497C933.401 95.432 932.921 94.488 932.057 93.784C931.193 93.08 930.025 92.728 928.553 92.728C927.113 92.728 926.009 93 925.241 93.544C924.473 94.088 924.089 94.808 924.089 95.704C924.089 96.408 924.345 97 924.857 97.48C925.369 97.96 925.993 98.344 926.729 98.632C927.465 98.888 928.553 99.224 929.993 99.64C931.913 100.152 933.481 100.68 934.697 101.224C935.945 101.736 937.017 102.504 937.913 103.528C938.809 104.552 939.273 105.912 939.305 107.608C939.305 109.112 938.889 110.456 938.057 111.64C937.225 112.824 936.041 113.752 934.505 114.424C933.001 115.096 931.225 115.432 929.177 115.432ZM951.601 93.016V107.656C951.601 108.648 951.825 109.368 952.273 109.816C952.753 110.232 953.553 110.44 954.673 110.44H958.033V115H953.713C951.249 115 949.361 114.424 948.049 113.272C946.737 112.12 946.081 110.248 946.081 107.656V93.016H942.961V88.552H946.081V81.976H951.601V88.552H958.033V93.016H951.601ZM973.721 101.656C973.721 99 974.265 96.648 975.353 94.6C976.473 92.552 977.977 90.968 979.865 89.848C981.785 88.696 983.897 88.12 986.201 88.12C988.281 88.12 990.089 88.536 991.625 89.368C993.193 90.168 994.441 91.176 995.369 92.392V88.552H1000.89V115H995.369V111.064C994.441 112.312 993.177 113.352 991.577 114.184C989.977 115.016 988.153 115.432 986.105 115.432C983.833 115.432 981.753 114.856 979.865 113.704C977.977 112.52 976.473 110.888 975.353 108.808C974.265 106.696 973.721 104.312 973.721 101.656ZM995.369 101.752C995.369 99.928 994.985 98.344 994.217 97C993.481 95.656 992.505 94.632 991.289 93.928C990.073 93.224 988.761 92.872 987.353 92.872C985.945 92.872 984.633 93.224 983.417 93.928C982.201 94.6 981.209 95.608 980.441 96.952C979.705 98.264 979.337 99.832 979.337 101.656C979.337 103.48 979.705 105.08 980.441 106.456C981.209 107.832 982.201 108.888 983.417 109.624C984.665 110.328 985.977 110.68 987.353 110.68C988.761 110.68 990.073 110.328 991.289 109.624C992.505 108.92 993.481 107.896 994.217 106.552C994.985 105.176 995.369 103.576 995.369 101.752ZM1042.1 81.64V86.104H1033.22V115H1027.75V86.104H1018.82V81.64H1042.1ZM1053.11 92.392C1053.91 91.048 1054.97 90.008 1056.28 89.272C1057.62 88.504 1059.21 88.12 1061.03 88.12V93.784H1059.64C1057.5 93.784 1055.86 94.328 1054.74 95.416C1053.66 96.504 1053.11 98.392 1053.11 101.08V115H1047.64V88.552H1053.11V92.392ZM1068.84 85.048C1067.85 85.048 1067.02 84.712 1066.35 84.04C1065.68 83.368 1065.34 82.536 1065.34 81.544C1065.34 80.552 1065.68 79.72 1066.35 79.048C1067.02 78.376 1067.85 78.04 1068.84 78.04C1069.8 78.04 1070.62 78.376 1071.29 79.048C1071.96 79.72 1072.3 80.552 1072.3 81.544C1072.3 82.536 1071.96 83.368 1071.29 84.04C1070.62 84.712 1069.8 85.048 1068.84 85.048ZM1071.53 88.552V115H1066.06V88.552H1071.53ZM1076.89 101.656C1076.89 99 1077.44 96.648 1078.53 94.6C1079.65 92.552 1081.15 90.968 1083.04 89.848C1084.96 88.696 1087.07 88.12 1089.37 88.12C1091.45 88.12 1093.26 88.536 1094.8 89.368C1096.37 90.168 1097.61 91.176 1098.54 92.392V88.552H1104.06V115H1098.54V111.064C1097.61 112.312 1096.35 113.352 1094.75 114.184C1093.15 115.016 1091.33 115.432 1089.28 115.432C1087.01 115.432 1084.93 114.856 1083.04 113.704C1081.15 112.52 1079.65 110.888 1078.53 108.808C1077.44 106.696 1076.89 104.312 1076.89 101.656ZM1098.54 101.752C1098.54 99.928 1098.16 98.344 1097.39 97C1096.65 95.656 1095.68 94.632 1094.46 93.928C1093.25 93.224 1091.93 92.872 1090.53 92.872C1089.12 92.872 1087.81 93.224 1086.59 93.928C1085.37 94.6 1084.38 95.608 1083.61 96.952C1082.88 98.264 1082.51 99.832 1082.51 101.656C1082.51 103.48 1082.88 105.08 1083.61 106.456C1084.38 107.832 1085.37 108.888 1086.59 109.624C1087.84 110.328 1089.15 110.68 1090.53 110.68C1091.93 110.68 1093.25 110.328 1094.46 109.624C1095.68 108.92 1096.65 107.896 1097.39 106.552C1098.16 105.176 1098.54 103.576 1098.54 101.752ZM1116.72 79.48V115H1111.25V79.48H1116.72Z" fill="black"/>
<path d="M603.412 300.292V307.636H612.052V310.984H603.412V318.652H613.132V322H599.308V296.944H613.132V300.292H603.412ZM642.199 301.84C643.759 301.84 645.151 302.164 646.375 302.812C647.623 303.46 648.595 304.42 649.291 305.692C650.011 306.964 650.371 308.5 650.371 310.3V322H646.303V310.912C646.303 309.136 645.859 307.78 644.971 306.844C644.083 305.884 642.871 305.404 641.335 305.404C639.799 305.404 638.575 305.884 637.663 306.844C636.775 307.78 636.331 309.136 636.331 310.912V322H632.263V310.912C632.263 309.136 631.819 307.78 630.931 306.844C630.043 305.884 628.831 305.404 627.295 305.404C625.759 305.404 624.535 305.884 623.623 306.844C622.735 307.78 622.291 309.136 622.291 310.912V322H618.187V302.164H622.291V304.432C622.963 303.616 623.815 302.98 624.847 302.524C625.879 302.068 626.983 301.84 628.159 301.84C629.743 301.84 631.159 302.176 632.407 302.848C633.655 303.52 634.615 304.492 635.287 305.764C635.887 304.564 636.823 303.616 638.095 302.92C639.367 302.2 640.735 301.84 642.199 301.84ZM654.226 311.992C654.226 310 654.634 308.236 655.45 306.7C656.29 305.164 657.418 303.976 658.834 303.136C660.274 302.272 661.858 301.84 663.586 301.84C665.146 301.84 666.502 302.152 667.654 302.776C668.83 303.376 669.766 304.132 670.462 305.044V302.164H674.602V322H670.462V319.048C669.766 319.984 668.818 320.764 667.618 321.388C666.418 322.012 665.05 322.324 663.514 322.324C661.81 322.324 660.25 321.892 658.834 321.028C657.418 320.14 656.29 318.916 655.45 317.356C654.634 315.772 654.226 313.984 654.226 311.992ZM670.462 312.064C670.462 310.696 670.174 309.508 669.598 308.5C669.046 307.492 668.314 306.724 667.402 306.196C666.49 305.668 665.506 305.404 664.45 305.404C663.394 305.404 662.41 305.668 661.498 306.196C660.586 306.7 659.842 307.456 659.266 308.464C658.714 309.448 658.438 310.624 658.438 311.992C658.438 313.36 658.714 314.56 659.266 315.592C659.842 316.624 660.586 317.416 661.498 317.968C662.434 318.496 663.418 318.76 664.45 318.76C665.506 318.76 666.49 318.496 667.402 317.968C668.314 317.44 669.046 316.672 669.598 315.664C670.174 314.632 670.462 313.432 670.462 312.064ZM682.08 299.536C681.336 299.536 680.712 299.284 680.208 298.78C679.704 298.276 679.452 297.652 679.452 296.908C679.452 296.164 679.704 295.54 680.208 295.036C680.712 294.532 681.336 294.28 682.08 294.28C682.8 294.28 683.412 294.532 683.916 295.036C684.42 295.54 684.672 296.164 684.672 296.908C684.672 297.652 684.42 298.276 683.916 298.78C683.412 299.284 682.8 299.536 682.08 299.536ZM684.096 302.164V322H679.992V302.164H684.096ZM693.588 295.36V322H689.484V295.36H693.588Z" fill="#C4C4C4"/>
<path d="M596.94 410.436C596.94 407.988 597.504 405.792 598.632 403.848C599.784 401.904 601.332 400.392 603.276 399.312C605.244 398.208 607.392 397.656 609.72 397.656C612.384 397.656 614.748 398.316 616.812 399.636C618.9 400.932 620.412 402.78 621.348 405.18H616.416C615.768 403.86 614.868 402.876 613.716 402.228C612.564 401.58 611.232 401.256 609.72 401.256C608.064 401.256 606.588 401.628 605.292 402.372C603.996 403.116 602.976 404.184 602.232 405.576C601.512 406.968 601.152 408.588 601.152 410.436C601.152 412.284 601.512 413.904 602.232 415.296C602.976 416.688 603.996 417.768 605.292 418.536C606.588 419.28 608.064 419.652 609.72 419.652C611.232 419.652 612.564 419.328 613.716 418.68C614.868 418.032 615.768 417.048 616.416 415.728H621.348C620.412 418.128 618.9 419.976 616.812 421.272C614.748 422.568 612.384 423.216 609.72 423.216C607.368 423.216 605.22 422.676 603.276 421.596C601.332 420.492 599.784 418.968 598.632 417.024C597.504 415.08 596.94 412.884 596.94 410.436ZM634.756 423.324C632.884 423.324 631.192 422.904 629.68 422.064C628.168 421.2 626.98 420 626.116 418.464C625.252 416.904 624.82 415.104 624.82 413.064C624.82 411.048 625.264 409.26 626.152 407.7C627.04 406.14 628.252 404.94 629.788 404.1C631.324 403.26 633.04 402.84 634.936 402.84C636.832 402.84 638.548 403.26 640.084 404.1C641.62 404.94 642.832 406.14 643.72 407.7C644.608 409.26 645.052 411.048 645.052 413.064C645.052 415.08 644.596 416.868 643.684 418.428C642.772 419.988 641.524 421.2 639.94 422.064C638.38 422.904 636.652 423.324 634.756 423.324ZM634.756 419.76C635.812 419.76 636.796 419.508 637.708 419.004C638.644 418.5 639.4 417.744 639.976 416.736C640.552 415.728 640.84 414.504 640.84 413.064C640.84 411.624 640.564 410.412 640.012 409.428C639.46 408.42 638.728 407.664 637.816 407.16C636.904 406.656 635.92 406.404 634.864 406.404C633.808 406.404 632.824 406.656 631.912 407.16C631.024 407.664 630.316 408.42 629.788 409.428C629.26 410.412 628.996 411.624 628.996 413.064C628.996 415.2 629.536 416.856 630.616 418.032C631.72 419.184 633.1 419.76 634.756 419.76ZM673.121 402.84C674.681 402.84 676.073 403.164 677.297 403.812C678.545 404.46 679.517 405.42 680.213 406.692C680.933 407.964 681.293 409.5 681.293 411.3V423H677.225V411.912C677.225 410.136 676.781 408.78 675.893 407.844C675.005 406.884 673.793 406.404 672.257 406.404C670.721 406.404 669.497 406.884 668.585 407.844C667.697 408.78 667.253 410.136 667.253 411.912V423H663.185V411.912C663.185 410.136 662.741 408.78 661.853 407.844C660.965 406.884 659.753 406.404 658.217 406.404C656.681 406.404 655.457 406.884 654.545 407.844C653.657 408.78 653.213 410.136 653.213 411.912V423H649.109V403.164H653.213V405.432C653.885 404.616 654.737 403.98 655.769 403.524C656.801 403.068 657.905 402.84 659.081 402.84C660.665 402.84 662.081 403.176 663.329 403.848C664.577 404.52 665.537 405.492 666.209 406.764C666.809 405.564 667.745 404.616 669.017 403.92C670.289 403.2 671.657 402.84 673.121 402.84ZM690.619 406.08C691.315 405.168 692.263 404.4 693.463 403.776C694.663 403.152 696.019 402.84 697.531 402.84C699.259 402.84 700.831 403.272 702.247 404.136C703.687 404.976 704.815 406.164 705.631 407.7C706.447 409.236 706.855 411 706.855 412.992C706.855 414.984 706.447 416.772 705.631 418.356C704.815 419.916 703.687 421.14 702.247 422.028C700.831 422.892 699.259 423.324 697.531 423.324C696.019 423.324 694.675 423.024 693.499 422.424C692.323 421.8 691.363 421.032 690.619 420.12V432.432H686.515V403.164H690.619V406.08ZM702.679 412.992C702.679 411.624 702.391 410.448 701.815 409.464C701.263 408.456 700.519 407.7 699.583 407.196C698.671 406.668 697.687 406.404 696.631 406.404C695.599 406.404 694.615 406.668 693.679 407.196C692.767 407.724 692.023 408.492 691.447 409.5C690.895 410.508 690.619 411.696 690.619 413.064C690.619 414.432 690.895 415.632 691.447 416.664C692.023 417.672 692.767 418.44 693.679 418.968C694.615 419.496 695.599 419.76 696.631 419.76C697.687 419.76 698.671 419.496 699.583 418.968C700.519 418.416 701.263 417.624 701.815 416.592C702.391 415.56 702.679 414.36 702.679 412.992ZM709.546 412.992C709.546 411 709.954 409.236 710.77 407.7C711.61 406.164 712.738 404.976 714.154 404.136C715.594 403.272 717.178 402.84 718.906 402.84C720.466 402.84 721.822 403.152 722.974 403.776C724.15 404.376 725.086 405.132 725.782 406.044V403.164H729.922V423H725.782V420.048C725.086 420.984 724.138 421.764 722.938 422.388C721.738 423.012 720.37 423.324 718.834 423.324C717.13 423.324 715.57 422.892 714.154 422.028C712.738 421.14 711.61 419.916 710.77 418.356C709.954 416.772 709.546 414.984 709.546 412.992ZM725.782 413.064C725.782 411.696 725.494 410.508 724.918 409.5C724.366 408.492 723.634 407.724 722.722 407.196C721.81 406.668 720.826 406.404 719.77 406.404C718.714 406.404 717.73 406.668 716.818 407.196C715.906 407.7 715.162 408.456 714.586 409.464C714.034 410.448 713.758 411.624 713.758 412.992C713.758 414.36 714.034 415.56 714.586 416.592C715.162 417.624 715.906 418.416 716.818 418.968C717.754 419.496 718.738 419.76 719.77 419.76C720.826 419.76 721.81 419.496 722.722 418.968C723.634 418.44 724.366 417.672 724.918 416.664C725.494 415.632 725.782 414.432 725.782 413.064ZM745.32 402.84C746.88 402.84 748.272 403.164 749.496 403.812C750.744 404.46 751.716 405.42 752.412 406.692C753.108 407.964 753.456 409.5 753.456 411.3V423H749.388V411.912C749.388 410.136 748.944 408.78 748.056 407.844C747.168 406.884 745.956 406.404 744.42 406.404C742.884 406.404 741.66 406.884 740.748 407.844C739.86 408.78 739.416 410.136 739.416 411.912V423H735.312V403.164H739.416V405.432C740.088 404.616 740.94 403.98 741.972 403.524C743.028 403.068 744.144 402.84 745.32 402.84ZM776.547 403.164L764.379 432.324H760.131L764.163 422.676L756.351 403.164H760.923L766.503 418.284L772.299 403.164H776.547ZM792.964 389.016L783.172 429.3H779.14L788.896 389.016H792.964ZM809.549 423.252C807.221 423.252 805.073 422.712 803.105 421.632C801.161 420.528 799.613 419.004 798.461 417.06C797.333 415.092 796.769 412.884 796.769 410.436C796.769 407.988 797.333 405.792 798.461 403.848C799.613 401.904 801.161 400.392 803.105 399.312C805.073 398.208 807.221 397.656 809.549 397.656C811.901 397.656 814.049 398.208 815.993 399.312C817.961 400.392 819.509 401.904 820.637 403.848C821.765 405.792 822.329 407.988 822.329 410.436C822.329 412.884 821.765 415.092 820.637 417.06C819.509 419.004 817.961 420.528 815.993 421.632C814.049 422.712 811.901 423.252 809.549 423.252ZM809.549 419.688C811.205 419.688 812.681 419.316 813.977 418.572C815.273 417.804 816.281 416.724 817.001 415.332C817.745 413.916 818.117 412.284 818.117 410.436C818.117 408.588 817.745 406.968 817.001 405.576C816.281 404.184 815.273 403.116 813.977 402.372C812.681 401.628 811.205 401.256 809.549 401.256C807.893 401.256 806.417 401.628 805.121 402.372C803.825 403.116 802.805 404.184 802.061 405.576C801.341 406.968 800.981 408.588 800.981 410.436C800.981 412.284 801.341 413.916 802.061 415.332C802.805 416.724 803.825 417.804 805.121 418.572C806.417 419.316 807.893 419.688 809.549 419.688ZM830.471 406.044C831.071 405.036 831.863 404.256 832.847 403.704C833.855 403.128 835.043 402.84 836.411 402.84V407.088H835.367C833.759 407.088 832.535 407.496 831.695 408.312C830.879 409.128 830.471 410.544 830.471 412.56V423H826.367V403.164H830.471V406.044ZM848.175 402.84C849.711 402.84 851.067 403.152 852.243 403.776C853.443 404.376 854.379 405.132 855.051 406.044V403.164H859.191V423.324C859.191 425.148 858.807 426.768 858.039 428.184C857.271 429.624 856.155 430.752 854.691 431.568C853.251 432.384 851.523 432.792 849.507 432.792C846.819 432.792 844.587 432.156 842.811 430.884C841.035 429.636 840.027 427.932 839.787 425.772H843.855C844.167 426.804 844.827 427.632 845.835 428.256C846.867 428.904 848.091 429.228 849.507 429.228C851.163 429.228 852.495 428.724 853.503 427.716C854.535 426.708 855.051 425.244 855.051 423.324V420.012C854.355 420.948 853.407 421.74 852.207 422.388C851.031 423.012 849.687 423.324 848.175 423.324C846.447 423.324 844.863 422.892 843.423 422.028C842.007 421.14 840.879 419.916 840.039 418.356C839.223 416.772 838.815 414.984 838.815 412.992C838.815 411 839.223 409.236 840.039 407.7C840.879 406.164 842.007 404.976 843.423 404.136C844.863 403.272 846.447 402.84 848.175 402.84ZM855.051 413.064C855.051 411.696 854.763 410.508 854.187 409.5C853.635 408.492 852.903 407.724 851.991 407.196C851.079 406.668 850.095 406.404 849.039 406.404C847.983 406.404 846.999 406.668 846.087 407.196C845.175 407.7 844.431 408.456 843.855 409.464C843.303 410.448 843.027 411.624 843.027 412.992C843.027 414.36 843.303 415.56 843.855 416.592C844.431 417.624 845.175 418.416 846.087 418.968C847.023 419.496 848.007 419.76 849.039 419.76C850.095 419.76 851.079 419.496 851.991 418.968C852.903 418.44 853.635 417.672 854.187 416.664C854.763 415.632 855.051 414.432 855.051 413.064ZM863.214 412.992C863.214 411 863.622 409.236 864.438 407.7C865.278 406.164 866.406 404.976 867.822 404.136C869.262 403.272 870.846 402.84 872.574 402.84C874.134 402.84 875.49 403.152 876.642 403.776C877.818 404.376 878.754 405.132 879.45 406.044V403.164H883.59V423H879.45V420.048C878.754 420.984 877.806 421.764 876.606 422.388C875.406 423.012 874.038 423.324 872.502 423.324C870.798 423.324 869.238 422.892 867.822 422.028C866.406 421.14 865.278 419.916 864.438 418.356C863.622 416.772 863.214 414.984 863.214 412.992ZM879.45 413.064C879.45 411.696 879.162 410.508 878.586 409.5C878.034 408.492 877.302 407.724 876.39 407.196C875.478 406.668 874.494 406.404 873.438 406.404C872.382 406.404 871.398 406.668 870.486 407.196C869.574 407.7 868.83 408.456 868.254 409.464C867.702 410.448 867.426 411.624 867.426 412.992C867.426 414.36 867.702 415.56 868.254 416.592C868.83 417.624 869.574 418.416 870.486 418.968C871.422 419.496 872.406 419.76 873.438 419.76C874.494 419.76 875.478 419.496 876.39 418.968C877.302 418.44 878.034 417.672 878.586 416.664C879.162 415.632 879.45 414.432 879.45 413.064ZM898.988 402.84C900.548 402.84 901.94 403.164 903.164 403.812C904.412 404.46 905.384 405.42 906.08 406.692C906.776 407.964 907.124 409.5 907.124 411.3V423H903.056V411.912C903.056 410.136 902.612 408.78 901.724 407.844C900.836 406.884 899.624 406.404 898.088 406.404C896.552 406.404 895.328 406.884 894.416 407.844C893.528 408.78 893.084 410.136 893.084 411.912V423H888.98V403.164H893.084V405.432C893.756 404.616 894.608 403.98 895.64 403.524C896.696 403.068 897.812 402.84 898.988 402.84ZM914.447 400.536C913.703 400.536 913.079 400.284 912.575 399.78C912.071 399.276 911.819 398.652 911.819 397.908C911.819 397.164 912.071 396.54 912.575 396.036C913.079 395.532 913.703 395.28 914.447 395.28C915.167 395.28 915.779 395.532 916.283 396.036C916.787 396.54 917.039 397.164 917.039 397.908C917.039 398.652 916.787 399.276 916.283 399.78C915.779 400.284 915.167 400.536 914.447 400.536ZM916.463 403.164V423H912.359V403.164H916.463ZM925.487 419.652H934.487V423H920.735V419.652L929.771 406.512H920.735V403.164H934.487V406.512L925.487 419.652ZM956.977 412.596C956.977 413.34 956.929 414.012 956.833 414.612H941.677C941.797 416.196 942.385 417.468 943.441 418.428C944.497 419.388 945.793 419.868 947.329 419.868C949.537 419.868 951.097 418.944 952.009 417.096H956.437C955.837 418.92 954.745 420.42 953.161 421.596C951.601 422.748 949.657 423.324 947.329 423.324C945.433 423.324 943.729 422.904 942.217 422.064C940.729 421.2 939.553 420 938.689 418.464C937.849 416.904 937.429 415.104 937.429 413.064C937.429 411.024 937.837 409.236 938.653 407.7C939.493 406.14 940.657 404.94 942.145 404.1C943.657 403.26 945.385 402.84 947.329 402.84C949.201 402.84 950.869 403.248 952.333 404.064C953.797 404.88 954.937 406.032 955.753 407.52C956.569 408.984 956.977 410.676 956.977 412.596ZM952.693 411.3C952.669 409.788 952.129 408.576 951.073 407.664C950.017 406.752 948.709 406.296 947.149 406.296C945.733 406.296 944.521 406.752 943.513 407.664C942.505 408.552 941.905 409.764 941.713 411.3H952.693Z" fill="#C4C4C4"/>
<path d="M614.864 509.98V513.328H608.204V535H604.1V513.328H597.404V509.98H614.864ZM637.2 524.596C637.2 525.34 637.152 526.012 637.056 526.612H621.9C622.02 528.196 622.608 529.468 623.664 530.428C624.72 531.388 626.016 531.868 627.552 531.868C629.76 531.868 631.32 530.944 632.232 529.096H636.66C636.06 530.92 634.968 532.42 633.384 533.596C631.824 534.748 629.88 535.324 627.552 535.324C625.656 535.324 623.952 534.904 622.44 534.064C620.952 533.2 619.776 532 618.912 530.464C618.072 528.904 617.652 527.104 617.652 525.064C617.652 523.024 618.06 521.236 618.876 519.7C619.716 518.14 620.88 516.94 622.368 516.1C623.88 515.26 625.608 514.84 627.552 514.84C629.424 514.84 631.092 515.248 632.556 516.064C634.02 516.88 635.16 518.032 635.976 519.52C636.792 520.984 637.2 522.676 637.2 524.596ZM632.916 523.3C632.892 521.788 632.352 520.576 631.296 519.664C630.24 518.752 628.932 518.296 627.372 518.296C625.956 518.296 624.744 518.752 623.736 519.664C622.728 520.552 622.128 521.764 621.936 523.3H632.916ZM645.343 508.36V535H641.239V508.36H645.343ZM654.835 508.36V535H650.731V508.36H654.835ZM687.539 515.164V535H683.435V532.66C682.787 533.476 681.935 534.124 680.879 534.604C679.847 535.06 678.743 535.288 677.567 535.288C676.007 535.288 674.603 534.964 673.355 534.316C672.131 533.668 671.159 532.708 670.439 531.436C669.743 530.164 669.395 528.628 669.395 526.828V515.164H673.463V526.216C673.463 527.992 673.907 529.36 674.795 530.32C675.683 531.256 676.895 531.724 678.431 531.724C679.967 531.724 681.179 531.256 682.067 530.32C682.979 529.36 683.435 527.992 683.435 526.216V515.164H687.539ZM700.154 535.324C698.594 535.324 697.19 535.048 695.942 534.496C694.718 533.92 693.746 533.152 693.026 532.192C692.306 531.208 691.922 530.116 691.874 528.916H696.122C696.194 529.756 696.59 530.464 697.31 531.04C698.054 531.592 698.978 531.868 700.082 531.868C701.234 531.868 702.122 531.652 702.746 531.22C703.394 530.764 703.718 530.188 703.718 529.492C703.718 528.748 703.358 528.196 702.638 527.836C701.942 527.476 700.826 527.08 699.29 526.648C697.802 526.24 696.59 525.844 695.654 525.46C694.718 525.076 693.902 524.488 693.206 523.696C692.534 522.904 692.198 521.86 692.198 520.564C692.198 519.508 692.51 518.548 693.134 517.684C693.758 516.796 694.646 516.1 695.798 515.596C696.974 515.092 698.318 514.84 699.83 514.84C702.086 514.84 703.898 515.416 705.266 516.568C706.658 517.696 707.402 519.244 707.498 521.212H703.394C703.322 520.324 702.962 519.616 702.314 519.088C701.666 518.56 700.79 518.296 699.686 518.296C698.606 518.296 697.778 518.5 697.202 518.908C696.626 519.316 696.338 519.856 696.338 520.528C696.338 521.056 696.53 521.5 696.914 521.86C697.298 522.22 697.766 522.508 698.318 522.724C698.87 522.916 699.686 523.168 700.766 523.48C702.206 523.864 703.382 524.26 704.294 524.668C705.23 525.052 706.034 525.628 706.706 526.396C707.378 527.164 707.726 528.184 707.75 529.456C707.75 530.584 707.438 531.592 706.814 532.48C706.19 533.368 705.302 534.064 704.15 534.568C703.022 535.072 701.69 535.324 700.154 535.324ZM748.176 515.164L742.02 535H737.7L733.704 520.348L729.708 535H725.388L719.196 515.164H723.372L727.512 531.112L731.724 515.164H736.008L740.04 531.04L744.144 515.164H748.176ZM761.503 514.84C763.015 514.84 764.359 515.164 765.535 515.812C766.735 516.46 767.671 517.42 768.343 518.692C769.039 519.964 769.387 521.5 769.387 523.3V535H765.319V523.912C765.319 522.136 764.875 520.78 763.987 519.844C763.099 518.884 761.887 518.404 760.351 518.404C758.815 518.404 757.591 518.884 756.679 519.844C755.791 520.78 755.347 522.136 755.347 523.912V535H751.243V508.36H755.347V517.468C756.043 516.628 756.919 515.98 757.975 515.524C759.055 515.068 760.231 514.84 761.503 514.84ZM792.478 515.164L780.31 544.324H776.062L780.094 534.676L772.282 515.164H776.854L782.434 530.284L788.23 515.164H792.478ZM822.783 515.164L810.615 544.324H806.367L810.399 534.676L802.587 515.164H807.159L812.739 530.284L818.535 515.164H822.783ZM834.484 535.324C832.612 535.324 830.92 534.904 829.408 534.064C827.896 533.2 826.708 532 825.844 530.464C824.98 528.904 824.548 527.104 824.548 525.064C824.548 523.048 824.992 521.26 825.88 519.7C826.768 518.14 827.98 516.94 829.516 516.1C831.052 515.26 832.768 514.84 834.664 514.84C836.56 514.84 838.276 515.26 839.812 516.1C841.348 516.94 842.56 518.14 843.448 519.7C844.336 521.26 844.78 523.048 844.78 525.064C844.78 527.08 844.324 528.868 843.412 530.428C842.5 531.988 841.252 533.2 839.668 534.064C838.108 534.904 836.38 535.324 834.484 535.324ZM834.484 531.76C835.54 531.76 836.524 531.508 837.436 531.004C838.372 530.5 839.128 529.744 839.704 528.736C840.28 527.728 840.568 526.504 840.568 525.064C840.568 523.624 840.292 522.412 839.74 521.428C839.188 520.42 838.456 519.664 837.544 519.16C836.632 518.656 835.648 518.404 834.592 518.404C833.536 518.404 832.552 518.656 831.64 519.16C830.752 519.664 830.044 520.42 829.516 521.428C828.988 522.412 828.724 523.624 828.724 525.064C828.724 527.2 829.264 528.856 830.344 530.032C831.448 531.184 832.828 531.76 834.484 531.76ZM866.801 515.164V535H862.697V532.66C862.049 533.476 861.197 534.124 860.141 534.604C859.109 535.06 858.005 535.288 856.829 535.288C855.269 535.288 853.865 534.964 852.617 534.316C851.393 533.668 850.421 532.708 849.701 531.436C849.005 530.164 848.657 528.628 848.657 526.828V515.164H852.725V526.216C852.725 527.992 853.169 529.36 854.057 530.32C854.945 531.256 856.157 531.724 857.693 531.724C859.229 531.724 860.441 531.256 861.329 530.32C862.241 529.36 862.697 527.992 862.697 526.216V515.164H866.801ZM891.575 514.84C893.135 514.84 894.527 515.164 895.751 515.812C896.999 516.46 897.971 517.42 898.667 518.692C899.363 519.964 899.711 521.5 899.711 523.3V535H895.643V523.912C895.643 522.136 895.199 520.78 894.311 519.844C893.423 518.884 892.211 518.404 890.675 518.404C889.139 518.404 887.915 518.884 887.003 519.844C886.115 520.78 885.671 522.136 885.671 523.912V535H881.567V515.164H885.671V517.432C886.343 516.616 887.195 515.98 888.227 515.524C889.283 515.068 890.399 514.84 891.575 514.84ZM923.126 524.596C923.126 525.34 923.078 526.012 922.982 526.612H907.826C907.946 528.196 908.534 529.468 909.59 530.428C910.646 531.388 911.942 531.868 913.478 531.868C915.686 531.868 917.246 530.944 918.158 529.096H922.586C921.986 530.92 920.894 532.42 919.31 533.596C917.75 534.748 915.806 535.324 913.478 535.324C911.582 535.324 909.878 534.904 908.366 534.064C906.878 533.2 905.702 532 904.838 530.464C903.998 528.904 903.578 527.104 903.578 525.064C903.578 523.024 903.986 521.236 904.802 519.7C905.642 518.14 906.806 516.94 908.294 516.1C909.806 515.26 911.534 514.84 913.478 514.84C915.35 514.84 917.018 515.248 918.482 516.064C919.946 516.88 921.086 518.032 921.902 519.52C922.718 520.984 923.126 522.676 923.126 524.596ZM918.842 523.3C918.818 521.788 918.278 520.576 917.222 519.664C916.166 518.752 914.858 518.296 913.298 518.296C911.882 518.296 910.67 518.752 909.662 519.664C908.654 520.552 908.054 521.764 907.862 523.3H918.842ZM945.345 524.596C945.345 525.34 945.297 526.012 945.201 526.612H930.045C930.165 528.196 930.753 529.468 931.809 530.428C932.865 531.388 934.161 531.868 935.697 531.868C937.905 531.868 939.465 530.944 940.377 529.096H944.805C944.205 530.92 943.113 532.42 941.529 533.596C939.969 534.748 938.025 535.324 935.697 535.324C933.801 535.324 932.097 534.904 930.585 534.064C929.097 533.2 927.921 532 927.057 530.464C926.217 528.904 925.797 527.104 925.797 525.064C925.797 523.024 926.205 521.236 927.021 519.7C927.861 518.14 929.025 516.94 930.513 516.1C932.025 515.26 933.753 514.84 935.697 514.84C937.569 514.84 939.237 515.248 940.701 516.064C942.165 516.88 943.305 518.032 944.121 519.52C944.937 520.984 945.345 522.676 945.345 524.596ZM941.061 523.3C941.037 521.788 940.497 520.576 939.441 519.664C938.385 518.752 937.077 518.296 935.517 518.296C934.101 518.296 932.889 518.752 931.881 519.664C930.873 520.552 930.273 521.764 930.081 523.3H941.061ZM948.016 524.992C948.016 523 948.424 521.236 949.24 519.7C950.08 518.164 951.208 516.976 952.624 516.136C954.064 515.272 955.66 514.84 957.412 514.84C958.708 514.84 959.98 515.128 961.228 515.704C962.5 516.256 963.508 517 964.252 517.936V508.36H968.392V535H964.252V532.012C963.58 532.972 962.644 533.764 961.444 534.388C960.268 535.012 958.912 535.324 957.376 535.324C955.648 535.324 954.064 534.892 952.624 534.028C951.208 533.14 950.08 531.916 949.24 530.356C948.424 528.772 948.016 526.984 948.016 524.992ZM964.252 525.064C964.252 523.696 963.964 522.508 963.388 521.5C962.836 520.492 962.104 519.724 961.192 519.196C960.28 518.668 959.296 518.404 958.24 518.404C957.184 518.404 956.2 518.668 955.288 519.196C954.376 519.7 953.632 520.456 953.056 521.464C952.504 522.448 952.228 523.624 952.228 524.992C952.228 526.36 952.504 527.56 953.056 528.592C953.632 529.624 954.376 530.416 955.288 530.968C956.224 531.496 957.208 531.76 958.24 531.76C959.296 531.76 960.28 531.496 961.192 530.968C962.104 530.44 962.836 529.672 963.388 528.664C963.964 527.632 964.252 526.432 964.252 525.064ZM981.766 524.992C981.766 523 982.174 521.236 982.99 519.7C983.83 518.164 984.958 516.976 986.374 516.136C987.814 515.272 989.398 514.84 991.126 514.84C992.686 514.84 994.042 515.152 995.194 515.776C996.37 516.376 997.306 517.132 998.002 518.044V515.164H1002.14V535H998.002V532.048C997.306 532.984 996.358 533.764 995.158 534.388C993.958 535.012 992.59 535.324 991.054 535.324C989.35 535.324 987.79 534.892 986.374 534.028C984.958 533.14 983.83 531.916 982.99 530.356C982.174 528.772 981.766 526.984 981.766 524.992ZM998.002 525.064C998.002 523.696 997.714 522.508 997.138 521.5C996.586 520.492 995.854 519.724 994.942 519.196C994.03 518.668 993.046 518.404 991.99 518.404C990.934 518.404 989.95 518.668 989.038 519.196C988.126 519.7 987.382 520.456 986.806 521.464C986.254 522.448 985.978 523.624 985.978 524.992C985.978 526.36 986.254 527.56 986.806 528.592C987.382 529.624 988.126 530.416 989.038 530.968C989.974 531.496 990.958 531.76 991.99 531.76C993.046 531.76 994.03 531.496 994.942 530.968C995.854 530.44 996.586 529.672 997.138 528.664C997.714 527.632 998.002 526.432 998.002 525.064ZM1021.67 518.512V529.492C1021.67 530.236 1021.84 530.776 1022.18 531.112C1022.54 531.424 1023.14 531.58 1023.98 531.58H1026.5V535H1023.26C1021.41 535 1019.99 534.568 1019.01 533.704C1018.02 532.84 1017.53 531.436 1017.53 529.492V518.512H1015.19V515.164H1017.53V510.232H1021.67V515.164H1026.5V518.512H1021.67ZM1034.38 518.044C1034.98 517.036 1035.77 516.256 1036.76 515.704C1037.77 515.128 1038.95 514.84 1040.32 514.84V519.088H1039.28C1037.67 519.088 1036.45 519.496 1035.61 520.312C1034.79 521.128 1034.38 522.544 1034.38 524.56V535H1030.28V515.164H1034.38V518.044ZM1046.18 512.536C1045.44 512.536 1044.81 512.284 1044.31 511.78C1043.81 511.276 1043.55 510.652 1043.55 509.908C1043.55 509.164 1043.81 508.54 1044.31 508.036C1044.81 507.532 1045.44 507.28 1046.18 507.28C1046.9 507.28 1047.51 507.532 1048.02 508.036C1048.52 508.54 1048.77 509.164 1048.77 509.908C1048.77 510.652 1048.52 511.276 1048.02 511.78C1047.51 512.284 1046.9 512.536 1046.18 512.536ZM1048.2 515.164V535H1044.09V515.164H1048.2ZM1052.22 524.992C1052.22 523 1052.63 521.236 1053.44 519.7C1054.28 518.164 1055.41 516.976 1056.83 516.136C1058.27 515.272 1059.85 514.84 1061.58 514.84C1063.14 514.84 1064.49 515.152 1065.65 515.776C1066.82 516.376 1067.76 517.132 1068.45 518.044V515.164H1072.59V535H1068.45V532.048C1067.76 532.984 1066.81 533.764 1065.61 534.388C1064.41 535.012 1063.04 535.324 1061.51 535.324C1059.8 535.324 1058.24 534.892 1056.83 534.028C1055.41 533.14 1054.28 531.916 1053.44 530.356C1052.63 528.772 1052.22 526.984 1052.22 524.992ZM1068.45 525.064C1068.45 523.696 1068.17 522.508 1067.59 521.5C1067.04 520.492 1066.31 519.724 1065.39 519.196C1064.48 518.668 1063.5 518.404 1062.44 518.404C1061.39 518.404 1060.4 518.668 1059.49 519.196C1058.58 519.7 1057.83 520.456 1057.26 521.464C1056.71 522.448 1056.43 523.624 1056.43 524.992C1056.43 526.36 1056.71 527.56 1057.26 528.592C1057.83 529.624 1058.58 530.416 1059.49 530.968C1060.43 531.496 1061.41 531.76 1062.44 531.76C1063.5 531.76 1064.48 531.496 1065.39 530.968C1066.31 530.44 1067.04 529.672 1067.59 528.664C1068.17 527.632 1068.45 526.432 1068.45 525.064ZM1082.09 508.36V535H1077.99V508.36H1082.09Z" fill="#C4C4C4"/>
<path d="M614.424 195.98V199.328H603.804V206.708H612.084V210.056H603.804V221H599.7V195.98H614.424ZM636.191 201.164V221H632.087V218.66C631.439 219.476 630.587 220.124 629.531 220.604C628.499 221.06 627.395 221.288 626.219 221.288C624.659 221.288 623.255 220.964 622.007 220.316C620.783 219.668 619.811 218.708 619.091 217.436C618.395 216.164 618.047 214.628 618.047 212.828V201.164H622.115V212.216C622.115 213.992 622.559 215.36 623.447 216.32C624.335 217.256 625.547 217.724 627.083 217.724C628.619 217.724 629.831 217.256 630.719 216.32C631.631 215.36 632.087 213.992 632.087 212.216V201.164H636.191ZM645.71 194.36V221H641.606V194.36H645.71ZM655.202 194.36V221H651.098V194.36H655.202ZM690.498 221H686.394L674.046 202.316V221H669.942V195.944H674.046L686.394 214.592V195.944H690.498V221ZM694.52 210.992C694.52 209 694.928 207.236 695.744 205.7C696.584 204.164 697.712 202.976 699.128 202.136C700.568 201.272 702.152 200.84 703.88 200.84C705.44 200.84 706.796 201.152 707.948 201.776C709.124 202.376 710.06 203.132 710.756 204.044V201.164H714.896V221H710.756V218.048C710.06 218.984 709.112 219.764 707.912 220.388C706.712 221.012 705.344 221.324 703.808 221.324C702.104 221.324 700.544 220.892 699.128 220.028C697.712 219.14 696.584 217.916 695.744 216.356C694.928 214.772 694.52 212.984 694.52 210.992ZM710.756 211.064C710.756 209.696 710.468 208.508 709.892 207.5C709.34 206.492 708.608 205.724 707.696 205.196C706.784 204.668 705.8 204.404 704.744 204.404C703.688 204.404 702.704 204.668 701.792 205.196C700.88 205.7 700.136 206.456 699.56 207.464C699.008 208.448 698.732 209.624 698.732 210.992C698.732 212.36 699.008 213.56 699.56 214.592C700.136 215.624 700.88 216.416 701.792 216.968C702.728 217.496 703.712 217.76 704.744 217.76C705.8 217.76 706.784 217.496 707.696 216.968C708.608 216.44 709.34 215.672 709.892 214.664C710.468 213.632 710.756 212.432 710.756 211.064ZM744.298 200.84C745.858 200.84 747.25 201.164 748.474 201.812C749.722 202.46 750.694 203.42 751.39 204.692C752.11 205.964 752.47 207.5 752.47 209.3V221H748.402V209.912C748.402 208.136 747.958 206.78 747.07 205.844C746.182 204.884 744.97 204.404 743.434 204.404C741.898 204.404 740.674 204.884 739.762 205.844C738.874 206.78 738.43 208.136 738.43 209.912V221H734.362V209.912C734.362 208.136 733.918 206.78 733.03 205.844C732.142 204.884 730.93 204.404 729.394 204.404C727.858 204.404 726.634 204.884 725.722 205.844C724.834 206.78 724.39 208.136 724.39 209.912V221H720.286V201.164H724.39V203.432C725.062 202.616 725.914 201.98 726.946 201.524C727.978 201.068 729.082 200.84 730.258 200.84C731.842 200.84 733.258 201.176 734.506 201.848C735.754 202.52 736.714 203.492 737.386 204.764C737.986 203.564 738.922 202.616 740.194 201.92C741.466 201.2 742.834 200.84 744.298 200.84ZM775.872 210.596C775.872 211.34 775.824 212.012 775.728 212.612H760.572C760.692 214.196 761.28 215.468 762.336 216.428C763.392 217.388 764.688 217.868 766.224 217.868C768.432 217.868 769.992 216.944 770.904 215.096H775.332C774.732 216.92 773.64 218.42 772.056 219.596C770.496 220.748 768.552 221.324 766.224 221.324C764.328 221.324 762.624 220.904 761.112 220.064C759.624 219.2 758.448 218 757.584 216.464C756.744 214.904 756.324 213.104 756.324 211.064C756.324 209.024 756.732 207.236 757.548 205.7C758.388 204.14 759.552 202.94 761.04 202.1C762.552 201.26 764.28 200.84 766.224 200.84C768.096 200.84 769.764 201.248 771.228 202.064C772.692 202.88 773.832 204.032 774.648 205.52C775.464 206.984 775.872 208.676 775.872 210.596ZM771.588 209.3C771.564 207.788 771.024 206.576 769.968 205.664C768.912 204.752 767.604 204.296 766.044 204.296C764.628 204.296 763.416 204.752 762.408 205.664C761.4 206.552 760.8 207.764 760.608 209.3H771.588Z" fill="#C4C4C4"/>
<rect x="564" y="726" width="792.962" height="59.2941" rx="29.6471" fill="#27AE60"/>
<path d="M825.633 769.252C823.953 769.252 822.441 768.964 821.097 768.388C819.753 767.788 818.697 766.948 817.929 765.868C817.161 764.788 816.777 763.528 816.777 762.088H821.169C821.265 763.168 821.685 764.056 822.429 764.752C823.197 765.448 824.265 765.796 825.633 765.796C827.049 765.796 828.153 765.46 828.945 764.788C829.737 764.092 830.133 763.204 830.133 762.124C830.133 761.284 829.881 760.6 829.377 760.072C828.897 759.544 828.285 759.136 827.541 758.848C826.821 758.56 825.813 758.248 824.517 757.912C822.885 757.48 821.553 757.048 820.521 756.616C819.513 756.16 818.649 755.464 817.929 754.528C817.209 753.592 816.849 752.344 816.849 750.784C816.849 749.344 817.209 748.084 817.929 747.004C818.649 745.924 819.657 745.096 820.953 744.52C822.249 743.944 823.749 743.656 825.453 743.656C827.877 743.656 829.857 744.268 831.393 745.492C832.953 746.692 833.817 748.348 833.985 750.46H829.449C829.377 749.548 828.945 748.768 828.153 748.12C827.361 747.472 826.317 747.148 825.021 747.148C823.845 747.148 822.885 747.448 822.141 748.048C821.397 748.648 821.025 749.512 821.025 750.64C821.025 751.408 821.253 752.044 821.709 752.548C822.189 753.028 822.789 753.412 823.509 753.7C824.229 753.988 825.213 754.3 826.461 754.636C828.117 755.092 829.461 755.548 830.493 756.004C831.549 756.46 832.437 757.168 833.157 758.128C833.901 759.064 834.273 760.324 834.273 761.908C834.273 763.18 833.925 764.38 833.229 765.508C832.557 766.636 831.561 767.548 830.241 768.244C828.945 768.916 827.409 769.252 825.633 769.252ZM843.22 747.292V754.636H851.86V757.984H843.22V765.652H852.94V769H839.116V743.944H852.94V747.292H843.22ZM878.551 769H874.447L862.099 750.316V769H857.995V743.944H862.099L874.447 762.592V743.944H878.551V769ZM892.112 743.98C894.776 743.98 897.104 744.496 899.096 745.528C901.112 746.536 902.66 748 903.74 749.92C904.844 751.816 905.396 754.036 905.396 756.58C905.396 759.124 904.844 761.332 903.74 763.204C902.66 765.076 901.112 766.516 899.096 767.524C897.104 768.508 894.776 769 892.112 769H883.94V743.98H892.112ZM892.112 765.652C895.04 765.652 897.284 764.86 898.844 763.276C900.404 761.692 901.184 759.46 901.184 756.58C901.184 753.676 900.404 751.408 898.844 749.776C897.284 748.144 895.04 747.328 892.112 747.328H888.044V765.652H892.112ZM933.899 763.888H923.423L921.623 769H917.339L926.303 743.944H931.055L940.019 769H935.699L933.899 763.888ZM932.747 760.54L928.679 748.912L924.575 760.54H932.747ZM966.264 769L960.504 758.992H957.372V769H953.268V743.98H961.908C963.828 743.98 965.448 744.316 966.768 744.988C968.112 745.66 969.108 746.56 969.756 747.688C970.428 748.816 970.764 750.076 970.764 751.468C970.764 753.1 970.284 754.588 969.324 755.932C968.388 757.252 966.936 758.152 964.968 758.632L971.16 769H966.264ZM957.372 755.716H961.908C963.444 755.716 964.596 755.332 965.364 754.564C966.156 753.796 966.552 752.764 966.552 751.468C966.552 750.172 966.168 749.164 965.4 748.444C964.632 747.7 963.468 747.328 961.908 747.328H957.372V755.716ZM980.118 747.292V754.636H988.758V757.984H980.118V765.652H989.838V769H976.014V743.944H989.838V747.292H980.118ZM1014.26 773.536L1009.87 768.784C1008.79 769.096 1007.6 769.252 1006.31 769.252C1003.98 769.252 1001.83 768.712 999.861 767.632C997.917 766.528 996.369 765.004 995.217 763.06C994.089 761.092 993.525 758.884 993.525 756.436C993.525 753.988 994.089 751.792 995.217 749.848C996.369 747.904 997.917 746.392 999.861 745.312C1001.83 744.208 1003.98 743.656 1006.31 743.656C1008.66 743.656 1010.81 744.208 1012.75 745.312C1014.72 746.392 1016.27 747.904 1017.39 749.848C1018.52 751.792 1019.09 753.988 1019.09 756.436C1019.09 758.74 1018.58 760.828 1017.57 762.7C1016.59 764.548 1015.22 766.036 1013.47 767.164L1019.48 773.536H1014.26ZM997.737 756.436C997.737 758.284 998.097 759.916 998.817 761.332C999.561 762.724 1000.58 763.804 1001.88 764.572C1003.17 765.316 1004.65 765.688 1006.31 765.688C1007.96 765.688 1009.44 765.316 1010.73 764.572C1012.03 763.804 1013.04 762.724 1013.76 761.332C1014.5 759.916 1014.87 758.284 1014.87 756.436C1014.87 754.588 1014.5 752.968 1013.76 751.576C1013.04 750.184 1012.03 749.116 1010.73 748.372C1009.44 747.628 1007.96 747.256 1006.31 747.256C1004.65 747.256 1003.17 747.628 1001.88 748.372C1000.58 749.116 999.561 750.184 998.817 751.576C998.097 752.968 997.737 754.588 997.737 756.436ZM1027.3 743.98V759.928C1027.3 761.824 1027.79 763.252 1028.77 764.212C1029.78 765.172 1031.17 765.652 1032.95 765.652C1034.75 765.652 1036.14 765.172 1037.13 764.212C1038.13 763.252 1038.64 761.824 1038.64 759.928V743.98H1042.74V759.856C1042.74 761.896 1042.3 763.624 1041.41 765.04C1040.52 766.456 1039.33 767.512 1037.85 768.208C1036.36 768.904 1034.71 769.252 1032.91 769.252C1031.11 769.252 1029.47 768.904 1027.98 768.208C1026.52 767.512 1025.35 766.456 1024.49 765.04C1023.63 763.624 1023.19 761.896 1023.19 759.856V743.98H1027.3ZM1052.19 747.292V754.636H1060.83V757.984H1052.19V765.652H1061.91V769H1048.08V743.944H1061.91V747.292H1052.19ZM1075.21 769.252C1073.53 769.252 1072.02 768.964 1070.67 768.388C1069.33 767.788 1068.27 766.948 1067.5 765.868C1066.74 764.788 1066.35 763.528 1066.35 762.088H1070.74C1070.84 763.168 1071.26 764.056 1072 764.752C1072.77 765.448 1073.84 765.796 1075.21 765.796C1076.62 765.796 1077.73 765.46 1078.52 764.788C1079.31 764.092 1079.71 763.204 1079.71 762.124C1079.71 761.284 1079.46 760.6 1078.95 760.072C1078.47 759.544 1077.86 759.136 1077.12 758.848C1076.4 758.56 1075.39 758.248 1074.09 757.912C1072.46 757.48 1071.13 757.048 1070.1 756.616C1069.09 756.16 1068.22 755.464 1067.5 754.528C1066.78 753.592 1066.42 752.344 1066.42 750.784C1066.42 749.344 1066.78 748.084 1067.5 747.004C1068.22 745.924 1069.23 745.096 1070.53 744.52C1071.82 743.944 1073.32 743.656 1075.03 743.656C1077.45 743.656 1079.43 744.268 1080.97 745.492C1082.53 746.692 1083.39 748.348 1083.56 750.46H1079.02C1078.95 749.548 1078.52 748.768 1077.73 748.12C1076.94 747.472 1075.89 747.148 1074.6 747.148C1073.42 747.148 1072.46 747.448 1071.72 748.048C1070.97 748.648 1070.6 749.512 1070.6 750.64C1070.6 751.408 1070.83 752.044 1071.28 752.548C1071.76 753.028 1072.36 753.412 1073.08 753.7C1073.8 753.988 1074.79 754.3 1076.04 754.636C1077.69 755.092 1079.04 755.548 1080.07 756.004C1081.12 756.46 1082.01 757.168 1082.73 758.128C1083.48 759.064 1083.85 760.324 1083.85 761.908C1083.85 763.18 1083.5 764.38 1082.8 765.508C1082.13 766.636 1081.14 767.548 1079.82 768.244C1078.52 768.916 1076.98 769.252 1075.21 769.252ZM1104.85 743.98V747.328H1098.19V769H1094.09V747.328H1087.39V743.98H1104.85Z" fill="white"/>
</g>
<defs>
<clipPath id="clip0">
<rect width="1920" height="930" fill="white"/>
</clipPath>
</defs>
</svg>
