<svg width="942" height="570" viewBox="0 0 942 570" fill="none" xmlns="http://www.w3.org/2000/svg">
<path d="M542.381 214.304C559.579 214.304 573.521 200.358 573.521 183.156C573.521 165.954 559.579 152.009 542.381 152.009C525.183 152.009 511.241 165.954 511.241 183.156C511.241 200.358 525.183 214.304 542.381 214.304Z" fill="#2F2E41"/>
<path d="M551.057 152.867C556.446 152.867 561.743 154.267 566.429 156.928C571.116 159.59 575.031 163.422 577.794 168.05C580.556 172.679 582.071 177.945 582.189 183.334C582.307 188.723 581.026 194.051 578.469 198.796C581.169 195.417 583.135 191.513 584.243 187.332C585.351 183.152 585.576 178.786 584.904 174.513C584.232 170.241 582.677 166.155 580.339 162.516C578.001 158.878 574.93 155.767 571.324 153.381C567.717 150.995 563.653 149.387 559.391 148.659C555.128 147.931 550.761 148.099 546.567 149.152C542.373 150.206 538.444 152.122 535.032 154.778C531.619 157.434 528.797 160.772 526.745 164.579C529.656 160.924 533.354 157.972 537.563 155.944C541.772 153.917 546.385 152.864 551.057 152.867Z" fill="#2F2E41"/>
<path d="M484.192 183.09C534.711 183.09 575.665 142.127 575.665 91.5957C575.665 41.0646 534.711 0.10099 484.192 0.10099C433.673 0.10099 392.719 41.0646 392.719 91.5957C392.719 142.127 433.673 183.09 484.192 183.09Z" fill="#2F2E41"/>
<path d="M412.401 34.8276C428.162 17.0974 450.194 6.18585 473.847 4.39594C497.499 2.60604 520.921 10.0778 539.171 25.2342C538.423 24.523 537.682 23.806 536.905 23.1149C518.773 6.99915 494.983 -1.25307 470.769 0.173154C446.554 1.59938 423.898 12.5872 407.782 30.7202C391.666 48.8532 383.41 72.6464 384.83 96.8671C386.25 121.088 397.23 143.752 415.355 159.876C416.133 160.568 416.931 161.219 417.725 161.878C400.539 145.526 390.377 123.134 389.383 99.4297C388.39 75.7249 396.643 52.5612 412.401 34.8276Z" fill="#2F2E41"/>
<path d="M483.417 182.315C515.955 182.315 542.332 155.932 542.332 123.386C542.332 90.8408 515.955 64.4574 483.417 64.4574C450.879 64.4574 424.502 90.8408 424.502 123.386C424.502 155.932 450.879 182.315 483.417 182.315Z" fill="#FFB8B8"/>
<path d="M441.556 141.995C441.556 141.995 449.308 213.33 436.905 221.084C424.502 228.838 508.223 239.693 508.223 239.693C508.223 239.693 495.82 162.155 526.828 141.995H441.556Z" fill="#FFB8B8"/>
<path d="M515.975 208.678C515.975 208.678 539.061 197.895 505.812 201.736C472.564 205.576 443.878 190.844 443.878 190.844C443.878 190.844 433.804 180.764 432.254 191.62C430.704 202.475 436.905 222.635 402.797 225.736C368.688 228.838 337.681 219.533 325.277 242.795C312.874 266.056 319.076 366.855 319.076 366.855C319.076 366.855 342.332 450.596 360.936 463.002C379.541 475.408 542.332 458.35 542.332 458.35L588.843 374.609V276.911C588.843 276.911 582.642 242.795 539.231 252.099C539.231 252.099 511.324 245.896 512.874 231.939C514.425 217.982 515.975 208.678 515.975 208.678Z" fill="#F2C94C"/>
<path d="M367.089 522.264C368.047 518.088 368.689 515.726 368.689 515.726L368.193 512.328L363.085 477.635L360.937 463.001C379.538 455.247 384.192 419.578 384.192 419.578L384.894 419.158L388.068 417.259V417.25L399.465 410.412L399.696 410.275L404.299 413.339L413.65 419.578C446.368 443.643 479.684 443.215 500.244 439.424C512.813 437.104 520.624 433.536 520.624 433.536L543.177 426.013L543.879 425.782L544.572 425.885L557.799 427.887L558.039 427.93L559.134 428.093L556.071 449.274L551.63 480.056C563.361 486.269 573.79 497.942 582.911 512.328C584.93 515.512 586.886 518.824 588.78 522.264C591.244 526.714 593.597 531.344 595.839 536.085C596.112 536.65 596.378 537.223 596.643 537.797C597.507 539.654 598.363 541.528 599.193 543.411H362.982C363.29 541.519 363.598 539.714 363.898 537.976C363.913 537.917 363.925 537.857 363.932 537.797C364.043 537.215 364.146 536.65 364.24 536.085C365.284 530.437 366.293 525.721 367.089 522.264Z" fill="#2F2E41"/>
<path d="M357.836 224.185C357.836 224.185 374.89 255.201 368.688 293.97C362.487 332.738 387.293 428.885 387.293 428.885L405.898 424.233C405.898 424.233 393.494 343.594 396.595 324.985C399.696 306.376 399.696 233.49 384.192 224.185C368.688 214.881 357.836 224.185 357.836 224.185Z" fill="#219653"/>
<path d="M538.14 256.416L544.657 428.11L557.06 435.864C557.06 435.864 574.89 247.447 565.587 247.447H546.66C545.503 247.447 544.358 247.682 543.294 248.139C542.231 248.595 541.272 249.263 540.475 250.103C539.678 250.942 539.06 251.934 538.659 253.019C538.257 254.105 538.081 255.261 538.14 256.416Z" fill="#219653"/>
<path d="M395.82 425.009C400.101 425.009 403.572 421.537 403.572 417.255C403.572 412.972 400.101 409.501 395.82 409.501C391.539 409.501 388.068 412.972 388.068 417.255C388.068 421.537 391.539 425.009 395.82 425.009Z" fill="#38D39F"/>
<path d="M550.859 432.762C555.14 432.762 558.611 429.291 558.611 425.009C558.611 420.726 555.14 417.255 550.859 417.255C546.577 417.255 543.107 420.726 543.107 425.009C543.107 429.291 546.577 432.762 550.859 432.762Z" fill="#38D39F"/>
<path d="M433.029 49.7248V108.654H446.673L464.037 90.0446L461.712 108.654H522.021L518.3 90.0446L525.742 108.654H535.355V49.7248H433.029Z" fill="#2F2E41"/>
<path d="M423.727 119.509C426.296 119.509 428.378 115.691 428.378 110.98C428.378 106.27 426.296 102.451 423.727 102.451C421.158 102.451 419.076 106.27 419.076 110.98C419.076 115.691 421.158 119.509 423.727 119.509Z" fill="#FFB8B8"/>
<path d="M543.107 119.509C545.675 119.509 547.758 115.691 547.758 110.98C547.758 106.27 545.675 102.451 543.107 102.451C540.538 102.451 538.456 106.27 538.456 110.98C538.456 115.691 540.538 119.509 543.107 119.509Z" fill="#FFB8B8"/>
<path d="M574.89 424.233C574.89 424.233 504.347 411.052 499.696 434.313C495.045 457.574 577.99 447.495 577.99 447.495L574.89 424.233Z" fill="#FFB8B8"/>
<path d="M573.339 264.505C573.339 264.505 742.331 399.421 711.324 431.987C680.316 464.553 562.487 455.248 562.487 455.248L570.238 416.479L638.456 408.726L604.347 374.609L573.339 377.711V264.505Z" fill="#F2C94C"/>
<path d="M323.727 489.365L345.432 506.423C345.432 506.423 360.936 554.497 384.192 540.54C407.448 526.583 362.487 476.959 362.487 476.959L336.13 467.654L323.727 489.365Z" fill="#FFB8B8"/>
<path d="M345.432 239.693L323.786 246.209C323.786 246.209 173.339 357.551 167.138 388.566C160.936 419.581 196.595 436.639 196.595 436.639L331.479 500.22L345.432 463.002L281.867 430.436C281.867 430.436 286.518 421.132 267.913 419.581C249.308 418.03 246.208 397.87 246.208 397.87C246.208 397.87 283.417 340.492 303.572 352.898C323.727 365.304 329.929 374.609 329.929 374.609L345.432 239.693Z" fill="#F2C94C"/>
<path d="M654.181 527.578V532.773C654.184 534.199 653.92 535.612 653.402 536.941C653.173 537.533 652.895 538.105 652.572 538.652C651.553 540.364 650.106 541.782 648.373 542.766C646.641 543.75 644.683 544.267 642.69 544.266H260.629C258.636 544.267 256.678 543.75 254.946 542.766C253.213 541.782 251.766 540.364 250.747 538.652C250.424 538.105 250.146 537.533 249.917 536.941C249.399 535.612 249.135 534.199 249.138 532.773V527.578C249.138 526.069 249.435 524.574 250.012 523.18C250.589 521.785 251.436 520.518 252.503 519.451C253.57 518.383 254.837 517.537 256.231 516.959C257.625 516.382 259.12 516.085 260.629 516.085H282.651V513.663C282.651 513.6 282.664 513.538 282.688 513.48C282.712 513.422 282.747 513.369 282.791 513.324C282.836 513.28 282.889 513.244 282.947 513.22C283.005 513.196 283.068 513.184 283.13 513.184H294.621C294.684 513.184 294.746 513.196 294.804 513.22C294.863 513.244 294.916 513.28 294.96 513.324C295.005 513.369 295.04 513.422 295.064 513.48C295.088 513.538 295.1 513.6 295.1 513.663V516.085H302.278V513.663C302.278 513.6 302.291 513.538 302.315 513.48C302.339 513.422 302.374 513.369 302.419 513.324C302.463 513.28 302.516 513.244 302.574 513.22C302.632 513.196 302.695 513.184 302.758 513.184H314.248C314.311 513.184 314.373 513.196 314.432 513.22C314.49 513.244 314.543 513.28 314.587 513.324C314.632 513.369 314.667 513.422 314.691 513.48C314.715 513.538 314.727 513.6 314.727 513.663V516.085H321.914V513.663C321.914 513.6 321.926 513.538 321.95 513.48C321.974 513.422 322.01 513.369 322.054 513.324C322.099 513.28 322.152 513.244 322.21 513.22C322.268 513.196 322.33 513.184 322.393 513.184H333.884C333.947 513.184 334.009 513.196 334.067 513.22C334.125 513.244 334.178 513.28 334.223 513.324C334.267 513.369 334.303 513.422 334.327 513.48C334.351 513.538 334.363 513.6 334.363 513.663V516.085H341.541V513.663C341.541 513.6 341.554 513.538 341.578 513.48C341.602 513.422 341.637 513.369 341.681 513.324C341.726 513.28 341.779 513.244 341.837 513.22C341.895 513.196 341.958 513.184 342.02 513.184H353.511C353.574 513.184 353.636 513.196 353.694 513.22C353.753 513.244 353.805 513.28 353.85 513.324C353.895 513.369 353.93 513.422 353.954 513.48C353.978 513.538 353.99 513.6 353.99 513.663V516.085H361.168V513.663C361.168 513.6 361.181 513.538 361.205 513.48C361.229 513.422 361.264 513.369 361.309 513.324C361.353 513.28 361.406 513.244 361.464 513.22C361.522 513.196 361.585 513.184 361.648 513.184H373.138C373.201 513.184 373.263 513.196 373.322 513.22C373.38 513.244 373.433 513.28 373.477 513.324C373.522 513.369 373.557 513.422 373.581 513.48C373.605 513.538 373.617 513.6 373.617 513.663V516.085H380.804V513.663C380.804 513.6 380.816 513.538 380.84 513.48C380.864 513.422 380.9 513.369 380.944 513.324C380.989 513.28 381.042 513.244 381.1 513.22C381.158 513.196 381.22 513.184 381.283 513.184H392.774C392.837 513.184 392.899 513.196 392.957 513.22C393.015 513.244 393.068 513.28 393.113 513.324C393.157 513.369 393.193 513.422 393.217 513.48C393.241 513.538 393.253 513.6 393.253 513.663V516.085H400.431V513.663C400.431 513.6 400.444 513.538 400.468 513.48C400.492 513.422 400.527 513.369 400.571 513.324C400.616 513.28 400.669 513.244 400.727 513.22C400.785 513.196 400.847 513.184 400.91 513.184H490.918C490.981 513.184 491.043 513.196 491.102 513.22C491.16 513.244 491.213 513.28 491.257 513.324C491.302 513.369 491.337 513.422 491.361 513.48C491.385 513.538 491.397 513.6 491.397 513.663V516.085H498.584V513.663C498.584 513.6 498.596 513.538 498.62 513.48C498.644 513.422 498.68 513.369 498.724 513.324C498.769 513.28 498.822 513.244 498.88 513.22C498.938 513.196 499 513.184 499.063 513.184H510.554C510.68 513.185 510.802 513.236 510.891 513.326C510.981 513.415 511.032 513.537 511.033 513.663V516.085H518.211V513.663C518.211 513.6 518.223 513.538 518.247 513.48C518.271 513.422 518.307 513.369 518.351 513.324C518.396 513.28 518.449 513.244 518.507 513.22C518.565 513.196 518.627 513.184 518.69 513.184H530.181C530.244 513.184 530.306 513.196 530.364 513.22C530.423 513.244 530.475 513.28 530.52 513.324C530.564 513.369 530.6 513.422 530.624 513.48C530.648 513.538 530.66 513.6 530.66 513.663V516.085H537.838V513.663C537.838 513.6 537.851 513.538 537.875 513.48C537.899 513.422 537.934 513.369 537.978 513.324C538.023 513.28 538.076 513.244 538.134 513.22C538.192 513.196 538.255 513.184 538.317 513.184H549.808C549.871 513.184 549.933 513.196 549.992 513.22C550.05 513.244 550.102 513.28 550.147 513.324C550.192 513.369 550.227 513.422 550.251 513.48C550.275 513.538 550.287 513.6 550.287 513.663V516.085H557.474V513.663C557.474 513.6 557.486 513.538 557.51 513.48C557.534 513.422 557.57 513.369 557.614 513.324C557.659 513.28 557.712 513.244 557.77 513.22C557.828 513.196 557.89 513.184 557.953 513.184H569.444C569.569 513.186 569.69 513.237 569.778 513.327C569.866 513.416 569.915 513.537 569.914 513.663V516.085H577.101V513.663C577.101 513.6 577.113 513.538 577.137 513.48C577.161 513.422 577.197 513.369 577.241 513.324C577.286 513.28 577.339 513.244 577.397 513.22C577.455 513.196 577.517 513.184 577.58 513.184H589.071C589.134 513.184 589.196 513.196 589.254 513.22C589.312 513.244 589.365 513.28 589.41 513.324C589.454 513.369 589.49 513.422 589.514 513.48C589.538 513.538 589.55 513.6 589.55 513.663V516.085H596.728V513.663C596.728 513.6 596.741 513.538 596.765 513.48C596.789 513.422 596.824 513.369 596.868 513.324C596.913 513.28 596.966 513.244 597.024 513.22C597.082 513.196 597.145 513.184 597.207 513.184H608.698C608.761 513.184 608.823 513.196 608.881 513.22C608.94 513.244 608.992 513.28 609.037 513.324C609.081 513.369 609.117 513.422 609.141 513.48C609.165 513.538 609.177 513.6 609.177 513.663V516.085H642.69C644.199 516.085 645.694 516.382 647.088 516.959C648.482 517.537 649.749 518.383 650.816 519.451C651.883 520.518 652.73 521.785 653.307 523.18C653.884 524.574 654.181 526.069 654.181 527.578Z" fill="#3F3D56"/>
<path d="M623.416 308.809H481.01V305.873H416.438V308.809H273.444C270.89 308.809 268.439 309.824 266.633 311.631C264.826 313.438 263.812 315.889 263.812 318.444V513.489C263.812 516.044 264.826 518.495 266.633 520.302C268.439 522.109 270.89 523.124 273.444 523.124H623.416C625.971 523.124 628.421 522.109 630.227 520.302C632.034 518.495 633.049 516.044 633.049 513.489V318.444C633.049 317.179 632.8 315.926 632.316 314.757C631.832 313.588 631.122 312.526 630.227 311.631C629.333 310.737 628.271 310.027 627.102 309.543C625.934 309.058 624.681 308.809 623.416 308.809Z" fill="#3F3D56"/>
<path d="M448.71 398.299C460.524 398.299 470.1 388.72 470.1 376.904C470.1 365.088 460.524 355.509 448.71 355.509C436.897 355.509 427.321 365.088 427.321 376.904C427.321 388.72 436.897 398.299 448.71 398.299Z" stroke="#219653" stroke-width="2" stroke-miterlimit="10"/>
<path d="M441.866 406.001C453.679 406.001 463.255 396.422 463.255 384.606C463.255 372.79 453.679 363.211 441.866 363.211C430.053 363.211 420.476 372.79 420.476 384.606C420.476 396.422 430.053 406.001 441.866 406.001Z" fill="#219653"/>
<path d="M342.054 221.011L234.073 112.152H183.095V110.441H234.787L235.039 110.695L343.27 219.808L342.054 221.011Z" fill="#27AE60"/>
<path d="M595.668 217.588L703.648 108.729H754.627V107.017H702.934L702.683 107.272L594.452 216.385L595.668 217.588Z" fill="#27AE60"/>
<path d="M124.916 58.4844H9.15527e-05V83.1972H124.916V58.4844Z" fill="#D0CDE1"/>
<path d="M124.916 96.4057H9.15527e-05V121.118H124.916V96.4057Z" fill="#D0CDE1"/>
<path d="M124.916 134.327H9.15527e-05V159.04H124.916V134.327Z" fill="#D0CDE1"/>
<path opacity="0.15" d="M51.6764 58.4844H7.62939e-05V83.1972H51.6764V58.4844Z" fill="black"/>
<path opacity="0.15" d="M16.7297 96.4057H0V121.118H16.7297V96.4057Z" fill="black"/>
<path opacity="0.15" d="M83.277 134.327H9.15527e-05V159.04H83.277V134.327Z" fill="black"/>
<path d="M942 64.0362H816.893V75.1871H942V64.0362Z" fill="#D0CDE1"/>
<path d="M794.801 62.5929H770.027V87.3725H794.801V62.5929Z" fill="#38D39F"/>
<path d="M794.801 99.7623H770.027V124.542H794.801V99.7623Z" fill="#38D39F"/>
<path d="M794.801 136.932H770.027V161.711H794.801V136.932Z" fill="#38D39F"/>
<path d="M801.646 82.2379H775.161V55.7464H801.646V82.2379ZM776.872 80.5263H799.934V57.458H776.872V80.5263Z" fill="#3F3D56"/>
<path d="M942 101.206H816.893V112.356H942V101.206Z" fill="#D0CDE1"/>
<path d="M801.646 119.407H775.161V92.916H801.646V119.407ZM776.872 117.696H799.934V94.6276H776.872V117.696Z" fill="#3F3D56"/>
<path d="M942 138.375H816.893V149.526H942V138.375Z" fill="#D0CDE1"/>
<path d="M801.646 156.576H775.161V130.085H801.646V156.576ZM776.872 154.865H799.934V131.797H776.872V154.865Z" fill="#3F3D56"/>
<path d="M161.706 84.7668C169.266 84.7668 175.395 78.6364 175.395 71.0742C175.395 63.5119 169.266 57.3815 161.706 57.3815C154.145 57.3815 148.016 63.5119 148.016 71.0742C148.016 78.6364 154.145 84.7668 161.706 84.7668Z" fill="#38D39F"/>
<path d="M161.706 125.845C169.266 125.845 175.395 119.714 175.395 112.152C175.395 104.59 169.266 98.4595 161.706 98.4595C154.145 98.4595 148.016 104.59 148.016 112.152C148.016 119.714 154.145 125.845 161.706 125.845Z" fill="#38D39F"/>
<path d="M161.706 162.644C169.266 162.644 175.395 156.513 175.395 148.951C175.395 141.389 169.266 135.258 161.706 135.258C154.145 135.258 148.016 141.389 148.016 148.951C148.016 156.513 154.145 162.644 161.706 162.644Z" fill="#38D39F"/>
<path d="M154.861 82.1994C151.984 82.1994 149.172 81.3462 146.78 79.7476C144.388 78.149 142.524 75.8768 141.423 73.2184C140.322 70.5601 140.034 67.6349 140.596 64.8127C141.157 61.9906 142.542 59.3983 144.576 57.3637C146.61 55.3291 149.202 53.9435 152.023 53.3821C154.845 52.8208 157.769 53.1089 160.427 54.21C163.085 55.3111 165.356 57.1758 166.955 59.5683C168.553 61.9608 169.406 64.7736 169.406 67.651C169.402 71.5082 167.868 75.2061 165.141 77.9335C162.414 80.661 158.717 82.1951 154.861 82.1994ZM154.861 54.8141C152.323 54.8141 149.841 55.567 147.731 56.9775C145.62 58.3881 143.975 60.3929 143.004 62.7386C142.033 65.0842 141.779 67.6652 142.274 70.1553C142.769 72.6454 143.991 74.9328 145.786 76.728C147.581 78.5233 149.868 79.7459 152.357 80.2412C154.847 80.7365 157.427 80.4823 159.772 79.5107C162.117 78.5391 164.122 76.8938 165.532 74.7828C166.942 72.6718 167.695 70.1899 167.695 67.651C167.691 64.2476 166.338 60.9848 163.932 58.5782C161.526 56.1717 158.264 54.818 154.861 54.8141Z" fill="#3F3D56"/>
<path d="M154.861 123.277C151.984 123.277 149.172 122.424 146.78 120.826C144.388 119.227 142.524 116.955 141.423 114.296C140.322 111.638 140.034 108.713 140.596 105.891C141.157 103.069 142.542 100.476 144.576 98.4417C146.61 96.407 149.202 95.0214 152.023 94.4601C154.845 93.8987 157.769 94.1868 160.427 95.288C163.085 96.3891 165.356 98.2538 166.955 100.646C168.553 103.039 169.406 105.852 169.406 108.729C169.402 112.586 167.868 116.284 165.141 119.011C162.414 121.739 158.717 123.273 154.861 123.277ZM154.861 95.8921C152.323 95.8921 149.841 96.645 147.731 98.0555C145.62 99.466 143.975 101.471 143.004 103.816C142.033 106.162 141.779 108.743 142.274 111.233C142.769 113.723 143.991 116.011 145.786 117.806C147.581 119.601 149.868 120.824 152.357 121.319C154.847 121.814 157.427 121.56 159.772 120.589C162.117 119.617 164.122 117.972 165.532 115.861C166.942 113.75 167.695 111.268 167.695 108.729C167.691 105.326 166.338 102.063 163.932 99.6562C161.526 97.2496 158.264 95.8959 154.861 95.8921Z" fill="#3F3D56"/>
<path d="M154.861 160.076C151.984 160.076 149.172 159.223 146.78 157.625C144.388 156.026 142.524 153.754 141.423 151.095C140.322 148.437 140.034 145.512 140.596 142.69C141.157 139.868 142.542 137.275 144.576 135.241C146.61 133.206 149.202 131.82 152.023 131.259C154.845 130.698 157.769 130.986 160.427 132.087C163.085 133.188 165.356 135.053 166.955 137.445C168.553 139.838 169.406 142.651 169.406 145.528C169.402 149.385 167.868 153.083 165.141 155.81C162.414 158.538 158.717 160.072 154.861 160.076ZM154.861 132.691C152.323 132.691 149.841 133.444 147.731 134.854C145.62 136.265 143.975 138.27 143.004 140.615C142.033 142.961 141.779 145.542 142.274 148.032C142.769 150.522 143.991 152.81 145.786 154.605C147.581 156.4 149.868 157.623 152.357 158.118C154.847 158.613 157.427 158.359 159.772 157.388C162.117 156.416 164.122 154.771 165.532 152.66C166.942 150.549 167.695 148.067 167.695 145.528C167.691 142.125 166.338 138.862 163.932 136.455C161.526 134.049 158.264 132.695 154.861 132.691Z" fill="#3F3D56"/>
</svg>
