<svg width="376" height="80" viewBox="0 0 376 80" fill="none" xmlns="http://www.w3.org/2000/svg">
<rect width="376" height="80" rx="40" fill="#27AE60"/>
<path d="M150.825 49.688H159.285V53H146.721V27.98H150.825V49.688ZM174.129 53.252C171.801 53.252 169.653 52.712 167.685 51.632C165.741 50.528 164.193 49.004 163.041 47.06C161.913 45.092 161.349 42.884 161.349 40.436C161.349 37.988 161.913 35.792 163.041 33.848C164.193 31.904 165.741 30.392 167.685 29.312C169.653 28.208 171.801 27.656 174.129 27.656C176.481 27.656 178.629 28.208 180.573 29.312C182.541 30.392 184.089 31.904 185.217 33.848C186.345 35.792 186.909 37.988 186.909 40.436C186.909 42.884 186.345 45.092 185.217 47.06C184.089 49.004 182.541 50.528 180.573 51.632C178.629 52.712 176.481 53.252 174.129 53.252ZM174.129 49.688C175.785 49.688 177.261 49.316 178.557 48.572C179.853 47.804 180.861 46.724 181.581 45.332C182.325 43.916 182.697 42.284 182.697 40.436C182.697 38.588 182.325 36.968 181.581 35.576C180.861 34.184 179.853 33.116 178.557 32.372C177.261 31.628 175.785 31.256 174.129 31.256C172.473 31.256 170.997 31.628 169.701 32.372C168.405 33.116 167.385 34.184 166.641 35.576C165.921 36.968 165.561 38.588 165.561 40.436C165.561 42.284 165.921 43.916 166.641 45.332C167.385 46.724 168.405 47.804 169.701 48.572C170.997 49.316 172.473 49.688 174.129 49.688ZM209.055 35.18C208.407 33.932 207.507 32.996 206.355 32.372C205.203 31.724 203.871 31.4 202.359 31.4C200.703 31.4 199.227 31.772 197.931 32.516C196.635 33.26 195.615 34.316 194.871 35.684C194.151 37.052 193.791 38.636 193.791 40.436C193.791 42.236 194.151 43.832 194.871 45.224C195.615 46.592 196.635 47.648 197.931 48.392C199.227 49.136 200.703 49.508 202.359 49.508C204.591 49.508 206.403 48.884 207.795 47.636C209.187 46.388 210.039 44.696 210.351 42.56H200.955V39.284H214.743V42.488C214.479 44.432 213.783 46.22 212.655 47.852C211.551 49.484 210.099 50.792 208.299 51.776C206.523 52.736 204.543 53.216 202.359 53.216C200.007 53.216 197.859 52.676 195.915 51.596C193.971 50.492 192.423 48.968 191.271 47.024C190.143 45.08 189.579 42.884 189.579 40.436C189.579 37.988 190.143 35.792 191.271 33.848C192.423 31.904 193.971 30.392 195.915 29.312C197.883 28.208 200.031 27.656 202.359 27.656C205.023 27.656 207.387 28.316 209.451 29.636C211.539 30.932 213.051 32.78 213.987 35.18H209.055ZM222.895 27.98V53H218.791V27.98H222.895ZM248.839 53H244.735L232.387 34.316V53H228.283V27.944H232.387L244.735 46.592V27.944H248.839V53Z" fill="white"/>
</svg>
