<svg width="375" height="80" viewBox="0 0 375 80" fill="none" xmlns="http://www.w3.org/2000/svg">
<rect width="375" height="80" rx="40" fill="#D0CDE1"/>
<path d="M123.738 40.6793C123.738 53.0981 115.649 61.9362 103.703 61.9362C92.2496 61.9362 83 52.2117 83 40.1702C83 28.1287 92.2496 18.4043 103.703 18.4043C109.279 18.4043 113.971 20.5545 117.586 24.1003L111.951 29.7963C104.58 22.3186 90.8721 27.9357 90.8721 40.1702C90.8721 47.762 96.6406 53.9144 103.703 53.9144C111.901 53.9144 114.973 47.7357 115.457 44.5322H103.703V37.0458H123.413C123.605 38.1604 123.738 39.2311 123.738 40.6793Z" fill="#333333"/>
<path d="M153.808 35.18C153.16 33.932 152.26 32.996 151.108 32.372C149.956 31.724 148.624 31.4 147.112 31.4C145.456 31.4 143.98 31.772 142.684 32.516C141.388 33.26 140.368 34.316 139.624 35.684C138.904 37.052 138.544 38.636 138.544 40.436C138.544 42.236 138.904 43.832 139.624 45.224C140.368 46.592 141.388 47.648 142.684 48.392C143.98 49.136 145.456 49.508 147.112 49.508C149.344 49.508 151.156 48.884 152.548 47.636C153.94 46.388 154.792 44.696 155.104 42.56H145.708V39.284H159.496V42.488C159.232 44.432 158.536 46.22 157.408 47.852C156.304 49.484 154.852 50.792 153.052 51.776C151.276 52.736 149.296 53.216 147.112 53.216C144.76 53.216 142.612 52.676 140.668 51.596C138.724 50.492 137.176 48.968 136.024 47.024C134.896 45.08 134.332 42.884 134.332 40.436C134.332 37.988 134.896 35.792 136.024 33.848C137.176 31.904 138.724 30.392 140.668 29.312C142.636 28.208 144.784 27.656 147.112 27.656C149.776 27.656 152.14 28.316 154.204 29.636C156.292 30.932 157.804 32.78 158.74 35.18H153.808ZM174.956 53.252C172.628 53.252 170.48 52.712 168.512 51.632C166.568 50.528 165.02 49.004 163.868 47.06C162.74 45.092 162.176 42.884 162.176 40.436C162.176 37.988 162.74 35.792 163.868 33.848C165.02 31.904 166.568 30.392 168.512 29.312C170.48 28.208 172.628 27.656 174.956 27.656C177.308 27.656 179.456 28.208 181.4 29.312C183.368 30.392 184.916 31.904 186.044 33.848C187.172 35.792 187.736 37.988 187.736 40.436C187.736 42.884 187.172 45.092 186.044 47.06C184.916 49.004 183.368 50.528 181.4 51.632C179.456 52.712 177.308 53.252 174.956 53.252ZM174.956 49.688C176.612 49.688 178.088 49.316 179.384 48.572C180.68 47.804 181.688 46.724 182.408 45.332C183.152 43.916 183.524 42.284 183.524 40.436C183.524 38.588 183.152 36.968 182.408 35.576C181.688 34.184 180.68 33.116 179.384 32.372C178.088 31.628 176.612 31.256 174.956 31.256C173.3 31.256 171.824 31.628 170.528 32.372C169.232 33.116 168.212 34.184 167.468 35.576C166.748 36.968 166.388 38.588 166.388 40.436C166.388 42.284 166.748 43.916 167.468 45.332C168.212 46.724 169.232 47.804 170.528 48.572C171.824 49.316 173.3 49.688 174.956 49.688ZM203.186 53.252C200.858 53.252 198.71 52.712 196.742 51.632C194.798 50.528 193.25 49.004 192.098 47.06C190.97 45.092 190.406 42.884 190.406 40.436C190.406 37.988 190.97 35.792 192.098 33.848C193.25 31.904 194.798 30.392 196.742 29.312C198.71 28.208 200.858 27.656 203.186 27.656C205.538 27.656 207.686 28.208 209.63 29.312C211.598 30.392 213.146 31.904 214.274 33.848C215.402 35.792 215.966 37.988 215.966 40.436C215.966 42.884 215.402 45.092 214.274 47.06C213.146 49.004 211.598 50.528 209.63 51.632C207.686 52.712 205.538 53.252 203.186 53.252ZM203.186 49.688C204.842 49.688 206.318 49.316 207.614 48.572C208.91 47.804 209.918 46.724 210.638 45.332C211.382 43.916 211.754 42.284 211.754 40.436C211.754 38.588 211.382 36.968 210.638 35.576C209.918 34.184 208.91 33.116 207.614 32.372C206.318 31.628 204.842 31.256 203.186 31.256C201.53 31.256 200.054 31.628 198.758 32.372C197.462 33.116 196.442 34.184 195.698 35.576C194.978 36.968 194.618 38.588 194.618 40.436C194.618 42.284 194.978 43.916 195.698 45.332C196.442 46.724 197.462 47.804 198.758 48.572C200.054 49.316 201.53 49.688 203.186 49.688ZM238.113 35.18C237.465 33.932 236.565 32.996 235.413 32.372C234.261 31.724 232.929 31.4 231.417 31.4C229.761 31.4 228.285 31.772 226.989 32.516C225.693 33.26 224.673 34.316 223.929 35.684C223.209 37.052 222.849 38.636 222.849 40.436C222.849 42.236 223.209 43.832 223.929 45.224C224.673 46.592 225.693 47.648 226.989 48.392C228.285 49.136 229.761 49.508 231.417 49.508C233.649 49.508 235.461 48.884 236.853 47.636C238.245 46.388 239.097 44.696 239.409 42.56H230.013V39.284H243.801V42.488C243.537 44.432 242.841 46.22 241.713 47.852C240.609 49.484 239.157 50.792 237.357 51.776C235.581 52.736 233.601 53.216 231.417 53.216C229.065 53.216 226.917 52.676 224.973 51.596C223.029 50.492 221.481 48.968 220.329 47.024C219.201 45.08 218.637 42.884 218.637 40.436C218.637 37.988 219.201 35.792 220.329 33.848C221.481 31.904 223.029 30.392 224.973 29.312C226.941 28.208 229.089 27.656 231.417 27.656C234.081 27.656 236.445 28.316 238.509 29.636C240.597 30.932 242.109 32.78 243.045 35.18H238.113ZM251.952 49.688H260.412V53H247.848V27.98H251.952V49.688ZM267.949 31.292V38.636H276.589V41.984H267.949V49.652H277.669V53H263.845V27.944H277.669V31.292H267.949Z" fill="#333333"/>
</svg>
