<svg width="159" height="19" viewBox="0 0 159 19" fill="none" xmlns="http://www.w3.org/2000/svg">
<path d="M7.73153 1.49V3.164H2.42153V6.854H6.56153V8.528H2.42153V14H0.369531V1.49H7.73153ZM13.9352 14.162C12.9992 14.162 12.1532 13.952 11.3972 13.532C10.6412 13.1 10.0472 12.5 9.6152 11.732C9.1832 10.952 8.9672 10.052 8.9672 9.032C8.9672 8.024 9.1892 7.13 9.6332 6.35C10.0772 5.57 10.6832 4.97 11.4512 4.55C12.2192 4.13 13.0772 3.92 14.0252 3.92C14.9732 3.92 15.8312 4.13 16.5992 4.55C17.3672 4.97 17.9732 5.57 18.4172 6.35C18.8612 7.13 19.0832 8.024 19.0832 9.032C19.0832 10.04 18.8552 10.934 18.3992 11.714C17.9432 12.494 17.3192 13.1 16.5272 13.532C15.7472 13.952 14.8832 14.162 13.9352 14.162ZM13.9352 12.38C14.4632 12.38 14.9552 12.254 15.4112 12.002C15.8792 11.75 16.2572 11.372 16.5452 10.868C16.8332 10.364 16.9772 9.752 16.9772 9.032C16.9772 8.312 16.8392 7.706 16.5632 7.214C16.2872 6.71 15.9212 6.332 15.4652 6.08C15.0092 5.828 14.5172 5.702 13.9892 5.702C13.4612 5.702 12.9692 5.828 12.5132 6.08C12.0692 6.332 11.7152 6.71 11.4512 7.214C11.1872 7.706 11.0552 8.312 11.0552 9.032C11.0552 10.1 11.3252 10.928 11.8652 11.516C12.4172 12.092 13.1072 12.38 13.9352 12.38ZM23.1637 5.522C23.4637 5.018 23.8597 4.628 24.3517 4.352C24.8557 4.064 25.4497 3.92 26.1337 3.92V6.044H25.6117C24.8077 6.044 24.1957 6.248 23.7757 6.656C23.3677 7.064 23.1637 7.772 23.1637 8.78V14H21.1117V4.082H23.1637V5.522ZM32.0159 3.92C32.7839 3.92 33.4619 4.076 34.0499 4.388C34.6499 4.688 35.1179 5.066 35.4539 5.522V4.082H37.5239V14.162C37.5239 15.074 37.3319 15.884 36.9479 16.592C36.5639 17.312 36.0059 17.876 35.2739 18.284C34.5539 18.692 33.6899 18.896 32.6819 18.896C31.3379 18.896 30.2219 18.578 29.3339 17.942C28.4459 17.318 27.9419 16.466 27.8219 15.386H29.8559C30.0119 15.902 30.3419 16.316 30.8459 16.628C31.3619 16.952 31.9739 17.114 32.6819 17.114C33.5099 17.114 34.1759 16.862 34.6799 16.358C35.1959 15.854 35.4539 15.122 35.4539 14.162V12.506C35.1059 12.974 34.6319 13.37 34.0319 13.694C33.4439 14.006 32.7719 14.162 32.0159 14.162C31.1519 14.162 30.3599 13.946 29.6399 13.514C28.9319 13.07 28.3679 12.458 27.9479 11.678C27.5399 10.886 27.3359 9.992 27.3359 8.996C27.3359 8 27.5399 7.118 27.9479 6.35C28.3679 5.582 28.9319 4.988 29.6399 4.568C30.3599 4.136 31.1519 3.92 32.0159 3.92ZM35.4539 9.032C35.4539 8.348 35.3099 7.754 35.0219 7.25C34.7459 6.746 34.3799 6.362 33.9239 6.098C33.4679 5.834 32.9759 5.702 32.4479 5.702C31.9199 5.702 31.4279 5.834 30.9719 6.098C30.5159 6.35 30.1439 6.728 29.8559 7.232C29.5799 7.724 29.4419 8.312 29.4419 8.996C29.4419 9.68 29.5799 10.28 29.8559 10.796C30.1439 11.312 30.5159 11.708 30.9719 11.984C31.4399 12.248 31.9319 12.38 32.4479 12.38C32.9759 12.38 33.4679 12.248 33.9239 11.984C34.3799 11.72 34.7459 11.336 35.0219 10.832C35.3099 10.316 35.4539 9.716 35.4539 9.032ZM44.5211 14.162C43.5851 14.162 42.7391 13.952 41.9831 13.532C41.2271 13.1 40.6331 12.5 40.2011 11.732C39.7691 10.952 39.5531 10.052 39.5531 9.032C39.5531 8.024 39.7751 7.13 40.2191 6.35C40.6631 5.57 41.2691 4.97 42.0371 4.55C42.8051 4.13 43.6631 3.92 44.6111 3.92C45.5591 3.92 46.4171 4.13 47.1851 4.55C47.9531 4.97 48.5591 5.57 49.0031 6.35C49.4471 7.13 49.6691 8.024 49.6691 9.032C49.6691 10.04 49.4411 10.934 48.9851 11.714C48.5291 12.494 47.9051 13.1 47.1131 13.532C46.3331 13.952 45.4691 14.162 44.5211 14.162ZM44.5211 12.38C45.0491 12.38 45.5411 12.254 45.9971 12.002C46.4651 11.75 46.8431 11.372 47.1311 10.868C47.4191 10.364 47.5631 9.752 47.5631 9.032C47.5631 8.312 47.4251 7.706 47.1491 7.214C46.8731 6.71 46.5071 6.332 46.0511 6.08C45.5951 5.828 45.1031 5.702 44.5751 5.702C44.0471 5.702 43.5551 5.828 43.0991 6.08C42.6551 6.332 42.3011 6.71 42.0371 7.214C41.7731 7.706 41.6411 8.312 41.6411 9.032C41.6411 10.1 41.9111 10.928 42.4511 11.516C43.0031 12.092 43.6931 12.38 44.5211 12.38ZM54.0917 5.756V11.246C54.0917 11.618 54.1757 11.888 54.3437 12.056C54.5237 12.212 54.8237 12.29 55.2437 12.29H56.5037V14H54.8837C53.9597 14 53.2517 13.784 52.7597 13.352C52.2677 12.92 52.0217 12.218 52.0217 11.246V5.756H50.8517V4.082H52.0217V1.616H54.0917V4.082H56.5037V5.756H54.0917ZM71.8187 5.216C71.8187 5.852 71.6687 6.452 71.3687 7.016C71.0687 7.58 70.5887 8.042 69.9287 8.402C69.2687 8.75 68.4227 8.924 67.3907 8.924H65.1227V14H63.0707V1.49H67.3907C68.3507 1.49 69.1607 1.658 69.8207 1.994C70.4927 2.318 70.9907 2.762 71.3147 3.326C71.6507 3.89 71.8187 4.52 71.8187 5.216ZM67.3907 7.25C68.1707 7.25 68.7527 7.076 69.1367 6.728C69.5207 6.368 69.7127 5.864 69.7127 5.216C69.7127 3.848 68.9387 3.164 67.3907 3.164H65.1227V7.25H67.3907ZM73.0918 8.996C73.0918 8 73.2958 7.118 73.7038 6.35C74.1238 5.582 74.6878 4.988 75.3958 4.568C76.1158 4.136 76.9078 3.92 77.7718 3.92C78.5518 3.92 79.2298 4.076 79.8058 4.388C80.3938 4.688 80.8618 5.066 81.2098 5.522V4.082H83.2798V14H81.2098V12.524C80.8618 12.992 80.3878 13.382 79.7878 13.694C79.1878 14.006 78.5038 14.162 77.7358 14.162C76.8838 14.162 76.1038 13.946 75.3958 13.514C74.6878 13.07 74.1238 12.458 73.7038 11.678C73.2958 10.886 73.0918 9.992 73.0918 8.996ZM81.2098 9.032C81.2098 8.348 81.0658 7.754 80.7778 7.25C80.5018 6.746 80.1358 6.362 79.6798 6.098C79.2238 5.834 78.7318 5.702 78.2038 5.702C77.6758 5.702 77.1838 5.834 76.7278 6.098C76.2718 6.35 75.8998 6.728 75.6118 7.232C75.3358 7.724 75.1978 8.312 75.1978 8.996C75.1978 9.68 75.3358 10.28 75.6118 10.796C75.8998 11.312 76.2718 11.708 76.7278 11.984C77.1958 12.248 77.6878 12.38 78.2038 12.38C78.7318 12.38 79.2238 12.248 79.6798 11.984C80.1358 11.72 80.5018 11.336 80.7778 10.832C81.0658 10.316 81.2098 9.716 81.2098 9.032ZM89.575 14.162C88.795 14.162 88.093 14.024 87.469 13.748C86.857 13.46 86.371 13.076 86.011 12.596C85.651 12.104 85.459 11.558 85.435 10.958H87.559C87.595 11.378 87.793 11.732 88.153 12.02C88.525 12.296 88.987 12.434 89.539 12.434C90.115 12.434 90.559 12.326 90.871 12.11C91.195 11.882 91.357 11.594 91.357 11.246C91.357 10.874 91.177 10.598 90.817 10.418C90.469 10.238 89.911 10.04 89.143 9.824C88.399 9.62 87.793 9.422 87.325 9.23C86.857 9.038 86.449 8.744 86.101 8.348C85.765 7.952 85.597 7.43 85.597 6.782C85.597 6.254 85.753 5.774 86.065 5.342C86.377 4.898 86.821 4.55 87.397 4.298C87.985 4.046 88.657 3.92 89.413 3.92C90.541 3.92 91.447 4.208 92.131 4.784C92.827 5.348 93.199 6.122 93.247 7.106H91.195C91.159 6.662 90.979 6.308 90.655 6.044C90.331 5.78 89.893 5.648 89.341 5.648C88.801 5.648 88.387 5.75 88.099 5.954C87.811 6.158 87.667 6.428 87.667 6.764C87.667 7.028 87.763 7.25 87.955 7.43C88.147 7.61 88.381 7.754 88.657 7.862C88.933 7.958 89.341 8.084 89.881 8.24C90.601 8.432 91.189 8.63 91.645 8.834C92.113 9.026 92.515 9.314 92.851 9.698C93.187 10.082 93.361 10.592 93.373 11.228C93.373 11.792 93.217 12.296 92.905 12.74C92.593 13.184 92.149 13.532 91.573 13.784C91.009 14.036 90.343 14.162 89.575 14.162ZM99.1902 14.162C98.4102 14.162 97.7082 14.024 97.0842 13.748C96.4722 13.46 95.9862 13.076 95.6262 12.596C95.2662 12.104 95.0742 11.558 95.0502 10.958H97.1742C97.2102 11.378 97.4082 11.732 97.7682 12.02C98.1402 12.296 98.6022 12.434 99.1542 12.434C99.7302 12.434 100.174 12.326 100.486 12.11C100.81 11.882 100.972 11.594 100.972 11.246C100.972 10.874 100.792 10.598 100.432 10.418C100.084 10.238 99.5262 10.04 98.7582 9.824C98.0142 9.62 97.4082 9.422 96.9402 9.23C96.4722 9.038 96.0642 8.744 95.7162 8.348C95.3802 7.952 95.2122 7.43 95.2122 6.782C95.2122 6.254 95.3682 5.774 95.6802 5.342C95.9922 4.898 96.4362 4.55 97.0122 4.298C97.6002 4.046 98.2722 3.92 99.0282 3.92C100.156 3.92 101.062 4.208 101.746 4.784C102.442 5.348 102.814 6.122 102.862 7.106H100.81C100.774 6.662 100.594 6.308 100.27 6.044C99.9462 5.78 99.5082 5.648 98.9562 5.648C98.4162 5.648 98.0022 5.75 97.7142 5.954C97.4262 6.158 97.2822 6.428 97.2822 6.764C97.2822 7.028 97.3782 7.25 97.5702 7.43C97.7622 7.61 97.9962 7.754 98.2722 7.862C98.5482 7.958 98.9562 8.084 99.4962 8.24C100.216 8.432 100.804 8.63 101.26 8.834C101.728 9.026 102.13 9.314 102.466 9.698C102.802 10.082 102.976 10.592 102.988 11.228C102.988 11.792 102.832 12.296 102.52 12.74C102.208 13.184 101.764 13.532 101.188 13.784C100.624 14.036 99.9582 14.162 99.1902 14.162ZM118.525 4.082L115.447 14H113.287L111.289 6.674L109.291 14H107.131L104.035 4.082H106.123L108.193 12.056L110.299 4.082H112.441L114.457 12.02L116.509 4.082H118.525ZM124.361 14.162C123.425 14.162 122.579 13.952 121.823 13.532C121.067 13.1 120.473 12.5 120.041 11.732C119.609 10.952 119.393 10.052 119.393 9.032C119.393 8.024 119.615 7.13 120.059 6.35C120.503 5.57 121.109 4.97 121.877 4.55C122.645 4.13 123.503 3.92 124.451 3.92C125.399 3.92 126.257 4.13 127.025 4.55C127.793 4.97 128.399 5.57 128.843 6.35C129.287 7.13 129.509 8.024 129.509 9.032C129.509 10.04 129.281 10.934 128.825 11.714C128.369 12.494 127.745 13.1 126.953 13.532C126.173 13.952 125.309 14.162 124.361 14.162ZM124.361 12.38C124.889 12.38 125.381 12.254 125.837 12.002C126.305 11.75 126.683 11.372 126.971 10.868C127.259 10.364 127.403 9.752 127.403 9.032C127.403 8.312 127.265 7.706 126.989 7.214C126.713 6.71 126.347 6.332 125.891 6.08C125.435 5.828 124.943 5.702 124.415 5.702C123.887 5.702 123.395 5.828 122.939 6.08C122.495 6.332 122.141 6.71 121.877 7.214C121.613 7.706 121.481 8.312 121.481 9.032C121.481 10.1 121.751 10.928 122.291 11.516C122.843 12.092 123.533 12.38 124.361 12.38ZM133.59 5.522C133.89 5.018 134.286 4.628 134.778 4.352C135.282 4.064 135.876 3.92 136.56 3.92V6.044H136.038C135.234 6.044 134.622 6.248 134.202 6.656C133.794 7.064 133.59 7.772 133.59 8.78V14H131.538V4.082H133.59V5.522ZM137.762 8.996C137.762 8 137.966 7.118 138.374 6.35C138.794 5.582 139.358 4.988 140.066 4.568C140.786 4.136 141.584 3.92 142.46 3.92C143.108 3.92 143.744 4.064 144.368 4.352C145.004 4.628 145.508 5 145.88 5.468V0.68H147.95V14H145.88V12.506C145.544 12.986 145.076 13.382 144.476 13.694C143.888 14.006 143.21 14.162 142.442 14.162C141.578 14.162 140.786 13.946 140.066 13.514C139.358 13.07 138.794 12.458 138.374 11.678C137.966 10.886 137.762 9.992 137.762 8.996ZM145.88 9.032C145.88 8.348 145.736 7.754 145.448 7.25C145.172 6.746 144.806 6.362 144.35 6.098C143.894 5.834 143.402 5.702 142.874 5.702C142.346 5.702 141.854 5.834 141.398 6.098C140.942 6.35 140.57 6.728 140.282 7.232C140.006 7.724 139.868 8.312 139.868 8.996C139.868 9.68 140.006 10.28 140.282 10.796C140.57 11.312 140.942 11.708 141.398 11.984C141.866 12.248 142.358 12.38 142.874 12.38C143.402 12.38 143.894 12.248 144.35 11.984C144.806 11.72 145.172 11.336 145.448 10.832C145.736 10.316 145.88 9.716 145.88 9.032ZM154.011 1.31C155.235 1.31 156.213 1.646 156.945 2.318C157.689 2.99 158.061 3.908 158.061 5.072C158.061 6.284 157.677 7.196 156.909 7.808C156.141 8.42 155.121 8.726 153.849 8.726L153.777 10.148H151.995L151.905 7.322H152.499C153.663 7.322 154.551 7.166 155.163 6.854C155.787 6.542 156.099 5.948 156.099 5.072C156.099 4.436 155.913 3.938 155.541 3.578C155.181 3.218 154.677 3.038 154.029 3.038C153.381 3.038 152.871 3.212 152.499 3.56C152.127 3.908 151.941 4.394 151.941 5.018H150.015C150.015 4.298 150.177 3.656 150.501 3.092C150.825 2.528 151.287 2.09 151.887 1.778C152.499 1.466 153.207 1.31 154.011 1.31ZM152.859 14.126C152.487 14.126 152.175 14 151.923 13.748C151.671 13.496 151.545 13.184 151.545 12.812C151.545 12.44 151.671 12.128 151.923 11.876C152.175 11.624 152.487 11.498 152.859 11.498C153.219 11.498 153.525 11.624 153.777 11.876C154.029 12.128 154.155 12.44 154.155 12.812C154.155 13.184 154.029 13.496 153.777 13.748C153.525 14 153.219 14.126 152.859 14.126Z" fill="#27AE60"/>
</svg>
