<svg width="179" height="68" viewBox="0 0 179 68" fill="none" xmlns="http://www.w3.org/2000/svg">
<path d="M7.75225 44.112H22.7923V50H0.45625V5.52H7.75225V44.112ZM44.1898 50.576C40.8618 50.576 37.8538 49.8293 35.1658 48.336C32.4778 46.8 30.3658 44.6667 28.8298 41.936C27.2938 39.1627 26.5258 35.9627 26.5258 32.336C26.5258 28.752 27.3151 25.5733 28.8938 22.8C30.4724 20.0267 32.6271 17.8933 35.3578 16.4C38.0884 14.9067 41.1391 14.16 44.5098 14.16C47.8804 14.16 50.9311 14.9067 53.6618 16.4C56.3924 17.8933 58.5471 20.0267 60.1258 22.8C61.7044 25.5733 62.4938 28.752 62.4938 32.336C62.4938 35.92 61.6831 39.0987 60.0618 41.872C58.4404 44.6453 56.2218 46.8 53.4058 48.336C50.6324 49.8293 47.5604 50.576 44.1898 50.576ZM44.1898 44.24C46.0671 44.24 47.8164 43.792 49.4378 42.896C51.1018 42 52.4458 40.656 53.4698 38.864C54.4938 37.072 55.0058 34.896 55.0058 32.336C55.0058 29.776 54.5151 27.6213 53.5338 25.872C52.5524 24.08 51.2511 22.736 49.6298 21.84C48.0084 20.944 46.2591 20.496 44.3818 20.496C42.5044 20.496 40.7551 20.944 39.1338 21.84C37.5551 22.736 36.2964 24.08 35.3578 25.872C34.4191 27.6213 33.9498 29.776 33.9498 32.336C33.9498 36.1333 34.9098 39.0773 36.8298 41.168C38.7924 43.216 41.2458 44.24 44.1898 44.24ZM83.9143 14.16C86.6449 14.16 89.0556 14.7147 91.1463 15.824C93.2796 16.8907 94.9436 18.2347 96.1383 19.856V14.736H103.498V50.576C103.498 53.8187 102.816 56.6987 101.45 59.216C100.085 61.776 98.1009 63.7813 95.4983 65.232C92.9383 66.6827 89.8663 67.408 86.2823 67.408C81.5036 67.408 77.5356 66.2773 74.3783 64.016C71.2209 61.7973 69.4289 58.768 69.0023 54.928H76.2343C76.7889 56.7627 77.9623 58.2347 79.7543 59.344C81.5889 60.496 83.7649 61.072 86.2823 61.072C89.2263 61.072 91.5943 60.176 93.3863 58.384C95.2209 56.592 96.1383 53.9893 96.1383 50.576V44.688C94.9009 46.352 93.2156 47.76 91.0823 48.912C88.9916 50.0213 86.6023 50.576 83.9143 50.576C80.8423 50.576 78.0263 49.808 75.4663 48.272C72.9489 46.6933 70.9436 44.5173 69.4503 41.744C67.9996 38.928 67.2743 35.7493 67.2743 32.208C67.2743 28.6667 67.9996 25.5307 69.4503 22.8C70.9436 20.0693 72.9489 17.9573 75.4663 16.464C78.0263 14.928 80.8423 14.16 83.9143 14.16ZM96.1383 32.336C96.1383 29.904 95.6263 27.792 94.6023 26C93.6209 24.208 92.3196 22.8427 90.6983 21.904C89.0769 20.9653 87.3276 20.496 85.4503 20.496C83.5729 20.496 81.8236 20.9653 80.2023 21.904C78.5809 22.8 77.2583 24.144 76.2343 25.936C75.2529 27.6853 74.7623 29.776 74.7623 32.208C74.7623 34.64 75.2529 36.7733 76.2343 38.608C77.2583 40.4427 78.5809 41.8507 80.2023 42.832C81.8663 43.7707 83.6156 44.24 85.4503 44.24C87.3276 44.24 89.0769 43.7707 90.6983 42.832C92.3196 41.8933 93.6209 40.528 94.6023 38.736C95.6263 36.9013 96.1383 34.768 96.1383 32.336ZM133.418 10.064C132.096 10.064 130.986 9.616 130.09 8.72C129.194 7.824 128.746 6.71467 128.746 5.392C128.746 4.06933 129.194 2.96 130.09 2.064C130.986 1.168 132.096 0.719997 133.418 0.719997C134.698 0.719997 135.786 1.168 136.682 2.064C137.578 2.96 138.026 4.06933 138.026 5.392C138.026 6.71467 137.578 7.824 136.682 8.72C135.786 9.616 134.698 10.064 133.418 10.064ZM137.002 14.736V50H129.706V14.736H137.002ZM164.373 14.16C167.147 14.16 169.621 14.736 171.797 15.888C174.016 17.04 175.744 18.7467 176.981 21.008C178.219 23.2693 178.837 26 178.837 29.2V50H171.605V30.288C171.605 27.1307 170.816 24.72 169.237 23.056C167.659 21.3493 165.504 20.496 162.773 20.496C160.043 20.496 157.867 21.3493 156.245 23.056C154.667 24.72 153.877 27.1307 153.877 30.288V50H146.581V14.736H153.877V18.768C155.072 17.3173 156.587 16.1867 158.421 15.376C160.299 14.5653 162.283 14.16 164.373 14.16Z" fill="black"/>
</svg>
