<svg width="199" height="25" viewBox="0 0 199 25" fill="none" xmlns="http://www.w3.org/2000/svg">
<path d="M15.935 18H11.831L4.967 7.608V18H0.863V1.152H4.967L11.831 11.592V1.152H15.935V18ZM25.0059 18.192C23.6939 18.192 22.5099 17.912 21.4539 17.352C20.4139 16.792 19.5899 15.992 18.9819 14.952C18.3899 13.912 18.0939 12.696 18.0939 11.304C18.0939 9.928 18.3979 8.72 19.0059 7.68C19.6139 6.624 20.4459 5.816 21.5019 5.256C22.5579 4.696 23.7419 4.416 25.0539 4.416C26.3659 4.416 27.5499 4.696 28.6059 5.256C29.6619 5.816 30.4939 6.624 31.1019 7.68C31.7099 8.72 32.0139 9.928 32.0139 11.304C32.0139 12.68 31.7019 13.896 31.0779 14.952C30.4699 15.992 29.6299 16.792 28.5579 17.352C27.5019 17.912 26.3179 18.192 25.0059 18.192ZM25.0059 14.64C25.7899 14.64 26.4539 14.352 26.9979 13.776C27.5579 13.2 27.8379 12.376 27.8379 11.304C27.8379 10.232 27.5659 9.408 27.0219 8.832C26.4939 8.256 25.8379 7.968 25.0539 7.968C24.2539 7.968 23.5899 8.256 23.0619 8.832C22.5339 9.392 22.2699 10.216 22.2699 11.304C22.2699 12.376 22.5259 13.2 23.0379 13.776C23.5659 14.352 24.2219 14.64 25.0059 14.64ZM49.7651 15.024H43.4771L42.4691 18H38.1731L44.2691 1.152H49.0211L55.1171 18H50.7731L49.7651 15.024ZM48.7091 11.856L46.6211 5.688L44.5571 11.856H48.7091ZM56.1564 11.304C56.1564 9.912 56.4364 8.696 56.9964 7.656C57.5724 6.616 58.3644 5.816 59.3724 5.256C60.3964 4.696 61.5644 4.416 62.8764 4.416C64.5564 4.416 65.9564 4.856 67.0764 5.736C68.2124 6.616 68.9564 7.856 69.3084 9.456H64.9404C64.5724 8.432 63.8604 7.92 62.8044 7.92C62.0524 7.92 61.4524 8.216 61.0044 8.808C60.5564 9.384 60.3324 10.216 60.3324 11.304C60.3324 12.392 60.5564 13.232 61.0044 13.824C61.4524 14.4 62.0524 14.688 62.8044 14.688C63.8604 14.688 64.5724 14.176 64.9404 13.152H69.3084C68.9564 14.72 68.2124 15.952 67.0764 16.848C65.9404 17.744 64.5404 18.192 62.8764 18.192C61.5644 18.192 60.3964 17.912 59.3724 17.352C58.3644 16.792 57.5724 15.992 56.9964 14.952C56.4364 13.912 56.1564 12.696 56.1564 11.304ZM70.6876 11.304C70.6876 9.912 70.9676 8.696 71.5276 7.656C72.1036 6.616 72.8956 5.816 73.9036 5.256C74.9276 4.696 76.0956 4.416 77.4076 4.416C79.0876 4.416 80.4876 4.856 81.6076 5.736C82.7436 6.616 83.4876 7.856 83.8396 9.456H79.4716C79.1036 8.432 78.3916 7.92 77.3356 7.92C76.5836 7.92 75.9836 8.216 75.5356 8.808C75.0876 9.384 74.8636 10.216 74.8636 11.304C74.8636 12.392 75.0876 13.232 75.5356 13.824C75.9836 14.4 76.5836 14.688 77.3356 14.688C78.3916 14.688 79.1036 14.176 79.4716 13.152H83.8396C83.4876 14.72 82.7436 15.952 81.6076 16.848C80.4716 17.744 79.0716 18.192 77.4076 18.192C76.0956 18.192 74.9276 17.912 73.9036 17.352C72.8956 16.792 72.1036 15.992 71.5276 14.952C70.9676 13.912 70.6876 12.696 70.6876 11.304ZM92.1309 18.192C90.8189 18.192 89.6349 17.912 88.5789 17.352C87.5389 16.792 86.7149 15.992 86.1069 14.952C85.5149 13.912 85.2189 12.696 85.2189 11.304C85.2189 9.928 85.5229 8.72 86.1309 7.68C86.7389 6.624 87.5709 5.816 88.6269 5.256C89.6829 4.696 90.8669 4.416 92.1789 4.416C93.4909 4.416 94.6749 4.696 95.7309 5.256C96.7869 5.816 97.6189 6.624 98.2269 7.68C98.8349 8.72 99.1389 9.928 99.1389 11.304C99.1389 12.68 98.8269 13.896 98.2029 14.952C97.5949 15.992 96.7549 16.792 95.6829 17.352C94.6269 17.912 93.4429 18.192 92.1309 18.192ZM92.1309 14.64C92.9149 14.64 93.5789 14.352 94.1229 13.776C94.6829 13.2 94.9629 12.376 94.9629 11.304C94.9629 10.232 94.6909 9.408 94.1469 8.832C93.6189 8.256 92.9629 7.968 92.1789 7.968C91.3789 7.968 90.7149 8.256 90.1869 8.832C89.6589 9.392 89.3949 10.216 89.3949 11.304C89.3949 12.376 89.6509 13.2 90.1629 13.776C90.6909 14.352 91.3469 14.64 92.1309 14.64ZM114.54 4.608V18H110.436V16.176C110.02 16.768 109.452 17.248 108.732 17.616C108.028 17.968 107.244 18.144 106.38 18.144C105.356 18.144 104.452 17.92 103.668 17.472C102.884 17.008 102.276 16.344 101.844 15.48C101.412 14.616 101.196 13.6 101.196 12.432V4.608H105.276V11.88C105.276 12.776 105.508 13.472 105.972 13.968C106.436 14.464 107.06 14.712 107.844 14.712C108.644 14.712 109.276 14.464 109.74 13.968C110.204 13.472 110.436 12.776 110.436 11.88V4.608H114.54ZM125.648 4.464C127.216 4.464 128.464 4.976 129.392 6C130.336 7.008 130.808 8.4 130.808 10.176V18H126.728V10.728C126.728 9.832 126.496 9.136 126.032 8.64C125.568 8.144 124.944 7.896 124.16 7.896C123.376 7.896 122.752 8.144 122.288 8.64C121.824 9.136 121.592 9.832 121.592 10.728V18H117.488V4.608H121.592V6.384C122.008 5.792 122.568 5.328 123.272 4.992C123.976 4.64 124.768 4.464 125.648 4.464ZM141.124 14.52V18H139.036C137.548 18 136.388 17.64 135.556 16.92C134.724 16.184 134.308 14.992 134.308 13.344V8.016H132.676V4.608H134.308V1.344H138.412V4.608H141.1V8.016H138.412V13.392C138.412 13.792 138.508 14.08 138.7 14.256C138.892 14.432 139.212 14.52 139.66 14.52H141.124ZM162.176 4.608L153.776 24.36H149.36L152.432 17.544L146.984 4.608H151.568L154.664 12.984L157.736 4.608H162.176ZM176.284 11.088C176.284 11.472 176.26 11.872 176.212 12.288H166.924C166.988 13.12 167.252 13.76 167.716 14.208C168.196 14.64 168.78 14.856 169.468 14.856C170.492 14.856 171.204 14.424 171.604 13.56H175.972C175.748 14.44 175.34 15.232 174.748 15.936C174.172 16.64 173.444 17.192 172.564 17.592C171.684 17.992 170.7 18.192 169.612 18.192C168.3 18.192 167.132 17.912 166.108 17.352C165.084 16.792 164.284 15.992 163.708 14.952C163.132 13.912 162.844 12.696 162.844 11.304C162.844 9.912 163.124 8.696 163.684 7.656C164.26 6.616 165.06 5.816 166.084 5.256C167.108 4.696 168.284 4.416 169.612 4.416C170.908 4.416 172.06 4.688 173.068 5.232C174.076 5.776 174.86 6.552 175.42 7.56C175.996 8.568 176.284 9.744 176.284 11.088ZM172.084 10.008C172.084 9.304 171.844 8.744 171.364 8.328C170.884 7.912 170.284 7.704 169.564 7.704C168.876 7.704 168.292 7.904 167.812 8.304C167.348 8.704 167.06 9.272 166.948 10.008H172.084ZM185.913 14.52V18H183.825C182.337 18 181.177 17.64 180.345 16.92C179.513 16.184 179.097 14.992 179.097 13.344V8.016H177.465V4.608H179.097V1.344H183.201V4.608H185.889V8.016H183.201V13.392C183.201 13.792 183.297 14.08 183.489 14.256C183.681 14.432 184.001 14.52 184.449 14.52H185.913ZM193.119 0.215999C194.831 0.215999 196.199 0.663999 197.223 1.56C198.263 2.456 198.783 3.72 198.783 5.352C198.783 6.856 198.287 8.032 197.295 8.88C196.319 9.712 195.023 10.136 193.407 10.152L193.287 11.952H189.687L189.567 7.488H191.007C192.239 7.488 193.175 7.336 193.815 7.032C194.471 6.728 194.799 6.176 194.799 5.376C194.799 4.816 194.647 4.376 194.343 4.056C194.039 3.736 193.615 3.576 193.071 3.576C192.495 3.576 192.047 3.744 191.727 4.08C191.407 4.4 191.247 4.84 191.247 5.4H187.383C187.351 4.424 187.551 3.544 187.983 2.76C188.431 1.976 189.087 1.36 189.951 0.912C190.831 0.447999 191.887 0.215999 193.119 0.215999ZM191.535 18.192C190.815 18.192 190.223 17.984 189.759 17.568C189.311 17.136 189.087 16.608 189.087 15.984C189.087 15.344 189.311 14.808 189.759 14.376C190.223 13.944 190.815 13.728 191.535 13.728C192.239 13.728 192.815 13.944 193.263 14.376C193.727 14.808 193.959 15.344 193.959 15.984C193.959 16.608 193.727 17.136 193.263 17.568C192.815 17.984 192.239 18.192 191.535 18.192Z" fill="#27AE60"/>
</svg>
