<svg width="383" height="332" viewBox="0 0 383 332" fill="none" xmlns="http://www.w3.org/2000/svg">
<path d="M43.556 83.232L30.212 114H24.692L38.18 83.808H20.42V79.152H43.556V83.232ZM59.6041 100.656C59.6041 98 60.1481 95.648 61.2361 93.6C62.3561 91.552 63.8601 89.968 65.7481 88.848C67.6681 87.696 69.7961 87.12 72.1321 87.12C73.8601 87.12 75.5561 87.504 77.2201 88.272C78.9161 89.008 80.2601 90 81.2521 91.248V78.48H86.7721V114H81.2521V110.016C80.3561 111.296 79.1081 112.352 77.5081 113.184C75.9401 114.016 74.1321 114.432 72.0841 114.432C69.7801 114.432 67.6681 113.856 65.7481 112.704C63.8601 111.52 62.3561 109.888 61.2361 107.808C60.1481 105.696 59.6041 103.312 59.6041 100.656ZM81.2521 100.752C81.2521 98.928 80.8681 97.344 80.1001 96C79.3641 94.656 78.3881 93.632 77.1721 92.928C75.9561 92.224 74.6441 91.872 73.2361 91.872C71.8281 91.872 70.5161 92.224 69.3001 92.928C68.0841 93.6 67.0921 94.608 66.3241 95.952C65.5881 97.264 65.2201 98.832 65.2201 100.656C65.2201 102.48 65.5881 104.08 66.3241 105.456C67.0921 106.832 68.0841 107.888 69.3001 108.624C70.5481 109.328 71.8601 109.68 73.2361 109.68C74.6441 109.68 75.9561 109.328 77.1721 108.624C78.3881 107.92 79.3641 106.896 80.1001 105.552C80.8681 104.176 81.2521 102.576 81.2521 100.752ZM92.1354 100.656C92.1354 98 92.6794 95.648 93.7674 93.6C94.8874 91.552 96.3914 89.968 98.2794 88.848C100.199 87.696 102.311 87.12 104.615 87.12C106.695 87.12 108.503 87.536 110.039 88.368C111.607 89.168 112.855 90.176 113.783 91.392V87.552H119.303V114H113.783V110.064C112.855 111.312 111.591 112.352 109.991 113.184C108.391 114.016 106.567 114.432 104.519 114.432C102.247 114.432 100.167 113.856 98.2794 112.704C96.3914 111.52 94.8874 109.888 93.7674 107.808C92.6794 105.696 92.1354 103.312 92.1354 100.656ZM113.783 100.752C113.783 98.928 113.399 97.344 112.631 96C111.895 94.656 110.919 93.632 109.703 92.928C108.487 92.224 107.175 91.872 105.767 91.872C104.359 91.872 103.047 92.224 101.831 92.928C100.615 93.6 99.6234 94.608 98.8554 95.952C98.1194 97.264 97.7514 98.832 97.7514 100.656C97.7514 102.48 98.1194 104.08 98.8554 105.456C99.6234 106.832 100.615 107.888 101.831 108.624C103.079 109.328 104.391 109.68 105.767 109.68C107.175 109.68 108.487 109.328 109.703 108.624C110.919 107.92 111.895 106.896 112.631 105.552C113.399 104.176 113.783 102.576 113.783 100.752ZM150.299 87.552L134.075 126.432H128.411L133.787 113.568L123.371 87.552H129.467L136.907 107.712L144.635 87.552H150.299ZM177.985 92.016H173.089V114H167.569V92.016H164.449V87.552H167.569V85.68C167.569 82.64 168.369 80.432 169.969 79.056C171.601 77.648 174.145 76.944 177.601 76.944V81.504C175.937 81.504 174.769 81.824 174.097 82.464C173.425 83.072 173.089 84.144 173.089 85.68V87.552H177.985V92.016ZM188.306 91.392C189.106 90.048 190.162 89.008 191.474 88.272C192.818 87.504 194.402 87.12 196.226 87.12V92.784H194.834C192.69 92.784 191.058 93.328 189.938 94.416C188.85 95.504 188.306 97.392 188.306 100.08V114H182.834V87.552H188.306V91.392ZM225.496 100.128C225.496 101.12 225.432 102.016 225.304 102.816H205.096C205.256 104.928 206.04 106.624 207.448 107.904C208.856 109.184 210.584 109.824 212.632 109.824C215.576 109.824 217.656 108.592 218.872 106.128H224.776C223.976 108.56 222.52 110.56 220.408 112.128C218.328 113.664 215.736 114.432 212.632 114.432C210.104 114.432 207.832 113.872 205.816 112.752C203.832 111.6 202.264 110 201.112 107.952C199.992 105.872 199.432 103.472 199.432 100.752C199.432 98.032 199.976 95.648 201.064 93.6C202.184 91.52 203.736 89.92 205.72 88.8C207.736 87.68 210.04 87.12 212.632 87.12C215.128 87.12 217.352 87.664 219.304 88.752C221.256 89.84 222.776 91.376 223.864 93.36C224.952 95.312 225.496 97.568 225.496 100.128ZM219.784 98.4C219.752 96.384 219.032 94.768 217.624 93.552C216.216 92.336 214.472 91.728 212.392 91.728C210.504 91.728 208.888 92.336 207.544 93.552C206.2 94.736 205.4 96.352 205.144 98.4H219.784ZM255.121 100.128C255.121 101.12 255.057 102.016 254.929 102.816H234.721C234.881 104.928 235.665 106.624 237.073 107.904C238.481 109.184 240.209 109.824 242.257 109.824C245.201 109.824 247.281 108.592 248.497 106.128H254.401C253.601 108.56 252.145 110.56 250.033 112.128C247.953 113.664 245.361 114.432 242.257 114.432C239.729 114.432 237.457 113.872 235.441 112.752C233.457 111.6 231.889 110 230.737 107.952C229.617 105.872 229.057 103.472 229.057 100.752C229.057 98.032 229.601 95.648 230.689 93.6C231.809 91.52 233.361 89.92 235.345 88.8C237.361 87.68 239.665 87.12 242.257 87.12C244.753 87.12 246.977 87.664 248.929 88.752C250.881 89.84 252.401 91.376 253.489 93.36C254.577 95.312 255.121 97.568 255.121 100.128ZM249.409 98.4C249.377 96.384 248.657 94.768 247.249 93.552C245.841 92.336 244.097 91.728 242.017 91.728C240.129 91.728 238.513 92.336 237.169 93.552C235.825 94.736 235.025 96.352 234.769 98.4H249.409ZM279.359 92.016V106.656C279.359 107.648 279.583 108.368 280.031 108.816C280.511 109.232 281.311 109.44 282.431 109.44H285.791V114H281.471C279.007 114 277.119 113.424 275.807 112.272C274.495 111.12 273.839 109.248 273.839 106.656V92.016H270.719V87.552H273.839V80.976H279.359V87.552H285.791V92.016H279.359ZM296.306 91.392C297.106 90.048 298.162 89.008 299.474 88.272C300.818 87.504 302.402 87.12 304.226 87.12V92.784H302.834C300.69 92.784 299.058 93.328 297.938 94.416C296.85 95.504 296.306 97.392 296.306 100.08V114H290.834V87.552H296.306V91.392ZM312.04 84.048C311.048 84.048 310.216 83.712 309.544 83.04C308.872 82.368 308.536 81.536 308.536 80.544C308.536 79.552 308.872 78.72 309.544 78.048C310.216 77.376 311.048 77.04 312.04 77.04C313 77.04 313.816 77.376 314.488 78.048C315.16 78.72 315.496 79.552 315.496 80.544C315.496 81.536 315.16 82.368 314.488 83.04C313.816 83.712 313 84.048 312.04 84.048ZM314.728 87.552V114H309.256V87.552H314.728ZM320.089 100.656C320.089 98 320.633 95.648 321.721 93.6C322.841 91.552 324.345 89.968 326.233 88.848C328.153 87.696 330.265 87.12 332.569 87.12C334.649 87.12 336.457 87.536 337.993 88.368C339.561 89.168 340.809 90.176 341.737 91.392V87.552H347.257V114H341.737V110.064C340.809 111.312 339.545 112.352 337.945 113.184C336.345 114.016 334.521 114.432 332.473 114.432C330.201 114.432 328.121 113.856 326.233 112.704C324.345 111.52 322.841 109.888 321.721 107.808C320.633 105.696 320.089 103.312 320.089 100.656ZM341.737 100.752C341.737 98.928 341.353 97.344 340.585 96C339.849 94.656 338.873 93.632 337.657 92.928C336.441 92.224 335.129 91.872 333.721 91.872C332.313 91.872 331.001 92.224 329.785 92.928C328.569 93.6 327.577 94.608 326.809 95.952C326.073 97.264 325.705 98.832 325.705 100.656C325.705 102.48 326.073 104.08 326.809 105.456C327.577 106.832 328.569 107.888 329.785 108.624C331.033 109.328 332.345 109.68 333.721 109.68C335.129 109.68 336.441 109.328 337.657 108.624C338.873 107.92 339.849 106.896 340.585 105.552C341.353 104.176 341.737 102.576 341.737 100.752ZM359.916 78.48V114H354.444V78.48H359.916Z" fill="white"/>
<path d="M24.3111 165.454V178H22.6731V165.454H24.3111ZM36.9668 178H35.3288L28.7408 168.01V178H27.1028V165.436H28.7408L35.3288 175.408V165.436H36.9668V178ZM39.147 171.718C39.147 170.494 39.423 169.396 39.975 168.424C40.527 167.44 41.277 166.672 42.225 166.12C43.185 165.568 44.247 165.292 45.411 165.292C46.779 165.292 47.973 165.622 48.993 166.282C50.013 166.942 50.757 167.878 51.225 169.09H49.263C48.915 168.334 48.411 167.752 47.751 167.344C47.103 166.936 46.323 166.732 45.411 166.732C44.535 166.732 43.749 166.936 43.053 167.344C42.357 167.752 41.811 168.334 41.415 169.09C41.019 169.834 40.821 170.71 40.821 171.718C40.821 172.714 41.019 173.59 41.415 174.346C41.811 175.09 42.357 175.666 43.053 176.074C43.749 176.482 44.535 176.686 45.411 176.686C46.323 176.686 47.103 176.488 47.751 176.092C48.411 175.684 48.915 175.102 49.263 174.346H51.225C50.757 175.546 50.013 176.476 48.993 177.136C47.973 177.784 46.779 178.108 45.411 178.108C44.247 178.108 43.185 177.838 42.225 177.298C41.277 176.746 40.527 175.984 39.975 175.012C39.423 174.04 39.147 172.942 39.147 171.718ZM55.3013 176.668H59.6933V178H53.6633V165.454H55.3013V176.668ZM63.0349 165.454V173.392C63.0349 174.508 63.3049 175.336 63.8449 175.876C64.3969 176.416 65.1589 176.686 66.1309 176.686C67.0909 176.686 67.8409 176.416 68.3809 175.876C68.9329 175.336 69.2089 174.508 69.2089 173.392V165.454H70.8469V173.374C70.8469 174.418 70.6369 175.3 70.2169 176.02C69.7969 176.728 69.2269 177.256 68.5069 177.604C67.7989 177.952 67.0009 178.126 66.1129 178.126C65.2249 178.126 64.4209 177.952 63.7009 177.604C62.9929 177.256 62.4289 176.728 62.0089 176.02C61.6009 175.3 61.3969 174.418 61.3969 173.374V165.454H63.0349ZM77.4854 165.454C78.8534 165.454 80.0354 165.712 81.0314 166.228C82.0394 166.732 82.8074 167.458 83.3354 168.406C83.8754 169.354 84.1454 170.47 84.1454 171.754C84.1454 173.038 83.8754 174.154 83.3354 175.102C82.8074 176.038 82.0394 176.758 81.0314 177.262C80.0354 177.754 78.8534 178 77.4854 178H73.5794V165.454H77.4854ZM77.4854 176.65C79.1054 176.65 80.3414 176.224 81.1934 175.372C82.0454 174.508 82.4714 173.302 82.4714 171.754C82.4714 170.194 82.0394 168.976 81.1754 168.1C80.3234 167.224 79.0934 166.786 77.4854 166.786H75.2174V176.65H77.4854ZM87.9439 166.786V170.98H92.5159V172.33H87.9439V176.65H93.0559V178H86.3059V165.436H93.0559V166.786H87.9439ZM99.5124 178.126C98.6844 178.126 97.9404 177.982 97.2804 177.694C96.6324 177.394 96.1224 176.986 95.7504 176.47C95.3784 175.942 95.1864 175.336 95.1744 174.652H96.9204C96.9804 175.24 97.2204 175.738 97.6404 176.146C98.0724 176.542 98.6964 176.74 99.5124 176.74C100.292 176.74 100.904 176.548 101.348 176.164C101.804 175.768 102.032 175.264 102.032 174.652C102.032 174.172 101.9 173.782 101.636 173.482C101.372 173.182 101.042 172.954 100.646 172.798C100.25 172.642 99.7164 172.474 99.0444 172.294C98.2164 172.078 97.5504 171.862 97.0464 171.646C96.5544 171.43 96.1284 171.094 95.7684 170.638C95.4204 170.17 95.2464 169.546 95.2464 168.766C95.2464 168.082 95.4204 167.476 95.7684 166.948C96.1164 166.42 96.6024 166.012 97.2264 165.724C97.8624 165.436 98.5884 165.292 99.4044 165.292C100.58 165.292 101.54 165.586 102.284 166.174C103.04 166.762 103.466 167.542 103.562 168.514H101.762C101.702 168.034 101.45 167.614 101.006 167.254C100.562 166.882 99.9744 166.696 99.2424 166.696C98.5584 166.696 98.0004 166.876 97.5684 167.236C97.1364 167.584 96.9204 168.076 96.9204 168.712C96.9204 169.168 97.0464 169.54 97.2984 169.828C97.5624 170.116 97.8804 170.338 98.2524 170.494C98.6364 170.638 99.1704 170.806 99.8544 170.998C100.682 171.226 101.348 171.454 101.852 171.682C102.356 171.898 102.788 172.24 103.148 172.708C103.508 173.164 103.688 173.788 103.688 174.58C103.688 175.192 103.526 175.768 103.202 176.308C102.878 176.848 102.398 177.286 101.762 177.622C101.126 177.958 100.376 178.126 99.5124 178.126Z" fill="white"/>
<path d="M56.89 205.09C56.542 204.358 56.038 203.794 55.378 203.398C54.718 202.99 53.95 202.786 53.074 202.786C52.198 202.786 51.406 202.99 50.698 203.398C50.002 203.794 49.45 204.37 49.042 205.126C48.646 205.87 48.448 206.734 48.448 207.718C48.448 208.702 48.646 209.566 49.042 210.31C49.45 211.054 50.002 211.63 50.698 212.038C51.406 212.434 52.198 212.632 53.074 212.632C54.298 212.632 55.306 212.266 56.098 211.534C56.89 210.802 57.352 209.812 57.484 208.564H52.48V207.232H59.23V208.492C59.134 209.524 58.81 210.472 58.258 211.336C57.706 212.188 56.98 212.866 56.08 213.37C55.18 213.862 54.178 214.108 53.074 214.108C51.91 214.108 50.848 213.838 49.888 213.298C48.928 212.746 48.166 211.984 47.602 211.012C47.05 210.04 46.774 208.942 46.774 207.718C46.774 206.494 47.05 205.396 47.602 204.424C48.166 203.44 48.928 202.678 49.888 202.138C50.848 201.586 51.91 201.31 53.074 201.31C54.406 201.31 55.582 201.64 56.602 202.3C57.634 202.96 58.384 203.89 58.852 205.09H56.89ZM70.3958 208.69C70.3958 209.002 70.3778 209.332 70.3418 209.68H62.4578C62.5178 210.652 62.8478 211.414 63.4478 211.966C64.0598 212.506 64.7978 212.776 65.6618 212.776C66.3698 212.776 66.9578 212.614 67.4258 212.29C67.9058 211.954 68.2418 211.51 68.4338 210.958H70.1978C69.9338 211.906 69.4058 212.68 68.6138 213.28C67.8218 213.868 66.8378 214.162 65.6618 214.162C64.7258 214.162 63.8858 213.952 63.1418 213.532C62.4098 213.112 61.8338 212.518 61.4138 211.75C60.9938 210.97 60.7838 210.07 60.7838 209.05C60.7838 208.03 60.9878 207.136 61.3958 206.368C61.8038 205.6 62.3738 205.012 63.1058 204.604C63.8498 204.184 64.7018 203.974 65.6618 203.974C66.5978 203.974 67.4258 204.178 68.1458 204.586C68.8658 204.994 69.4178 205.558 69.8018 206.278C70.1978 206.986 70.3958 207.79 70.3958 208.69ZM68.7038 208.348C68.7038 207.724 68.5658 207.19 68.2898 206.746C68.0138 206.29 67.6358 205.948 67.1558 205.72C66.6878 205.48 66.1658 205.36 65.5898 205.36C64.7618 205.36 64.0538 205.624 63.4658 206.152C62.8898 206.68 62.5598 207.412 62.4758 208.348H68.7038ZM74.5559 205.486V211.3C74.5559 211.78 74.6579 212.122 74.8619 212.326C75.0659 212.518 75.4199 212.614 75.9239 212.614H77.1299V214H75.6539C74.7419 214 74.0579 213.79 73.6019 213.37C73.1459 212.95 72.9179 212.26 72.9179 211.3V205.486H71.6399V204.136H72.9179V201.652H74.5559V204.136H77.1299V205.486H74.5559ZM92.6613 204.136V214H91.0233V212.542C90.7113 213.046 90.2733 213.442 89.7093 213.73C89.1573 214.006 88.5453 214.144 87.8733 214.144C87.1053 214.144 86.4153 213.988 85.8033 213.676C85.1913 213.352 84.7053 212.872 84.3453 212.236C83.9973 211.6 83.8233 210.826 83.8233 209.914V204.136H85.4433V209.698C85.4433 210.67 85.6893 211.42 86.1813 211.948C86.6733 212.464 87.3453 212.722 88.1973 212.722C89.0733 212.722 89.7633 212.452 90.2673 211.912C90.7713 211.372 91.0233 210.586 91.0233 209.554V204.136H92.6613ZM100.233 203.956C101.433 203.956 102.405 204.322 103.149 205.054C103.893 205.774 104.265 206.818 104.265 208.186V214H102.645V208.42C102.645 207.436 102.399 206.686 101.907 206.17C101.415 205.642 100.743 205.378 99.891 205.378C99.027 205.378 98.337 205.648 97.821 206.188C97.317 206.728 97.065 207.514 97.065 208.546V214H95.427V204.136H97.065V205.54C97.389 205.036 97.827 204.646 98.379 204.37C98.943 204.094 99.561 203.956 100.233 203.956ZM108.579 200.68V214H106.941V200.68H108.579ZM112.216 202.534C111.904 202.534 111.64 202.426 111.424 202.21C111.208 201.994 111.1 201.73 111.1 201.418C111.1 201.106 111.208 200.842 111.424 200.626C111.64 200.41 111.904 200.302 112.216 200.302C112.516 200.302 112.768 200.41 112.972 200.626C113.188 200.842 113.296 201.106 113.296 201.418C113.296 201.73 113.188 201.994 112.972 202.21C112.768 202.426 112.516 202.534 112.216 202.534ZM113.008 204.136V214H111.37V204.136H113.008ZM127.662 203.956C128.43 203.956 129.114 204.118 129.714 204.442C130.314 204.754 130.788 205.228 131.136 205.864C131.484 206.5 131.658 207.274 131.658 208.186V214H130.038V208.42C130.038 207.436 129.792 206.686 129.3 206.17C128.82 205.642 128.166 205.378 127.338 205.378C126.486 205.378 125.808 205.654 125.304 206.206C124.8 206.746 124.548 207.532 124.548 208.564V214H122.928V208.42C122.928 207.436 122.682 206.686 122.19 206.17C121.71 205.642 121.056 205.378 120.228 205.378C119.376 205.378 118.698 205.654 118.194 206.206C117.69 206.746 117.438 207.532 117.438 208.564V214H115.8V204.136H117.438V205.558C117.762 205.042 118.194 204.646 118.734 204.37C119.286 204.094 119.892 203.956 120.552 203.956C121.38 203.956 122.112 204.142 122.748 204.514C123.384 204.886 123.858 205.432 124.17 206.152C124.446 205.456 124.902 204.916 125.538 204.532C126.174 204.148 126.882 203.956 127.662 203.956ZM135.191 202.534C134.879 202.534 134.615 202.426 134.399 202.21C134.183 201.994 134.075 201.73 134.075 201.418C134.075 201.106 134.183 200.842 134.399 200.626C134.615 200.41 134.879 200.302 135.191 200.302C135.491 200.302 135.743 200.41 135.947 200.626C136.163 200.842 136.271 201.106 136.271 201.418C136.271 201.73 136.163 201.994 135.947 202.21C135.743 202.426 135.491 202.534 135.191 202.534ZM135.983 204.136V214H134.345V204.136H135.983ZM140.773 205.486V211.3C140.773 211.78 140.875 212.122 141.079 212.326C141.283 212.518 141.637 212.614 142.141 212.614H143.347V214H141.871C140.959 214 140.275 213.79 139.819 213.37C139.363 212.95 139.135 212.26 139.135 211.3V205.486H137.857V204.136H139.135V201.652H140.773V204.136H143.347V205.486H140.773ZM154.331 208.69C154.331 209.002 154.313 209.332 154.277 209.68H146.393C146.453 210.652 146.783 211.414 147.383 211.966C147.995 212.506 148.733 212.776 149.597 212.776C150.305 212.776 150.893 212.614 151.361 212.29C151.841 211.954 152.177 211.51 152.369 210.958H154.133C153.869 211.906 153.341 212.68 152.549 213.28C151.757 213.868 150.773 214.162 149.597 214.162C148.661 214.162 147.821 213.952 147.077 213.532C146.345 213.112 145.769 212.518 145.349 211.75C144.929 210.97 144.719 210.07 144.719 209.05C144.719 208.03 144.923 207.136 145.331 206.368C145.739 205.6 146.309 205.012 147.041 204.604C147.785 204.184 148.637 203.974 149.597 203.974C150.533 203.974 151.361 204.178 152.081 204.586C152.801 204.994 153.353 205.558 153.737 206.278C154.133 206.986 154.331 207.79 154.331 208.69ZM152.639 208.348C152.639 207.724 152.501 207.19 152.225 206.746C151.949 206.29 151.571 205.948 151.091 205.72C150.623 205.48 150.101 205.36 149.525 205.36C148.697 205.36 147.989 205.624 147.401 206.152C146.825 206.68 146.495 207.412 146.411 208.348H152.639ZM155.881 209.032C155.881 208.024 156.085 207.142 156.493 206.386C156.901 205.618 157.459 205.024 158.167 204.604C158.887 204.184 159.691 203.974 160.579 203.974C161.347 203.974 162.061 204.154 162.721 204.514C163.381 204.862 163.885 205.324 164.233 205.9V200.68H165.889V214H164.233V212.146C163.909 212.734 163.429 213.22 162.793 213.604C162.157 213.976 161.413 214.162 160.561 214.162C159.685 214.162 158.887 213.946 158.167 213.514C157.459 213.082 156.901 212.476 156.493 211.696C156.085 210.916 155.881 210.028 155.881 209.032ZM164.233 209.05C164.233 208.306 164.083 207.658 163.783 207.106C163.483 206.554 163.075 206.134 162.559 205.846C162.055 205.546 161.497 205.396 160.885 205.396C160.273 205.396 159.715 205.54 159.211 205.828C158.707 206.116 158.305 206.536 158.005 207.088C157.705 207.64 157.555 208.288 157.555 209.032C157.555 209.788 157.705 210.448 158.005 211.012C158.305 211.564 158.707 211.99 159.211 212.29C159.715 212.578 160.273 212.722 160.885 212.722C161.497 212.722 162.055 212.578 162.559 212.29C163.075 211.99 163.483 211.564 163.783 211.012C164.083 210.448 164.233 209.794 164.233 209.05ZM186.596 204.136L183.518 214H181.826L179.45 206.17L177.074 214H175.382L172.286 204.136H173.96L176.228 212.416L178.676 204.136H180.35L182.744 212.434L184.976 204.136H186.596ZM192.524 214.162C191.6 214.162 190.76 213.952 190.004 213.532C189.26 213.112 188.672 212.518 188.24 211.75C187.82 210.97 187.61 210.07 187.61 209.05C187.61 208.042 187.826 207.154 188.258 206.386C188.702 205.606 189.302 205.012 190.058 204.604C190.814 204.184 191.66 203.974 192.596 203.974C193.532 203.974 194.378 204.184 195.134 204.604C195.89 205.012 196.484 205.6 196.916 206.368C197.36 207.136 197.582 208.03 197.582 209.05C197.582 210.07 197.354 210.97 196.898 211.75C196.454 212.518 195.848 213.112 195.08 213.532C194.312 213.952 193.46 214.162 192.524 214.162ZM192.524 212.722C193.112 212.722 193.664 212.584 194.18 212.308C194.696 212.032 195.11 211.618 195.422 211.066C195.746 210.514 195.908 209.842 195.908 209.05C195.908 208.258 195.752 207.586 195.44 207.034C195.128 206.482 194.72 206.074 194.216 205.81C193.712 205.534 193.166 205.396 192.578 205.396C191.978 205.396 191.426 205.534 190.922 205.81C190.43 206.074 190.034 206.482 189.734 207.034C189.434 207.586 189.284 208.258 189.284 209.05C189.284 209.854 189.428 210.532 189.716 211.084C190.016 211.636 190.412 212.05 190.904 212.326C191.396 212.59 191.936 212.722 192.524 212.722ZM201.374 205.738C201.662 205.174 202.07 204.736 202.598 204.424C203.138 204.112 203.792 203.956 204.56 203.956V205.648H204.128C202.292 205.648 201.374 206.644 201.374 208.636V214H199.736V204.136H201.374V205.738ZM211.958 214L208.088 209.644V214H206.45V200.68H208.088V208.51L211.886 204.136H214.172L209.528 209.05L214.19 214H211.958ZM219.206 214.162C218.45 214.162 217.772 214.036 217.172 213.784C216.572 213.52 216.098 213.16 215.75 212.704C215.402 212.236 215.21 211.702 215.174 211.102H216.866C216.914 211.594 217.142 211.996 217.55 212.308C217.97 212.62 218.516 212.776 219.188 212.776C219.812 212.776 220.304 212.638 220.664 212.362C221.024 212.086 221.204 211.738 221.204 211.318C221.204 210.886 221.012 210.568 220.628 210.364C220.244 210.148 219.65 209.938 218.846 209.734C218.114 209.542 217.514 209.35 217.046 209.158C216.59 208.954 216.194 208.66 215.858 208.276C215.534 207.88 215.372 207.364 215.372 206.728C215.372 206.224 215.522 205.762 215.822 205.342C216.122 204.922 216.548 204.592 217.1 204.352C217.652 204.1 218.282 203.974 218.99 203.974C220.082 203.974 220.964 204.25 221.636 204.802C222.308 205.354 222.668 206.11 222.716 207.07H221.078C221.042 206.554 220.832 206.14 220.448 205.828C220.076 205.516 219.572 205.36 218.936 205.36C218.348 205.36 217.88 205.486 217.532 205.738C217.184 205.99 217.01 206.32 217.01 206.728C217.01 207.052 217.112 207.322 217.316 207.538C217.532 207.742 217.796 207.91 218.108 208.042C218.432 208.162 218.876 208.3 219.44 208.456C220.148 208.648 220.724 208.84 221.168 209.032C221.612 209.212 221.99 209.488 222.302 209.86C222.626 210.232 222.794 210.718 222.806 211.318C222.806 211.858 222.656 212.344 222.356 212.776C222.056 213.208 221.63 213.55 221.078 213.802C220.538 214.042 219.914 214.162 219.206 214.162ZM226.756 205.954C227.08 205.39 227.56 204.922 228.196 204.55C228.844 204.166 229.594 203.974 230.446 203.974C231.322 203.974 232.114 204.184 232.822 204.604C233.542 205.024 234.106 205.618 234.514 206.386C234.922 207.142 235.126 208.024 235.126 209.032C235.126 210.028 234.922 210.916 234.514 211.696C234.106 212.476 233.542 213.082 232.822 213.514C232.114 213.946 231.322 214.162 230.446 214.162C229.606 214.162 228.862 213.976 228.214 213.604C227.578 213.22 227.092 212.746 226.756 212.182V218.68H225.118V204.136H226.756V205.954ZM233.452 209.032C233.452 208.288 233.302 207.64 233.002 207.088C232.702 206.536 232.294 206.116 231.778 205.828C231.274 205.54 230.716 205.396 230.104 205.396C229.504 205.396 228.946 205.546 228.43 205.846C227.926 206.134 227.518 206.56 227.206 207.124C226.906 207.676 226.756 208.318 226.756 209.05C226.756 209.794 226.906 210.448 227.206 211.012C227.518 211.564 227.926 211.99 228.43 212.29C228.946 212.578 229.504 212.722 230.104 212.722C230.716 212.722 231.274 212.578 231.778 212.29C232.294 211.99 232.702 211.564 233.002 211.012C233.302 210.448 233.452 209.788 233.452 209.032ZM236.67 209.032C236.67 208.024 236.874 207.142 237.282 206.386C237.69 205.618 238.248 205.024 238.956 204.604C239.676 204.184 240.474 203.974 241.35 203.974C242.214 203.974 242.964 204.16 243.6 204.532C244.236 204.904 244.71 205.372 245.022 205.936V204.136H246.678V214H245.022V212.164C244.698 212.74 244.212 213.22 243.564 213.604C242.928 213.976 242.184 214.162 241.332 214.162C240.456 214.162 239.664 213.946 238.956 213.514C238.248 213.082 237.69 212.476 237.282 211.696C236.874 210.916 236.67 210.028 236.67 209.032ZM245.022 209.05C245.022 208.306 244.872 207.658 244.572 207.106C244.272 206.554 243.864 206.134 243.348 205.846C242.844 205.546 242.286 205.396 241.674 205.396C241.062 205.396 240.504 205.54 240 205.828C239.496 206.116 239.094 206.536 238.794 207.088C238.494 207.64 238.344 208.288 238.344 209.032C238.344 209.788 238.494 210.448 238.794 211.012C239.094 211.564 239.496 211.99 240 212.29C240.504 212.578 241.062 212.722 241.674 212.722C242.286 212.722 242.844 212.578 243.348 212.29C243.864 211.99 244.272 211.564 244.572 211.012C244.872 210.448 245.022 209.794 245.022 209.05ZM248.835 209.05C248.835 208.03 249.039 207.142 249.447 206.386C249.855 205.618 250.419 205.024 251.139 204.604C251.871 204.184 252.705 203.974 253.641 203.974C254.853 203.974 255.849 204.268 256.629 204.856C257.421 205.444 257.943 206.26 258.195 207.304H256.431C256.263 206.704 255.933 206.23 255.441 205.882C254.961 205.534 254.361 205.36 253.641 205.36C252.705 205.36 251.949 205.684 251.373 206.332C250.797 206.968 250.509 207.874 250.509 209.05C250.509 210.238 250.797 211.156 251.373 211.804C251.949 212.452 252.705 212.776 253.641 212.776C254.361 212.776 254.961 212.608 255.441 212.272C255.921 211.936 256.251 211.456 256.431 210.832H258.195C257.931 211.84 257.403 212.65 256.611 213.262C255.819 213.862 254.829 214.162 253.641 214.162C252.705 214.162 251.871 213.952 251.139 213.532C250.419 213.112 249.855 212.518 249.447 211.75C249.039 210.982 248.835 210.082 248.835 209.05ZM269.38 208.69C269.38 209.002 269.362 209.332 269.326 209.68H261.442C261.502 210.652 261.832 211.414 262.432 211.966C263.044 212.506 263.782 212.776 264.646 212.776C265.354 212.776 265.942 212.614 266.41 212.29C266.89 211.954 267.226 211.51 267.418 210.958H269.182C268.918 211.906 268.39 212.68 267.598 213.28C266.806 213.868 265.822 214.162 264.646 214.162C263.71 214.162 262.87 213.952 262.126 213.532C261.394 213.112 260.818 212.518 260.398 211.75C259.978 210.97 259.768 210.07 259.768 209.05C259.768 208.03 259.972 207.136 260.38 206.368C260.788 205.6 261.358 205.012 262.09 204.604C262.834 204.184 263.686 203.974 264.646 203.974C265.582 203.974 266.41 204.178 267.13 204.586C267.85 204.994 268.402 205.558 268.786 206.278C269.182 206.986 269.38 207.79 269.38 208.69ZM267.688 208.348C267.688 207.724 267.55 207.19 267.274 206.746C266.998 206.29 266.62 205.948 266.14 205.72C265.672 205.48 265.15 205.36 264.574 205.36C263.746 205.36 263.038 205.624 262.45 206.152C261.874 206.68 261.544 207.412 261.46 208.348H267.688ZM277.662 197.044L272.73 217.06H271.11L276.024 197.044H277.662ZM281.741 205.954C282.065 205.39 282.545 204.922 283.181 204.55C283.829 204.166 284.579 203.974 285.431 203.974C286.307 203.974 287.099 204.184 287.807 204.604C288.527 205.024 289.091 205.618 289.499 206.386C289.907 207.142 290.111 208.024 290.111 209.032C290.111 210.028 289.907 210.916 289.499 211.696C289.091 212.476 288.527 213.082 287.807 213.514C287.099 213.946 286.307 214.162 285.431 214.162C284.591 214.162 283.847 213.976 283.199 213.604C282.563 213.22 282.077 212.746 281.741 212.182V218.68H280.103V204.136H281.741V205.954ZM288.437 209.032C288.437 208.288 288.287 207.64 287.987 207.088C287.687 206.536 287.279 206.116 286.763 205.828C286.259 205.54 285.701 205.396 285.089 205.396C284.489 205.396 283.931 205.546 283.415 205.846C282.911 206.134 282.503 206.56 282.191 207.124C281.891 207.676 281.741 208.318 281.741 209.05C281.741 209.794 281.891 210.448 282.191 211.012C282.503 211.564 282.911 211.99 283.415 212.29C283.931 212.578 284.489 212.722 285.089 212.722C285.701 212.722 286.259 212.578 286.763 212.29C287.279 211.99 287.687 211.564 287.987 211.012C288.287 210.448 288.437 209.788 288.437 209.032ZM293.905 205.738C294.193 205.174 294.601 204.736 295.129 204.424C295.669 204.112 296.323 203.956 297.091 203.956V205.648H296.659C294.823 205.648 293.905 206.644 293.905 208.636V214H292.267V204.136H293.905V205.738ZM303.284 214.162C302.36 214.162 301.52 213.952 300.764 213.532C300.02 213.112 299.432 212.518 299 211.75C298.58 210.97 298.37 210.07 298.37 209.05C298.37 208.042 298.586 207.154 299.018 206.386C299.462 205.606 300.062 205.012 300.818 204.604C301.574 204.184 302.42 203.974 303.356 203.974C304.292 203.974 305.138 204.184 305.894 204.604C306.65 205.012 307.244 205.6 307.676 206.368C308.12 207.136 308.342 208.03 308.342 209.05C308.342 210.07 308.114 210.97 307.658 211.75C307.214 212.518 306.608 213.112 305.84 213.532C305.072 213.952 304.22 214.162 303.284 214.162ZM303.284 212.722C303.872 212.722 304.424 212.584 304.94 212.308C305.456 212.032 305.87 211.618 306.182 211.066C306.506 210.514 306.668 209.842 306.668 209.05C306.668 208.258 306.512 207.586 306.2 207.034C305.888 206.482 305.48 206.074 304.976 205.81C304.472 205.534 303.926 205.396 303.338 205.396C302.738 205.396 302.186 205.534 301.682 205.81C301.19 206.074 300.794 206.482 300.494 207.034C300.194 207.586 300.044 208.258 300.044 209.05C300.044 209.854 300.188 210.532 300.476 211.084C300.776 211.636 301.172 212.05 301.664 212.326C302.156 212.59 302.696 212.722 303.284 212.722ZM311.377 202.534C311.065 202.534 310.801 202.426 310.585 202.21C310.381 201.994 310.279 201.73 310.279 201.418C310.279 201.106 310.381 200.842 310.585 200.626C310.801 200.41 311.065 200.302 311.377 200.302C311.689 200.302 311.947 200.41 312.151 200.626C312.367 200.842 312.475 201.106 312.475 201.418C312.475 201.73 312.367 201.994 312.151 202.21C311.947 202.426 311.689 202.534 311.377 202.534ZM312.187 216.142C312.187 217.018 311.965 217.66 311.521 218.068C311.077 218.476 310.429 218.68 309.577 218.68H308.623V217.294H309.307C309.763 217.294 310.081 217.204 310.261 217.024C310.453 216.844 310.549 216.538 310.549 216.106V204.136H312.187V216.142ZM323.96 208.69C323.96 209.002 323.942 209.332 323.906 209.68H316.022C316.082 210.652 316.412 211.414 317.012 211.966C317.624 212.506 318.362 212.776 319.226 212.776C319.934 212.776 320.522 212.614 320.99 212.29C321.47 211.954 321.806 211.51 321.998 210.958H323.762C323.498 211.906 322.97 212.68 322.178 213.28C321.386 213.868 320.402 214.162 319.226 214.162C318.29 214.162 317.45 213.952 316.706 213.532C315.974 213.112 315.398 212.518 314.978 211.75C314.558 210.97 314.348 210.07 314.348 209.05C314.348 208.03 314.552 207.136 314.96 206.368C315.368 205.6 315.938 205.012 316.67 204.604C317.414 204.184 318.266 203.974 319.226 203.974C320.162 203.974 320.99 204.178 321.71 204.586C322.43 204.994 322.982 205.558 323.366 206.278C323.762 206.986 323.96 207.79 323.96 208.69ZM322.268 208.348C322.268 207.724 322.13 207.19 321.854 206.746C321.578 206.29 321.2 205.948 320.72 205.72C320.252 205.48 319.73 205.36 319.154 205.36C318.326 205.36 317.618 205.624 317.03 206.152C316.454 206.68 316.124 207.412 316.04 208.348H322.268ZM325.51 209.05C325.51 208.03 325.714 207.142 326.122 206.386C326.53 205.618 327.094 205.024 327.814 204.604C328.546 204.184 329.38 203.974 330.316 203.974C331.528 203.974 332.524 204.268 333.304 204.856C334.096 205.444 334.618 206.26 334.87 207.304H333.106C332.938 206.704 332.608 206.23 332.116 205.882C331.636 205.534 331.036 205.36 330.316 205.36C329.38 205.36 328.624 205.684 328.048 206.332C327.472 206.968 327.184 207.874 327.184 209.05C327.184 210.238 327.472 211.156 328.048 211.804C328.624 212.452 329.38 212.776 330.316 212.776C331.036 212.776 331.636 212.608 332.116 212.272C332.596 211.936 332.926 211.456 333.106 210.832H334.87C334.606 211.84 334.078 212.65 333.286 213.262C332.494 213.862 331.504 214.162 330.316 214.162C329.38 214.162 328.546 213.952 327.814 213.532C327.094 213.112 326.53 212.518 326.122 211.75C325.714 210.982 325.51 210.082 325.51 209.05ZM339.054 205.486V211.3C339.054 211.78 339.156 212.122 339.36 212.326C339.564 212.518 339.918 212.614 340.422 212.614H341.628V214H340.152C339.24 214 338.556 213.79 338.1 213.37C337.644 212.95 337.416 212.26 337.416 211.3V205.486H336.138V204.136H337.416V201.652H339.054V204.136H341.628V205.486H339.054ZM347.105 214.162C346.349 214.162 345.671 214.036 345.071 213.784C344.471 213.52 343.997 213.16 343.649 212.704C343.301 212.236 343.109 211.702 343.073 211.102H344.765C344.813 211.594 345.041 211.996 345.449 212.308C345.869 212.62 346.415 212.776 347.087 212.776C347.711 212.776 348.203 212.638 348.563 212.362C348.923 212.086 349.103 211.738 349.103 211.318C349.103 210.886 348.911 210.568 348.527 210.364C348.143 210.148 347.549 209.938 346.745 209.734C346.013 209.542 345.413 209.35 344.945 209.158C344.489 208.954 344.093 208.66 343.757 208.276C343.433 207.88 343.271 207.364 343.271 206.728C343.271 206.224 343.421 205.762 343.721 205.342C344.021 204.922 344.447 204.592 344.999 204.352C345.551 204.1 346.181 203.974 346.889 203.974C347.981 203.974 348.863 204.25 349.535 204.802C350.207 205.354 350.567 206.11 350.615 207.07H348.977C348.941 206.554 348.731 206.14 348.347 205.828C347.975 205.516 347.471 205.36 346.835 205.36C346.247 205.36 345.779 205.486 345.431 205.738C345.083 205.99 344.909 206.32 344.909 206.728C344.909 207.052 345.011 207.322 345.215 207.538C345.431 207.742 345.695 207.91 346.007 208.042C346.331 208.162 346.775 208.3 347.339 208.456C348.047 208.648 348.623 208.84 349.067 209.032C349.511 209.212 349.889 209.488 350.201 209.86C350.525 210.232 350.693 210.718 350.705 211.318C350.705 211.858 350.555 212.344 350.255 212.776C349.955 213.208 349.529 213.55 348.977 213.802C348.437 214.042 347.813 214.162 347.105 214.162Z" fill="white"/>
<path d="M27.4722 216.546L20.3222 208.746C19.8926 208.277 19.8926 207.517 20.3222 207.049L21.8778 205.351C22.3073 204.883 23.0038 204.883 23.4334 205.351L28.25 210.606L38.5666 199.351C38.9961 198.883 39.6927 198.883 40.1222 199.351L41.6778 201.049C42.1074 201.517 42.1074 202.277 41.6778 202.746L29.0278 216.546C28.5982 217.014 27.9017 217.014 27.4722 216.546Z" fill="white"/>
<path d="M46.774 244.718C46.774 243.494 47.05 242.396 47.602 241.424C48.154 240.44 48.904 239.672 49.852 239.12C50.812 238.568 51.874 238.292 53.038 238.292C54.406 238.292 55.6 238.622 56.62 239.282C57.64 239.942 58.384 240.878 58.852 242.09H56.89C56.542 241.334 56.038 240.752 55.378 240.344C54.73 239.936 53.95 239.732 53.038 239.732C52.162 239.732 51.376 239.936 50.68 240.344C49.984 240.752 49.438 241.334 49.042 242.09C48.646 242.834 48.448 243.71 48.448 244.718C48.448 245.714 48.646 246.59 49.042 247.346C49.438 248.09 49.984 248.666 50.68 249.074C51.376 249.482 52.162 249.686 53.038 249.686C53.95 249.686 54.73 249.488 55.378 249.092C56.038 248.684 56.542 248.102 56.89 247.346H58.852C58.384 248.546 57.64 249.476 56.62 250.136C55.6 250.784 54.406 251.108 53.038 251.108C51.874 251.108 50.812 250.838 49.852 250.298C48.904 249.746 48.154 248.984 47.602 248.012C47.05 247.04 46.774 245.942 46.774 244.718ZM65.5923 251.162C64.6683 251.162 63.8283 250.952 63.0723 250.532C62.3283 250.112 61.7403 249.518 61.3083 248.75C60.8883 247.97 60.6783 247.07 60.6783 246.05C60.6783 245.042 60.8943 244.154 61.3263 243.386C61.7703 242.606 62.3703 242.012 63.1263 241.604C63.8823 241.184 64.7283 240.974 65.6643 240.974C66.6003 240.974 67.4463 241.184 68.2023 241.604C68.9583 242.012 69.5523 242.6 69.9843 243.368C70.4283 244.136 70.6503 245.03 70.6503 246.05C70.6503 247.07 70.4223 247.97 69.9663 248.75C69.5223 249.518 68.9163 250.112 68.1483 250.532C67.3803 250.952 66.5283 251.162 65.5923 251.162ZM65.5923 249.722C66.1803 249.722 66.7323 249.584 67.2483 249.308C67.7643 249.032 68.1783 248.618 68.4903 248.066C68.8143 247.514 68.9763 246.842 68.9763 246.05C68.9763 245.258 68.8203 244.586 68.5083 244.034C68.1963 243.482 67.7883 243.074 67.2843 242.81C66.7803 242.534 66.2343 242.396 65.6463 242.396C65.0463 242.396 64.4943 242.534 63.9903 242.81C63.4983 243.074 63.1023 243.482 62.8023 244.034C62.5023 244.586 62.3523 245.258 62.3523 246.05C62.3523 246.854 62.4963 247.532 62.7843 248.084C63.0843 248.636 63.4803 249.05 63.9723 249.326C64.4643 249.59 65.0043 249.722 65.5923 249.722ZM74.442 237.68V251H72.804V237.68H74.442ZM78.8717 237.68V251H77.2337V237.68H78.8717ZM81.0513 246.032C81.0513 245.024 81.2553 244.142 81.6633 243.386C82.0713 242.618 82.6293 242.024 83.3373 241.604C84.0573 241.184 84.8553 240.974 85.7313 240.974C86.5953 240.974 87.3453 241.16 87.9813 241.532C88.6173 241.904 89.0913 242.372 89.4033 242.936V241.136H91.0593V251H89.4033V249.164C89.0793 249.74 88.5933 250.22 87.9453 250.604C87.3093 250.976 86.5653 251.162 85.7133 251.162C84.8373 251.162 84.0453 250.946 83.3373 250.514C82.6293 250.082 82.0713 249.476 81.6633 248.696C81.2553 247.916 81.0513 247.028 81.0513 246.032ZM89.4033 246.05C89.4033 245.306 89.2533 244.658 88.9533 244.106C88.6533 243.554 88.2453 243.134 87.7293 242.846C87.2253 242.546 86.6673 242.396 86.0553 242.396C85.4433 242.396 84.8853 242.54 84.3813 242.828C83.8773 243.116 83.4753 243.536 83.1753 244.088C82.8753 244.64 82.7253 245.288 82.7253 246.032C82.7253 246.788 82.8753 247.448 83.1753 248.012C83.4753 248.564 83.8773 248.99 84.3813 249.29C84.8853 249.578 85.4433 249.722 86.0553 249.722C86.6673 249.722 87.2253 249.578 87.7293 249.29C88.2453 248.99 88.6533 248.564 88.9533 248.012C89.2533 247.448 89.4033 246.794 89.4033 246.05ZM95.4654 242.972C95.8014 242.384 96.2934 241.904 96.9414 241.532C97.5894 241.16 98.3274 240.974 99.1554 240.974C100.043 240.974 100.841 241.184 101.549 241.604C102.257 242.024 102.815 242.618 103.223 243.386C103.631 244.142 103.835 245.024 103.835 246.032C103.835 247.028 103.631 247.916 103.223 248.696C102.815 249.476 102.251 250.082 101.531 250.514C100.823 250.946 100.031 251.162 99.1554 251.162C98.3034 251.162 97.5534 250.976 96.9054 250.604C96.2694 250.232 95.7894 249.758 95.4654 249.182V251H93.8274V237.68H95.4654V242.972ZM102.161 246.032C102.161 245.288 102.011 244.64 101.711 244.088C101.411 243.536 101.003 243.116 100.487 242.828C99.9834 242.54 99.4254 242.396 98.8134 242.396C98.2134 242.396 97.6554 242.546 97.1394 242.846C96.6354 243.134 96.2274 243.56 95.9154 244.124C95.6154 244.676 95.4654 245.318 95.4654 246.05C95.4654 246.794 95.6154 247.448 95.9154 248.012C96.2274 248.564 96.6354 248.99 97.1394 249.29C97.6554 249.578 98.2134 249.722 98.8134 249.722C99.4254 249.722 99.9834 249.578 100.487 249.29C101.003 248.99 101.411 248.564 101.711 248.012C102.011 247.448 102.161 246.788 102.161 246.032ZM109.483 251.162C108.727 251.162 108.049 251.036 107.449 250.784C106.849 250.52 106.375 250.16 106.027 249.704C105.679 249.236 105.487 248.702 105.451 248.102H107.143C107.191 248.594 107.419 248.996 107.827 249.308C108.247 249.62 108.793 249.776 109.465 249.776C110.089 249.776 110.581 249.638 110.941 249.362C111.301 249.086 111.481 248.738 111.481 248.318C111.481 247.886 111.289 247.568 110.905 247.364C110.521 247.148 109.927 246.938 109.123 246.734C108.391 246.542 107.791 246.35 107.323 246.158C106.867 245.954 106.471 245.66 106.135 245.276C105.811 244.88 105.649 244.364 105.649 243.728C105.649 243.224 105.799 242.762 106.099 242.342C106.399 241.922 106.825 241.592 107.377 241.352C107.929 241.1 108.559 240.974 109.267 240.974C110.359 240.974 111.241 241.25 111.913 241.802C112.585 242.354 112.945 243.11 112.993 244.07H111.355C111.319 243.554 111.109 243.14 110.725 242.828C110.353 242.516 109.849 242.36 109.213 242.36C108.625 242.36 108.157 242.486 107.809 242.738C107.461 242.99 107.287 243.32 107.287 243.728C107.287 244.052 107.389 244.322 107.593 244.538C107.809 244.742 108.073 244.91 108.385 245.042C108.709 245.162 109.153 245.3 109.717 245.456C110.425 245.648 111.001 245.84 111.445 246.032C111.889 246.212 112.267 246.488 112.579 246.86C112.903 247.232 113.071 247.718 113.083 248.318C113.083 248.858 112.933 249.344 112.633 249.776C112.333 250.208 111.907 250.55 111.355 250.802C110.815 251.042 110.191 251.162 109.483 251.162ZM133.335 241.136L130.257 251H128.565L126.189 243.17L123.813 251H122.121L119.025 241.136H120.699L122.967 249.416L125.415 241.136H127.089L129.483 249.434L131.715 241.136H133.335ZM135.806 239.534C135.494 239.534 135.23 239.426 135.014 239.21C134.798 238.994 134.69 238.73 134.69 238.418C134.69 238.106 134.798 237.842 135.014 237.626C135.23 237.41 135.494 237.302 135.806 237.302C136.106 237.302 136.358 237.41 136.562 237.626C136.778 237.842 136.886 238.106 136.886 238.418C136.886 238.73 136.778 238.994 136.562 239.21C136.358 239.426 136.106 239.534 135.806 239.534ZM136.598 241.136V251H134.96V241.136H136.598ZM141.388 242.486V248.3C141.388 248.78 141.49 249.122 141.694 249.326C141.898 249.518 142.252 249.614 142.756 249.614H143.962V251H142.486C141.574 251 140.89 250.79 140.434 250.37C139.978 249.95 139.75 249.26 139.75 248.3V242.486H138.472V241.136H139.75V238.652H141.388V241.136H143.962V242.486H141.388ZM150.843 240.956C151.587 240.956 152.259 241.118 152.859 241.442C153.459 241.754 153.927 242.228 154.263 242.864C154.611 243.5 154.785 244.274 154.785 245.186V251H153.165V245.42C153.165 244.436 152.919 243.686 152.427 243.17C151.935 242.642 151.263 242.378 150.411 242.378C149.547 242.378 148.857 242.648 148.341 243.188C147.837 243.728 147.585 244.514 147.585 245.546V251H145.947V237.68H147.585V242.54C147.909 242.036 148.353 241.646 148.917 241.37C149.493 241.094 150.135 240.956 150.843 240.956ZM174.121 240.956C174.889 240.956 175.573 241.118 176.173 241.442C176.773 241.754 177.247 242.228 177.595 242.864C177.943 243.5 178.117 244.274 178.117 245.186V251H176.497V245.42C176.497 244.436 176.251 243.686 175.759 243.17C175.279 242.642 174.625 242.378 173.797 242.378C172.945 242.378 172.267 242.654 171.763 243.206C171.259 243.746 171.007 244.532 171.007 245.564V251H169.387V245.42C169.387 244.436 169.141 243.686 168.649 243.17C168.169 242.642 167.515 242.378 166.687 242.378C165.835 242.378 165.157 242.654 164.653 243.206C164.149 243.746 163.897 244.532 163.897 245.564V251H162.259V241.136H163.897V242.558C164.221 242.042 164.653 241.646 165.193 241.37C165.745 241.094 166.351 240.956 167.011 240.956C167.839 240.956 168.571 241.142 169.207 241.514C169.843 241.886 170.317 242.432 170.629 243.152C170.905 242.456 171.361 241.916 171.997 241.532C172.633 241.148 173.341 240.956 174.121 240.956ZM185.106 251.162C184.182 251.162 183.342 250.952 182.586 250.532C181.842 250.112 181.254 249.518 180.822 248.75C180.402 247.97 180.192 247.07 180.192 246.05C180.192 245.042 180.408 244.154 180.84 243.386C181.284 242.606 181.884 242.012 182.64 241.604C183.396 241.184 184.242 240.974 185.178 240.974C186.114 240.974 186.96 241.184 187.716 241.604C188.472 242.012 189.066 242.6 189.498 243.368C189.942 244.136 190.164 245.03 190.164 246.05C190.164 247.07 189.936 247.97 189.48 248.75C189.036 249.518 188.43 250.112 187.662 250.532C186.894 250.952 186.042 251.162 185.106 251.162ZM185.106 249.722C185.694 249.722 186.246 249.584 186.762 249.308C187.278 249.032 187.692 248.618 188.004 248.066C188.328 247.514 188.49 246.842 188.49 246.05C188.49 245.258 188.334 244.586 188.022 244.034C187.71 243.482 187.302 243.074 186.798 242.81C186.294 242.534 185.748 242.396 185.16 242.396C184.56 242.396 184.008 242.534 183.504 242.81C183.012 243.074 182.616 243.482 182.316 244.034C182.016 244.586 181.866 245.258 181.866 246.05C181.866 246.854 182.01 247.532 182.298 248.084C182.598 248.636 182.994 249.05 183.486 249.326C183.978 249.59 184.518 249.722 185.106 249.722ZM193.956 242.738C194.244 242.174 194.652 241.736 195.18 241.424C195.72 241.112 196.374 240.956 197.142 240.956V242.648H196.71C194.874 242.648 193.956 243.644 193.956 245.636V251H192.318V241.136H193.956V242.738ZM208.032 245.69C208.032 246.002 208.014 246.332 207.978 246.68H200.094C200.154 247.652 200.484 248.414 201.084 248.966C201.696 249.506 202.434 249.776 203.298 249.776C204.006 249.776 204.594 249.614 205.062 249.29C205.542 248.954 205.878 248.51 206.07 247.958H207.834C207.57 248.906 207.042 249.68 206.25 250.28C205.458 250.868 204.474 251.162 203.298 251.162C202.362 251.162 201.522 250.952 200.778 250.532C200.046 250.112 199.47 249.518 199.05 248.75C198.63 247.97 198.42 247.07 198.42 246.05C198.42 245.03 198.624 244.136 199.032 243.368C199.44 242.6 200.01 242.012 200.742 241.604C201.486 241.184 202.338 240.974 203.298 240.974C204.234 240.974 205.062 241.178 205.782 241.586C206.502 241.994 207.054 242.558 207.438 243.278C207.834 243.986 208.032 244.79 208.032 245.69ZM206.34 245.348C206.34 244.724 206.202 244.19 205.926 243.746C205.65 243.29 205.272 242.948 204.792 242.72C204.324 242.48 203.802 242.36 203.226 242.36C202.398 242.36 201.69 242.624 201.102 243.152C200.526 243.68 200.196 244.412 200.112 245.348H206.34ZM223.021 239.408H216.703V243.512C216.979 243.128 217.387 242.816 217.927 242.576C218.467 242.324 219.049 242.198 219.673 242.198C220.669 242.198 221.479 242.408 222.103 242.828C222.727 243.236 223.171 243.77 223.435 244.43C223.711 245.078 223.849 245.768 223.849 246.5C223.849 247.364 223.687 248.138 223.363 248.822C223.039 249.506 222.541 250.046 221.869 250.442C221.209 250.838 220.387 251.036 219.403 251.036C218.143 251.036 217.123 250.712 216.343 250.064C215.563 249.416 215.089 248.552 214.921 247.472H216.523C216.679 248.156 217.009 248.69 217.513 249.074C218.017 249.458 218.653 249.65 219.421 249.65C220.369 249.65 221.083 249.368 221.563 248.804C222.043 248.228 222.283 247.472 222.283 246.536C222.283 245.6 222.043 244.88 221.563 244.376C221.083 243.86 220.375 243.602 219.439 243.602C218.803 243.602 218.245 243.758 217.765 244.07C217.297 244.37 216.955 244.784 216.739 245.312H215.191V237.968H223.021V239.408ZM235.656 245.114H231.822V249.002H230.292V245.114H226.476V243.728H230.292V239.822H231.822V243.728H235.656V245.114ZM245.02 242.954C245.344 242.39 245.824 241.922 246.46 241.55C247.108 241.166 247.858 240.974 248.71 240.974C249.586 240.974 250.378 241.184 251.086 241.604C251.806 242.024 252.37 242.618 252.778 243.386C253.186 244.142 253.39 245.024 253.39 246.032C253.39 247.028 253.186 247.916 252.778 248.696C252.37 249.476 251.806 250.082 251.086 250.514C250.378 250.946 249.586 251.162 248.71 251.162C247.87 251.162 247.126 250.976 246.478 250.604C245.842 250.22 245.356 249.746 245.02 249.182V255.68H243.382V241.136H245.02V242.954ZM251.716 246.032C251.716 245.288 251.566 244.64 251.266 244.088C250.966 243.536 250.558 243.116 250.042 242.828C249.538 242.54 248.98 242.396 248.368 242.396C247.768 242.396 247.21 242.546 246.694 242.846C246.19 243.134 245.782 243.56 245.47 244.124C245.17 244.676 245.02 245.318 245.02 246.05C245.02 246.794 245.17 247.448 245.47 248.012C245.782 248.564 246.19 248.99 246.694 249.29C247.21 249.578 247.768 249.722 248.368 249.722C248.98 249.722 249.538 249.578 250.042 249.29C250.558 248.99 250.966 248.564 251.266 248.012C251.566 247.448 251.716 246.788 251.716 246.032ZM264.546 245.69C264.546 246.002 264.528 246.332 264.492 246.68H256.608C256.668 247.652 256.998 248.414 257.598 248.966C258.21 249.506 258.948 249.776 259.812 249.776C260.52 249.776 261.108 249.614 261.576 249.29C262.056 248.954 262.392 248.51 262.584 247.958H264.348C264.084 248.906 263.556 249.68 262.764 250.28C261.972 250.868 260.988 251.162 259.812 251.162C258.876 251.162 258.036 250.952 257.292 250.532C256.56 250.112 255.984 249.518 255.564 248.75C255.144 247.97 254.934 247.07 254.934 246.05C254.934 245.03 255.138 244.136 255.546 243.368C255.954 242.6 256.524 242.012 257.256 241.604C258 241.184 258.852 240.974 259.812 240.974C260.748 240.974 261.576 241.178 262.296 241.586C263.016 241.994 263.568 242.558 263.952 243.278C264.348 243.986 264.546 244.79 264.546 245.69ZM262.854 245.348C262.854 244.724 262.716 244.19 262.44 243.746C262.164 243.29 261.786 242.948 261.306 242.72C260.838 242.48 260.316 242.36 259.74 242.36C258.912 242.36 258.204 242.624 257.616 243.152C257.04 243.68 256.71 244.412 256.626 245.348H262.854ZM271.01 251.162C270.086 251.162 269.246 250.952 268.49 250.532C267.746 250.112 267.158 249.518 266.726 248.75C266.306 247.97 266.096 247.07 266.096 246.05C266.096 245.042 266.312 244.154 266.744 243.386C267.188 242.606 267.788 242.012 268.544 241.604C269.3 241.184 270.146 240.974 271.082 240.974C272.018 240.974 272.864 241.184 273.62 241.604C274.376 242.012 274.97 242.6 275.402 243.368C275.846 244.136 276.068 245.03 276.068 246.05C276.068 247.07 275.84 247.97 275.384 248.75C274.94 249.518 274.334 250.112 273.566 250.532C272.798 250.952 271.946 251.162 271.01 251.162ZM271.01 249.722C271.598 249.722 272.15 249.584 272.666 249.308C273.182 249.032 273.596 248.618 273.908 248.066C274.232 247.514 274.394 246.842 274.394 246.05C274.394 245.258 274.238 244.586 273.926 244.034C273.614 243.482 273.206 243.074 272.702 242.81C272.198 242.534 271.652 242.396 271.064 242.396C270.464 242.396 269.912 242.534 269.408 242.81C268.916 243.074 268.52 243.482 268.22 244.034C267.92 244.586 267.77 245.258 267.77 246.05C267.77 246.854 267.914 247.532 268.202 248.084C268.502 248.636 268.898 249.05 269.39 249.326C269.882 249.59 270.422 249.722 271.01 249.722ZM279.86 242.954C280.184 242.39 280.664 241.922 281.3 241.55C281.948 241.166 282.698 240.974 283.55 240.974C284.426 240.974 285.218 241.184 285.926 241.604C286.646 242.024 287.21 242.618 287.618 243.386C288.026 244.142 288.23 245.024 288.23 246.032C288.23 247.028 288.026 247.916 287.618 248.696C287.21 249.476 286.646 250.082 285.926 250.514C285.218 250.946 284.426 251.162 283.55 251.162C282.71 251.162 281.966 250.976 281.318 250.604C280.682 250.22 280.196 249.746 279.86 249.182V255.68H278.222V241.136H279.86V242.954ZM286.556 246.032C286.556 245.288 286.406 244.64 286.106 244.088C285.806 243.536 285.398 243.116 284.882 242.828C284.378 242.54 283.82 242.396 283.208 242.396C282.608 242.396 282.05 242.546 281.534 242.846C281.03 243.134 280.622 243.56 280.31 244.124C280.01 244.676 279.86 245.318 279.86 246.05C279.86 246.794 280.01 247.448 280.31 248.012C280.622 248.564 281.03 248.99 281.534 249.29C282.05 249.578 282.608 249.722 283.208 249.722C283.82 249.722 284.378 249.578 284.882 249.29C285.398 248.99 285.806 248.564 286.106 248.012C286.406 247.448 286.556 246.788 286.556 246.032ZM292.024 237.68V251H290.386V237.68H292.024ZM303.816 245.69C303.816 246.002 303.798 246.332 303.762 246.68H295.878C295.938 247.652 296.268 248.414 296.868 248.966C297.48 249.506 298.218 249.776 299.082 249.776C299.79 249.776 300.378 249.614 300.846 249.29C301.326 248.954 301.662 248.51 301.854 247.958H303.618C303.354 248.906 302.826 249.68 302.034 250.28C301.242 250.868 300.258 251.162 299.082 251.162C298.146 251.162 297.306 250.952 296.562 250.532C295.83 250.112 295.254 249.518 294.834 248.75C294.414 247.97 294.204 247.07 294.204 246.05C294.204 245.03 294.408 244.136 294.816 243.368C295.224 242.6 295.794 242.012 296.526 241.604C297.27 241.184 298.122 240.974 299.082 240.974C300.018 240.974 300.846 241.178 301.566 241.586C302.286 241.994 302.838 242.558 303.222 243.278C303.618 243.986 303.816 244.79 303.816 245.69ZM302.124 245.348C302.124 244.724 301.986 244.19 301.71 243.746C301.434 243.29 301.056 242.948 300.576 242.72C300.108 242.48 299.586 242.36 299.01 242.36C298.182 242.36 297.474 242.624 296.886 243.152C296.31 243.68 295.98 244.412 295.896 245.348H302.124Z" fill="white"/>
<path d="M27.4722 253.546L20.3222 245.746C19.8926 245.277 19.8926 244.517 20.3222 244.049L21.8778 242.351C22.3073 241.883 23.0038 241.883 23.4334 242.351L28.25 247.606L38.5666 236.351C38.9961 235.883 39.6927 235.883 40.1222 236.351L41.6778 238.049C42.1074 238.517 42.1074 239.277 41.6778 239.746L29.0278 253.546C28.5982 254.014 27.9017 254.014 27.4722 253.546Z" fill="white"/>
<path d="M55.108 275.454V276.786H51.688V288H50.05V276.786H46.612V275.454H55.108ZM58.7623 279.738C59.0503 279.174 59.4583 278.736 59.9863 278.424C60.5263 278.112 61.1803 277.956 61.9483 277.956V279.648H61.5163C59.6803 279.648 58.7623 280.644 58.7623 282.636V288H57.1243V278.136H58.7623V279.738ZM72.3351 278.136L66.3951 292.644H64.7031L66.6471 287.892L62.6691 278.136H64.4871L67.5831 286.128L70.6431 278.136H72.3351ZM87.5285 278.136V288H85.8905V286.542C85.5785 287.046 85.1405 287.442 84.5765 287.73C84.0245 288.006 83.4125 288.144 82.7405 288.144C81.9725 288.144 81.2825 287.988 80.6705 287.676C80.0585 287.352 79.5725 286.872 79.2125 286.236C78.8645 285.6 78.6905 284.826 78.6905 283.914V278.136H80.3105V283.698C80.3105 284.67 80.5565 285.42 81.0485 285.948C81.5405 286.464 82.2125 286.722 83.0645 286.722C83.9405 286.722 84.6305 286.452 85.1345 285.912C85.6385 285.372 85.8905 284.586 85.8905 283.554V278.136H87.5285ZM95.1002 277.956C96.3002 277.956 97.2722 278.322 98.0162 279.054C98.7602 279.774 99.1322 280.818 99.1322 282.186V288H97.5122V282.42C97.5122 281.436 97.2662 280.686 96.7742 280.17C96.2822 279.642 95.6102 279.378 94.7582 279.378C93.8942 279.378 93.2042 279.648 92.6882 280.188C92.1842 280.728 91.9322 281.514 91.9322 282.546V288H90.2942V278.136H91.9322V279.54C92.2562 279.036 92.6942 278.646 93.2462 278.37C93.8102 278.094 94.4282 277.956 95.1002 277.956ZM103.446 274.68V288H101.808V274.68H103.446ZM107.084 276.534C106.772 276.534 106.508 276.426 106.292 276.21C106.076 275.994 105.968 275.73 105.968 275.418C105.968 275.106 106.076 274.842 106.292 274.626C106.508 274.41 106.772 274.302 107.084 274.302C107.384 274.302 107.636 274.41 107.84 274.626C108.056 274.842 108.164 275.106 108.164 275.418C108.164 275.73 108.056 275.994 107.84 276.21C107.636 276.426 107.384 276.534 107.084 276.534ZM107.876 278.136V288H106.238V278.136H107.876ZM122.529 277.956C123.297 277.956 123.981 278.118 124.581 278.442C125.181 278.754 125.655 279.228 126.003 279.864C126.351 280.5 126.525 281.274 126.525 282.186V288H124.905V282.42C124.905 281.436 124.659 280.686 124.167 280.17C123.687 279.642 123.033 279.378 122.205 279.378C121.353 279.378 120.675 279.654 120.171 280.206C119.667 280.746 119.415 281.532 119.415 282.564V288H117.795V282.42C117.795 281.436 117.549 280.686 117.057 280.17C116.577 279.642 115.923 279.378 115.095 279.378C114.243 279.378 113.565 279.654 113.061 280.206C112.557 280.746 112.305 281.532 112.305 282.564V288H110.667V278.136H112.305V279.558C112.629 279.042 113.061 278.646 113.601 278.37C114.153 278.094 114.759 277.956 115.419 277.956C116.247 277.956 116.979 278.142 117.615 278.514C118.251 278.886 118.725 279.432 119.037 280.152C119.313 279.456 119.769 278.916 120.405 278.532C121.041 278.148 121.749 277.956 122.529 277.956ZM130.058 276.534C129.746 276.534 129.482 276.426 129.266 276.21C129.05 275.994 128.942 275.73 128.942 275.418C128.942 275.106 129.05 274.842 129.266 274.626C129.482 274.41 129.746 274.302 130.058 274.302C130.358 274.302 130.61 274.41 130.814 274.626C131.03 274.842 131.138 275.106 131.138 275.418C131.138 275.73 131.03 275.994 130.814 276.21C130.61 276.426 130.358 276.534 130.058 276.534ZM130.85 278.136V288H129.212V278.136H130.85ZM135.64 279.486V285.3C135.64 285.78 135.742 286.122 135.946 286.326C136.15 286.518 136.504 286.614 137.008 286.614H138.214V288H136.738C135.826 288 135.142 287.79 134.686 287.37C134.23 286.95 134.002 286.26 134.002 285.3V279.486H132.724V278.136H134.002V275.652H135.64V278.136H138.214V279.486H135.64ZM149.199 282.69C149.199 283.002 149.181 283.332 149.145 283.68H141.261C141.321 284.652 141.651 285.414 142.251 285.966C142.863 286.506 143.601 286.776 144.465 286.776C145.173 286.776 145.761 286.614 146.229 286.29C146.709 285.954 147.045 285.51 147.237 284.958H149.001C148.737 285.906 148.209 286.68 147.417 287.28C146.625 287.868 145.641 288.162 144.465 288.162C143.529 288.162 142.689 287.952 141.945 287.532C141.213 287.112 140.637 286.518 140.217 285.75C139.797 284.97 139.587 284.07 139.587 283.05C139.587 282.03 139.791 281.136 140.199 280.368C140.607 279.6 141.177 279.012 141.909 278.604C142.653 278.184 143.505 277.974 144.465 277.974C145.401 277.974 146.229 278.178 146.949 278.586C147.669 278.994 148.221 279.558 148.605 280.278C149.001 280.986 149.199 281.79 149.199 282.69ZM147.507 282.348C147.507 281.724 147.369 281.19 147.093 280.746C146.817 280.29 146.439 279.948 145.959 279.72C145.491 279.48 144.969 279.36 144.393 279.36C143.565 279.36 142.857 279.624 142.269 280.152C141.693 280.68 141.363 281.412 141.279 282.348H147.507ZM150.749 283.032C150.749 282.024 150.953 281.142 151.361 280.386C151.769 279.618 152.327 279.024 153.035 278.604C153.755 278.184 154.559 277.974 155.447 277.974C156.215 277.974 156.929 278.154 157.589 278.514C158.249 278.862 158.753 279.324 159.101 279.9V274.68H160.757V288H159.101V286.146C158.777 286.734 158.297 287.22 157.661 287.604C157.025 287.976 156.281 288.162 155.429 288.162C154.553 288.162 153.755 287.946 153.035 287.514C152.327 287.082 151.769 286.476 151.361 285.696C150.953 284.916 150.749 284.028 150.749 283.032ZM159.101 283.05C159.101 282.306 158.951 281.658 158.651 281.106C158.351 280.554 157.943 280.134 157.427 279.846C156.923 279.546 156.365 279.396 155.753 279.396C155.141 279.396 154.583 279.54 154.079 279.828C153.575 280.116 153.173 280.536 152.873 281.088C152.573 281.64 152.423 282.288 152.423 283.032C152.423 283.788 152.573 284.448 152.873 285.012C153.173 285.564 153.575 285.99 154.079 286.29C154.583 286.578 155.141 286.722 155.753 286.722C156.365 286.722 156.923 286.578 157.427 286.29C157.943 285.99 158.351 285.564 158.651 285.012C158.951 284.448 159.101 283.794 159.101 283.05ZM171.816 288.162C171.06 288.162 170.382 288.036 169.782 287.784C169.182 287.52 168.708 287.16 168.36 286.704C168.012 286.236 167.82 285.702 167.784 285.102H169.476C169.524 285.594 169.752 285.996 170.16 286.308C170.58 286.62 171.126 286.776 171.798 286.776C172.422 286.776 172.914 286.638 173.274 286.362C173.634 286.086 173.814 285.738 173.814 285.318C173.814 284.886 173.622 284.568 173.238 284.364C172.854 284.148 172.26 283.938 171.456 283.734C170.724 283.542 170.124 283.35 169.656 283.158C169.2 282.954 168.804 282.66 168.468 282.276C168.144 281.88 167.982 281.364 167.982 280.728C167.982 280.224 168.132 279.762 168.432 279.342C168.732 278.922 169.158 278.592 169.71 278.352C170.262 278.1 170.892 277.974 171.6 277.974C172.692 277.974 173.574 278.25 174.246 278.802C174.918 279.354 175.278 280.11 175.326 281.07H173.688C173.652 280.554 173.442 280.14 173.058 279.828C172.686 279.516 172.182 279.36 171.546 279.36C170.958 279.36 170.49 279.486 170.142 279.738C169.794 279.99 169.62 280.32 169.62 280.728C169.62 281.052 169.722 281.322 169.926 281.538C170.142 281.742 170.406 281.91 170.718 282.042C171.042 282.162 171.486 282.3 172.05 282.456C172.758 282.648 173.334 282.84 173.778 283.032C174.222 283.212 174.6 283.488 174.912 283.86C175.236 284.232 175.404 284.718 175.416 285.318C175.416 285.858 175.266 286.344 174.966 286.776C174.666 287.208 174.24 287.55 173.688 287.802C173.148 288.042 172.524 288.162 171.816 288.162ZM179.366 279.954C179.69 279.39 180.17 278.922 180.806 278.55C181.454 278.166 182.204 277.974 183.056 277.974C183.932 277.974 184.724 278.184 185.432 278.604C186.152 279.024 186.716 279.618 187.124 280.386C187.532 281.142 187.736 282.024 187.736 283.032C187.736 284.028 187.532 284.916 187.124 285.696C186.716 286.476 186.152 287.082 185.432 287.514C184.724 287.946 183.932 288.162 183.056 288.162C182.216 288.162 181.472 287.976 180.824 287.604C180.188 287.22 179.702 286.746 179.366 286.182V292.68H177.728V278.136H179.366V279.954ZM186.062 283.032C186.062 282.288 185.912 281.64 185.612 281.088C185.312 280.536 184.904 280.116 184.388 279.828C183.884 279.54 183.326 279.396 182.714 279.396C182.114 279.396 181.556 279.546 181.04 279.846C180.536 280.134 180.128 280.56 179.816 281.124C179.516 281.676 179.366 282.318 179.366 283.05C179.366 283.794 179.516 284.448 179.816 285.012C180.128 285.564 180.536 285.99 181.04 286.29C181.556 286.578 182.114 286.722 182.714 286.722C183.326 286.722 183.884 286.578 184.388 286.29C184.904 285.99 185.312 285.564 185.612 285.012C185.912 284.448 186.062 283.788 186.062 283.032ZM189.28 283.032C189.28 282.024 189.484 281.142 189.892 280.386C190.3 279.618 190.858 279.024 191.566 278.604C192.286 278.184 193.084 277.974 193.96 277.974C194.824 277.974 195.574 278.16 196.21 278.532C196.846 278.904 197.32 279.372 197.632 279.936V278.136H199.288V288H197.632V286.164C197.308 286.74 196.822 287.22 196.174 287.604C195.538 287.976 194.794 288.162 193.942 288.162C193.066 288.162 192.274 287.946 191.566 287.514C190.858 287.082 190.3 286.476 189.892 285.696C189.484 284.916 189.28 284.028 189.28 283.032ZM197.632 283.05C197.632 282.306 197.482 281.658 197.182 281.106C196.882 280.554 196.474 280.134 195.958 279.846C195.454 279.546 194.896 279.396 194.284 279.396C193.672 279.396 193.114 279.54 192.61 279.828C192.106 280.116 191.704 280.536 191.404 281.088C191.104 281.64 190.954 282.288 190.954 283.032C190.954 283.788 191.104 284.448 191.404 285.012C191.704 285.564 192.106 285.99 192.61 286.29C193.114 286.578 193.672 286.722 194.284 286.722C194.896 286.722 195.454 286.578 195.958 286.29C196.474 285.99 196.882 285.564 197.182 285.012C197.482 284.448 197.632 283.794 197.632 283.05ZM201.444 283.05C201.444 282.03 201.648 281.142 202.056 280.386C202.464 279.618 203.028 279.024 203.748 278.604C204.48 278.184 205.314 277.974 206.25 277.974C207.462 277.974 208.458 278.268 209.238 278.856C210.03 279.444 210.552 280.26 210.804 281.304H209.04C208.872 280.704 208.542 280.23 208.05 279.882C207.57 279.534 206.97 279.36 206.25 279.36C205.314 279.36 204.558 279.684 203.982 280.332C203.406 280.968 203.118 281.874 203.118 283.05C203.118 284.238 203.406 285.156 203.982 285.804C204.558 286.452 205.314 286.776 206.25 286.776C206.97 286.776 207.57 286.608 208.05 286.272C208.53 285.936 208.86 285.456 209.04 284.832H210.804C210.54 285.84 210.012 286.65 209.22 287.262C208.428 287.862 207.438 288.162 206.25 288.162C205.314 288.162 204.48 287.952 203.748 287.532C203.028 287.112 202.464 286.518 202.056 285.75C201.648 284.982 201.444 284.082 201.444 283.05ZM221.99 282.69C221.99 283.002 221.972 283.332 221.936 283.68H214.052C214.112 284.652 214.442 285.414 215.042 285.966C215.654 286.506 216.392 286.776 217.256 286.776C217.964 286.776 218.552 286.614 219.02 286.29C219.5 285.954 219.836 285.51 220.028 284.958H221.792C221.528 285.906 221 286.68 220.208 287.28C219.416 287.868 218.432 288.162 217.256 288.162C216.32 288.162 215.48 287.952 214.736 287.532C214.004 287.112 213.428 286.518 213.008 285.75C212.588 284.97 212.378 284.07 212.378 283.05C212.378 282.03 212.582 281.136 212.99 280.368C213.398 279.6 213.968 279.012 214.7 278.604C215.444 278.184 216.296 277.974 217.256 277.974C218.192 277.974 219.02 278.178 219.74 278.586C220.46 278.994 221.012 279.558 221.396 280.278C221.792 280.986 221.99 281.79 221.99 282.69ZM220.298 282.348C220.298 281.724 220.16 281.19 219.884 280.746C219.608 280.29 219.23 279.948 218.75 279.72C218.282 279.48 217.76 279.36 217.184 279.36C216.356 279.36 215.648 279.624 215.06 280.152C214.484 280.68 214.154 281.412 214.07 282.348H220.298ZM227.644 288.162C226.888 288.162 226.21 288.036 225.61 287.784C225.01 287.52 224.536 287.16 224.188 286.704C223.84 286.236 223.648 285.702 223.612 285.102H225.304C225.352 285.594 225.58 285.996 225.988 286.308C226.408 286.62 226.954 286.776 227.626 286.776C228.25 286.776 228.742 286.638 229.102 286.362C229.462 286.086 229.642 285.738 229.642 285.318C229.642 284.886 229.45 284.568 229.066 284.364C228.682 284.148 228.088 283.938 227.284 283.734C226.552 283.542 225.952 283.35 225.484 283.158C225.028 282.954 224.632 282.66 224.296 282.276C223.972 281.88 223.81 281.364 223.81 280.728C223.81 280.224 223.96 279.762 224.26 279.342C224.56 278.922 224.986 278.592 225.538 278.352C226.09 278.1 226.72 277.974 227.428 277.974C228.52 277.974 229.402 278.25 230.074 278.802C230.746 279.354 231.106 280.11 231.154 281.07H229.516C229.48 280.554 229.27 280.14 228.886 279.828C228.514 279.516 228.01 279.36 227.374 279.36C226.786 279.36 226.318 279.486 225.97 279.738C225.622 279.99 225.448 280.32 225.448 280.728C225.448 281.052 225.55 281.322 225.754 281.538C225.97 281.742 226.234 281.91 226.546 282.042C226.87 282.162 227.314 282.3 227.878 282.456C228.586 282.648 229.162 282.84 229.606 283.032C230.05 283.212 230.428 283.488 230.74 283.86C231.064 284.232 231.232 284.718 231.244 285.318C231.244 285.858 231.094 286.344 230.794 286.776C230.494 287.208 230.068 287.55 229.516 287.802C228.976 288.042 228.352 288.162 227.644 288.162ZM247.103 278.136V288H245.465V286.542C245.153 287.046 244.715 287.442 244.151 287.73C243.599 288.006 242.987 288.144 242.315 288.144C241.547 288.144 240.857 287.988 240.245 287.676C239.633 287.352 239.147 286.872 238.787 286.236C238.439 285.6 238.265 284.826 238.265 283.914V278.136H239.885V283.698C239.885 284.67 240.131 285.42 240.623 285.948C241.115 286.464 241.787 286.722 242.639 286.722C243.515 286.722 244.205 286.452 244.709 285.912C245.213 285.372 245.465 284.586 245.465 283.554V278.136H247.103ZM251.506 279.954C251.83 279.39 252.31 278.922 252.946 278.55C253.594 278.166 254.344 277.974 255.196 277.974C256.072 277.974 256.864 278.184 257.572 278.604C258.292 279.024 258.856 279.618 259.264 280.386C259.672 281.142 259.876 282.024 259.876 283.032C259.876 284.028 259.672 284.916 259.264 285.696C258.856 286.476 258.292 287.082 257.572 287.514C256.864 287.946 256.072 288.162 255.196 288.162C254.356 288.162 253.612 287.976 252.964 287.604C252.328 287.22 251.842 286.746 251.506 286.182V292.68H249.868V278.136H251.506V279.954ZM258.202 283.032C258.202 282.288 258.052 281.64 257.752 281.088C257.452 280.536 257.044 280.116 256.528 279.828C256.024 279.54 255.466 279.396 254.854 279.396C254.254 279.396 253.696 279.546 253.18 279.846C252.676 280.134 252.268 280.56 251.956 281.124C251.656 281.676 251.506 282.318 251.506 283.05C251.506 283.794 251.656 284.448 251.956 285.012C252.268 285.564 252.676 285.99 253.18 286.29C253.696 286.578 254.254 286.722 254.854 286.722C255.466 286.722 256.024 286.578 256.528 286.29C257.044 285.99 257.452 285.564 257.752 285.012C258.052 284.448 258.202 283.788 258.202 283.032ZM263.67 274.68V288H262.032V274.68H263.67ZM270.764 288.162C269.84 288.162 269 287.952 268.244 287.532C267.5 287.112 266.912 286.518 266.48 285.75C266.06 284.97 265.85 284.07 265.85 283.05C265.85 282.042 266.066 281.154 266.498 280.386C266.942 279.606 267.542 279.012 268.298 278.604C269.054 278.184 269.9 277.974 270.836 277.974C271.772 277.974 272.618 278.184 273.374 278.604C274.13 279.012 274.724 279.6 275.156 280.368C275.6 281.136 275.822 282.03 275.822 283.05C275.822 284.07 275.594 284.97 275.138 285.75C274.694 286.518 274.088 287.112 273.32 287.532C272.552 287.952 271.7 288.162 270.764 288.162ZM270.764 286.722C271.352 286.722 271.904 286.584 272.42 286.308C272.936 286.032 273.35 285.618 273.662 285.066C273.986 284.514 274.148 283.842 274.148 283.05C274.148 282.258 273.992 281.586 273.68 281.034C273.368 280.482 272.96 280.074 272.456 279.81C271.952 279.534 271.406 279.396 270.818 279.396C270.218 279.396 269.666 279.534 269.162 279.81C268.67 280.074 268.274 280.482 267.974 281.034C267.674 281.586 267.524 282.258 267.524 283.05C267.524 283.854 267.668 284.532 267.956 285.084C268.256 285.636 268.652 286.05 269.144 286.326C269.636 286.59 270.176 286.722 270.764 286.722ZM277.364 283.032C277.364 282.024 277.568 281.142 277.976 280.386C278.384 279.618 278.942 279.024 279.65 278.604C280.37 278.184 281.168 277.974 282.044 277.974C282.908 277.974 283.658 278.16 284.294 278.532C284.93 278.904 285.404 279.372 285.716 279.936V278.136H287.372V288H285.716V286.164C285.392 286.74 284.906 287.22 284.258 287.604C283.622 287.976 282.878 288.162 282.026 288.162C281.15 288.162 280.358 287.946 279.65 287.514C278.942 287.082 278.384 286.476 277.976 285.696C277.568 284.916 277.364 284.028 277.364 283.032ZM285.716 283.05C285.716 282.306 285.566 281.658 285.266 281.106C284.966 280.554 284.558 280.134 284.042 279.846C283.538 279.546 282.98 279.396 282.368 279.396C281.756 279.396 281.198 279.54 280.694 279.828C280.19 280.116 279.788 280.536 279.488 281.088C279.188 281.64 279.038 282.288 279.038 283.032C279.038 283.788 279.188 284.448 279.488 285.012C279.788 285.564 280.19 285.99 280.694 286.29C281.198 286.578 281.756 286.722 282.368 286.722C282.98 286.722 283.538 286.578 284.042 286.29C284.558 285.99 284.966 285.564 285.266 285.012C285.566 284.448 285.716 283.794 285.716 283.05ZM289.528 283.032C289.528 282.024 289.732 281.142 290.14 280.386C290.548 279.618 291.106 279.024 291.814 278.604C292.534 278.184 293.338 277.974 294.226 277.974C294.994 277.974 295.708 278.154 296.368 278.514C297.028 278.862 297.532 279.324 297.88 279.9V274.68H299.536V288H297.88V286.146C297.556 286.734 297.076 287.22 296.44 287.604C295.804 287.976 295.06 288.162 294.208 288.162C293.332 288.162 292.534 287.946 291.814 287.514C291.106 287.082 290.548 286.476 290.14 285.696C289.732 284.916 289.528 284.028 289.528 283.032ZM297.88 283.05C297.88 282.306 297.73 281.658 297.43 281.106C297.13 280.554 296.722 280.134 296.206 279.846C295.702 279.546 295.144 279.396 294.532 279.396C293.92 279.396 293.362 279.54 292.858 279.828C292.354 280.116 291.952 280.536 291.652 281.088C291.352 281.64 291.202 282.288 291.202 283.032C291.202 283.788 291.352 284.448 291.652 285.012C291.952 285.564 292.354 285.99 292.858 286.29C293.362 286.578 293.92 286.722 294.532 286.722C295.144 286.722 295.702 286.578 296.206 286.29C296.722 285.99 297.13 285.564 297.43 285.012C297.73 284.448 297.88 283.794 297.88 283.05ZM306.491 283.05C306.491 282.03 306.695 281.142 307.103 280.386C307.511 279.618 308.075 279.024 308.795 278.604C309.527 278.184 310.361 277.974 311.297 277.974C312.509 277.974 313.505 278.268 314.285 278.856C315.077 279.444 315.599 280.26 315.851 281.304H314.087C313.919 280.704 313.589 280.23 313.097 279.882C312.617 279.534 312.017 279.36 311.297 279.36C310.361 279.36 309.605 279.684 309.029 280.332C308.453 280.968 308.165 281.874 308.165 283.05C308.165 284.238 308.453 285.156 309.029 285.804C309.605 286.452 310.361 286.776 311.297 286.776C312.017 286.776 312.617 286.608 313.097 286.272C313.577 285.936 313.907 285.456 314.087 284.832H315.851C315.587 285.84 315.059 286.65 314.267 287.262C313.475 287.862 312.485 288.162 311.297 288.162C310.361 288.162 309.527 287.952 308.795 287.532C308.075 287.112 307.511 286.518 307.103 285.75C306.695 284.982 306.491 284.082 306.491 283.05ZM322.338 288.162C321.414 288.162 320.574 287.952 319.818 287.532C319.074 287.112 318.486 286.518 318.054 285.75C317.634 284.97 317.424 284.07 317.424 283.05C317.424 282.042 317.64 281.154 318.072 280.386C318.516 279.606 319.116 279.012 319.872 278.604C320.628 278.184 321.474 277.974 322.41 277.974C323.346 277.974 324.192 278.184 324.948 278.604C325.704 279.012 326.298 279.6 326.73 280.368C327.174 281.136 327.396 282.03 327.396 283.05C327.396 284.07 327.168 284.97 326.712 285.75C326.268 286.518 325.662 287.112 324.894 287.532C324.126 287.952 323.274 288.162 322.338 288.162ZM322.338 286.722C322.926 286.722 323.478 286.584 323.994 286.308C324.51 286.032 324.924 285.618 325.236 285.066C325.56 284.514 325.722 283.842 325.722 283.05C325.722 282.258 325.566 281.586 325.254 281.034C324.942 280.482 324.534 280.074 324.03 279.81C323.526 279.534 322.98 279.396 322.392 279.396C321.792 279.396 321.24 279.534 320.736 279.81C320.244 280.074 319.848 280.482 319.548 281.034C319.248 281.586 319.098 282.258 319.098 283.05C319.098 283.854 319.242 284.532 319.53 285.084C319.83 285.636 320.226 286.05 320.718 286.326C321.21 286.59 321.75 286.722 322.338 286.722ZM334.356 277.956C335.556 277.956 336.528 278.322 337.272 279.054C338.016 279.774 338.388 280.818 338.388 282.186V288H336.768V282.42C336.768 281.436 336.522 280.686 336.03 280.17C335.538 279.642 334.866 279.378 334.014 279.378C333.15 279.378 332.46 279.648 331.944 280.188C331.44 280.728 331.188 281.514 331.188 282.546V288H329.55V278.136H331.188V279.54C331.512 279.036 331.95 278.646 332.502 278.37C333.066 278.094 333.684 277.956 334.356 277.956ZM343.062 279.486V285.3C343.062 285.78 343.164 286.122 343.368 286.326C343.572 286.518 343.926 286.614 344.43 286.614H345.636V288H344.16C343.248 288 342.564 287.79 342.108 287.37C341.652 286.95 341.424 286.26 341.424 285.3V279.486H340.146V278.136H341.424V275.652H343.062V278.136H345.636V279.486H343.062ZM356.62 282.69C356.62 283.002 356.602 283.332 356.566 283.68H348.682C348.742 284.652 349.072 285.414 349.672 285.966C350.284 286.506 351.022 286.776 351.886 286.776C352.594 286.776 353.182 286.614 353.65 286.29C354.13 285.954 354.466 285.51 354.658 284.958H356.422C356.158 285.906 355.63 286.68 354.838 287.28C354.046 287.868 353.062 288.162 351.886 288.162C350.95 288.162 350.11 287.952 349.366 287.532C348.634 287.112 348.058 286.518 347.638 285.75C347.218 284.97 347.008 284.07 347.008 283.05C347.008 282.03 347.212 281.136 347.62 280.368C348.028 279.6 348.598 279.012 349.33 278.604C350.074 278.184 350.926 277.974 351.886 277.974C352.822 277.974 353.65 278.178 354.37 278.586C355.09 278.994 355.642 279.558 356.026 280.278C356.422 280.986 356.62 281.79 356.62 282.69ZM354.928 282.348C354.928 281.724 354.79 281.19 354.514 280.746C354.238 280.29 353.86 279.948 353.38 279.72C352.912 279.48 352.39 279.36 351.814 279.36C350.986 279.36 350.278 279.624 349.69 280.152C349.114 280.68 348.784 281.412 348.7 282.348H354.928ZM363.588 277.956C364.788 277.956 365.76 278.322 366.504 279.054C367.248 279.774 367.62 280.818 367.62 282.186V288H366V282.42C366 281.436 365.754 280.686 365.262 280.17C364.77 279.642 364.098 279.378 363.246 279.378C362.382 279.378 361.692 279.648 361.176 280.188C360.672 280.728 360.42 281.514 360.42 282.546V288H358.782V278.136H360.42V279.54C360.744 279.036 361.182 278.646 361.734 278.37C362.298 278.094 362.916 277.956 363.588 277.956ZM372.294 279.486V285.3C372.294 285.78 372.396 286.122 372.6 286.326C372.804 286.518 373.158 286.614 373.662 286.614H374.868V288H373.392C372.48 288 371.796 287.79 371.34 287.37C370.884 286.95 370.656 286.26 370.656 285.3V279.486H369.378V278.136H370.656V275.652H372.294V278.136H374.868V279.486H372.294Z" fill="white"/>
<path d="M27.4722 290.546L20.3222 282.746C19.8926 282.277 19.8926 281.517 20.3222 281.049L21.8778 279.351C22.3073 278.883 23.0038 278.883 23.4334 279.351L28.25 284.606L38.5666 273.351C38.9961 272.883 39.6927 272.883 40.1222 273.351L41.6778 275.049C42.1074 275.517 42.1074 276.277 41.6778 276.746L29.0278 290.546C28.5982 291.014 27.9017 291.014 27.4722 290.546Z" fill="white"/>
<path d="M49.024 312.454V325H47.386V312.454H49.024ZM56.6217 314.956C57.8217 314.956 58.7937 315.322 59.5377 316.054C60.2817 316.774 60.6537 317.818 60.6537 319.186V325H59.0337V319.42C59.0337 318.436 58.7877 317.686 58.2957 317.17C57.8037 316.642 57.1317 316.378 56.2797 316.378C55.4157 316.378 54.7257 316.648 54.2097 317.188C53.7057 317.728 53.4537 318.514 53.4537 319.546V325H51.8157V315.136H53.4537V316.54C53.7777 316.036 54.2157 315.646 54.7677 315.37C55.3317 315.094 55.9497 314.956 56.6217 314.956ZM62.7174 320.05C62.7174 319.03 62.9214 318.142 63.3294 317.386C63.7374 316.618 64.3014 316.024 65.0214 315.604C65.7534 315.184 66.5874 314.974 67.5234 314.974C68.7354 314.974 69.7314 315.268 70.5114 315.856C71.3034 316.444 71.8254 317.26 72.0774 318.304H70.3134C70.1454 317.704 69.8154 317.23 69.3234 316.882C68.8434 316.534 68.2434 316.36 67.5234 316.36C66.5874 316.36 65.8314 316.684 65.2554 317.332C64.6794 317.968 64.3914 318.874 64.3914 320.05C64.3914 321.238 64.6794 322.156 65.2554 322.804C65.8314 323.452 66.5874 323.776 67.5234 323.776C68.2434 323.776 68.8434 323.608 69.3234 323.272C69.8034 322.936 70.1334 322.456 70.3134 321.832H72.0774C71.8134 322.84 71.2854 323.65 70.4934 324.262C69.7014 324.862 68.7114 325.162 67.5234 325.162C66.5874 325.162 65.7534 324.952 65.0214 324.532C64.3014 324.112 63.7374 323.518 63.3294 322.75C62.9214 321.982 62.7174 321.082 62.7174 320.05ZM75.901 311.68V325H74.263V311.68H75.901ZM87.4406 315.136V325H85.8026V323.542C85.4906 324.046 85.0526 324.442 84.4886 324.73C83.9366 325.006 83.3246 325.144 82.6526 325.144C81.8846 325.144 81.1946 324.988 80.5826 324.676C79.9706 324.352 79.4846 323.872 79.1246 323.236C78.7766 322.6 78.6026 321.826 78.6026 320.914V315.136H80.2226V320.698C80.2226 321.67 80.4686 322.42 80.9606 322.948C81.4526 323.464 82.1246 323.722 82.9766 323.722C83.8526 323.722 84.5426 323.452 85.0466 322.912C85.5506 322.372 85.8026 321.586 85.8026 320.554V315.136H87.4406ZM89.5943 320.032C89.5943 319.024 89.7983 318.142 90.2063 317.386C90.6143 316.618 91.1723 316.024 91.8803 315.604C92.6003 315.184 93.4043 314.974 94.2923 314.974C95.0603 314.974 95.7743 315.154 96.4343 315.514C97.0943 315.862 97.5983 316.324 97.9463 316.9V311.68H99.6023V325H97.9463V323.146C97.6223 323.734 97.1423 324.22 96.5063 324.604C95.8703 324.976 95.1263 325.162 94.2743 325.162C93.3983 325.162 92.6003 324.946 91.8803 324.514C91.1723 324.082 90.6143 323.476 90.2063 322.696C89.7983 321.916 89.5943 321.028 89.5943 320.032ZM97.9463 320.05C97.9463 319.306 97.7963 318.658 97.4963 318.106C97.1963 317.554 96.7883 317.134 96.2723 316.846C95.7683 316.546 95.2103 316.396 94.5983 316.396C93.9863 316.396 93.4283 316.54 92.9243 316.828C92.4203 317.116 92.0183 317.536 91.7183 318.088C91.4183 318.64 91.2683 319.288 91.2683 320.032C91.2683 320.788 91.4183 321.448 91.7183 322.012C92.0183 322.564 92.4203 322.99 92.9243 323.29C93.4283 323.578 93.9863 323.722 94.5983 323.722C95.2103 323.722 95.7683 323.578 96.2723 323.29C96.7883 322.99 97.1963 322.564 97.4963 322.012C97.7963 321.448 97.9463 320.794 97.9463 320.05ZM111.37 319.69C111.37 320.002 111.352 320.332 111.316 320.68H103.432C103.492 321.652 103.822 322.414 104.422 322.966C105.034 323.506 105.772 323.776 106.636 323.776C107.344 323.776 107.932 323.614 108.4 323.29C108.88 322.954 109.216 322.51 109.408 321.958H111.172C110.908 322.906 110.38 323.68 109.588 324.28C108.796 324.868 107.812 325.162 106.636 325.162C105.7 325.162 104.86 324.952 104.116 324.532C103.384 324.112 102.808 323.518 102.388 322.75C101.968 321.97 101.758 321.07 101.758 320.05C101.758 319.03 101.962 318.136 102.37 317.368C102.778 316.6 103.348 316.012 104.08 315.604C104.824 315.184 105.676 314.974 106.636 314.974C107.572 314.974 108.4 315.178 109.12 315.586C109.84 315.994 110.392 316.558 110.776 317.278C111.172 317.986 111.37 318.79 111.37 319.69ZM109.678 319.348C109.678 318.724 109.54 318.19 109.264 317.746C108.988 317.29 108.61 316.948 108.13 316.72C107.662 316.48 107.14 316.36 106.564 316.36C105.736 316.36 105.028 316.624 104.44 317.152C103.864 317.68 103.534 318.412 103.45 319.348H109.678ZM113.784 312.454H115.602L113.874 316.54H112.722L113.784 312.454ZM120.962 325.162C120.206 325.162 119.528 325.036 118.928 324.784C118.328 324.52 117.854 324.16 117.506 323.704C117.158 323.236 116.966 322.702 116.93 322.102H118.622C118.67 322.594 118.898 322.996 119.306 323.308C119.726 323.62 120.272 323.776 120.944 323.776C121.568 323.776 122.06 323.638 122.42 323.362C122.78 323.086 122.96 322.738 122.96 322.318C122.96 321.886 122.768 321.568 122.384 321.364C122 321.148 121.406 320.938 120.602 320.734C119.87 320.542 119.27 320.35 118.802 320.158C118.346 319.954 117.95 319.66 117.614 319.276C117.29 318.88 117.128 318.364 117.128 317.728C117.128 317.224 117.278 316.762 117.578 316.342C117.878 315.922 118.304 315.592 118.856 315.352C119.408 315.1 120.038 314.974 120.746 314.974C121.838 314.974 122.72 315.25 123.392 315.802C124.064 316.354 124.424 317.11 124.472 318.07H122.834C122.798 317.554 122.588 317.14 122.204 316.828C121.832 316.516 121.328 316.36 120.692 316.36C120.104 316.36 119.636 316.486 119.288 316.738C118.94 316.99 118.766 317.32 118.766 317.728C118.766 318.052 118.868 318.322 119.072 318.538C119.288 318.742 119.552 318.91 119.864 319.042C120.188 319.162 120.632 319.3 121.196 319.456C121.904 319.648 122.48 319.84 122.924 320.032C123.368 320.212 123.746 320.488 124.058 320.86C124.382 321.232 124.55 321.718 124.562 322.318C124.562 322.858 124.412 323.344 124.112 323.776C123.812 324.208 123.386 324.55 122.834 324.802C122.294 325.042 121.67 325.162 120.962 325.162ZM131.061 320.032C131.061 319.024 131.265 318.142 131.673 317.386C132.081 316.618 132.639 316.024 133.347 315.604C134.067 315.184 134.865 314.974 135.741 314.974C136.605 314.974 137.355 315.16 137.991 315.532C138.627 315.904 139.101 316.372 139.413 316.936V315.136H141.069V325H139.413V323.164C139.089 323.74 138.603 324.22 137.955 324.604C137.319 324.976 136.575 325.162 135.723 325.162C134.847 325.162 134.055 324.946 133.347 324.514C132.639 324.082 132.081 323.476 131.673 322.696C131.265 321.916 131.061 321.028 131.061 320.032ZM139.413 320.05C139.413 319.306 139.263 318.658 138.963 318.106C138.663 317.554 138.255 317.134 137.739 316.846C137.235 316.546 136.677 316.396 136.065 316.396C135.453 316.396 134.895 316.54 134.391 316.828C133.887 317.116 133.485 317.536 133.185 318.088C132.885 318.64 132.735 319.288 132.735 320.032C132.735 320.788 132.885 321.448 133.185 322.012C133.485 322.564 133.887 322.99 134.391 323.29C134.895 323.578 135.453 323.722 136.065 323.722C136.677 323.722 137.235 323.578 137.739 323.29C138.255 322.99 138.663 322.564 138.963 322.012C139.263 321.448 139.413 320.794 139.413 320.05ZM145.475 311.68V325H143.837V311.68H145.475ZM149.905 311.68V325H148.267V311.68H149.905ZM161.509 316.486H159.439V325H157.801V316.486H156.523V315.136H157.801V314.434C157.801 313.33 158.083 312.526 158.647 312.022C159.223 311.506 160.141 311.248 161.401 311.248V312.616C160.681 312.616 160.171 312.76 159.871 313.048C159.583 313.324 159.439 313.786 159.439 314.434V315.136H161.509V316.486ZM165.057 316.738C165.345 316.174 165.753 315.736 166.281 315.424C166.821 315.112 167.475 314.956 168.243 314.956V316.648H167.811C165.975 316.648 165.057 317.644 165.057 319.636V325H163.419V315.136H165.057V316.738ZM179.134 319.69C179.134 320.002 179.116 320.332 179.08 320.68H171.196C171.256 321.652 171.586 322.414 172.186 322.966C172.798 323.506 173.536 323.776 174.4 323.776C175.108 323.776 175.696 323.614 176.164 323.29C176.644 322.954 176.98 322.51 177.172 321.958H178.936C178.672 322.906 178.144 323.68 177.352 324.28C176.56 324.868 175.576 325.162 174.4 325.162C173.464 325.162 172.624 324.952 171.88 324.532C171.148 324.112 170.572 323.518 170.152 322.75C169.732 321.97 169.522 321.07 169.522 320.05C169.522 319.03 169.726 318.136 170.134 317.368C170.542 316.6 171.112 316.012 171.844 315.604C172.588 315.184 173.44 314.974 174.4 314.974C175.336 314.974 176.164 315.178 176.884 315.586C177.604 315.994 178.156 316.558 178.54 317.278C178.936 317.986 179.134 318.79 179.134 319.69ZM177.442 319.348C177.442 318.724 177.304 318.19 177.028 317.746C176.752 317.29 176.374 316.948 175.894 316.72C175.426 316.48 174.904 316.36 174.328 316.36C173.5 316.36 172.792 316.624 172.204 317.152C171.628 317.68 171.298 318.412 171.214 319.348H177.442ZM190.296 319.69C190.296 320.002 190.278 320.332 190.242 320.68H182.358C182.418 321.652 182.748 322.414 183.348 322.966C183.96 323.506 184.698 323.776 185.562 323.776C186.27 323.776 186.858 323.614 187.326 323.29C187.806 322.954 188.142 322.51 188.334 321.958H190.098C189.834 322.906 189.306 323.68 188.514 324.28C187.722 324.868 186.738 325.162 185.562 325.162C184.626 325.162 183.786 324.952 183.042 324.532C182.31 324.112 181.734 323.518 181.314 322.75C180.894 321.97 180.684 321.07 180.684 320.05C180.684 319.03 180.888 318.136 181.296 317.368C181.704 316.6 182.274 316.012 183.006 315.604C183.75 315.184 184.602 314.974 185.562 314.974C186.498 314.974 187.326 315.178 188.046 315.586C188.766 315.994 189.318 316.558 189.702 317.278C190.098 317.986 190.296 318.79 190.296 319.69ZM188.604 319.348C188.604 318.724 188.466 318.19 188.19 317.746C187.914 317.29 187.536 316.948 187.056 316.72C186.588 316.48 186.066 316.36 185.49 316.36C184.662 316.36 183.954 316.624 183.366 317.152C182.79 317.68 182.46 318.412 182.376 319.348H188.604ZM201.271 316.486H199.201V325H197.563V316.486H196.285V315.136H197.563V314.434C197.563 313.33 197.845 312.526 198.409 312.022C198.985 311.506 199.903 311.248 201.163 311.248V312.616C200.443 312.616 199.933 312.76 199.633 313.048C199.345 313.324 199.201 313.786 199.201 314.434V315.136H201.271V316.486ZM212.181 319.69C212.181 320.002 212.163 320.332 212.127 320.68H204.243C204.303 321.652 204.633 322.414 205.233 322.966C205.845 323.506 206.583 323.776 207.447 323.776C208.155 323.776 208.743 323.614 209.211 323.29C209.691 322.954 210.027 322.51 210.219 321.958H211.983C211.719 322.906 211.191 323.68 210.399 324.28C209.607 324.868 208.623 325.162 207.447 325.162C206.511 325.162 205.671 324.952 204.927 324.532C204.195 324.112 203.619 323.518 203.199 322.75C202.779 321.97 202.569 321.07 202.569 320.05C202.569 319.03 202.773 318.136 203.181 317.368C203.589 316.6 204.159 316.012 204.891 315.604C205.635 315.184 206.487 314.974 207.447 314.974C208.383 314.974 209.211 315.178 209.931 315.586C210.651 315.994 211.203 316.558 211.587 317.278C211.983 317.986 212.181 318.79 212.181 319.69ZM210.489 319.348C210.489 318.724 210.351 318.19 210.075 317.746C209.799 317.29 209.421 316.948 208.941 316.72C208.473 316.48 207.951 316.36 207.375 316.36C206.547 316.36 205.839 316.624 205.251 317.152C204.675 317.68 204.345 318.412 204.261 319.348H210.489ZM213.731 320.032C213.731 319.024 213.935 318.142 214.343 317.386C214.751 316.618 215.309 316.024 216.017 315.604C216.737 315.184 217.535 314.974 218.411 314.974C219.275 314.974 220.025 315.16 220.661 315.532C221.297 315.904 221.771 316.372 222.083 316.936V315.136H223.739V325H222.083V323.164C221.759 323.74 221.273 324.22 220.625 324.604C219.989 324.976 219.245 325.162 218.393 325.162C217.517 325.162 216.725 324.946 216.017 324.514C215.309 324.082 214.751 323.476 214.343 322.696C213.935 321.916 213.731 321.028 213.731 320.032ZM222.083 320.05C222.083 319.306 221.933 318.658 221.633 318.106C221.333 317.554 220.925 317.134 220.409 316.846C219.905 316.546 219.347 316.396 218.735 316.396C218.123 316.396 217.565 316.54 217.061 316.828C216.557 317.116 216.155 317.536 215.855 318.088C215.555 318.64 215.405 319.288 215.405 320.032C215.405 320.788 215.555 321.448 215.855 322.012C216.155 322.564 216.557 322.99 217.061 323.29C217.565 323.578 218.123 323.722 218.735 323.722C219.347 323.722 219.905 323.578 220.409 323.29C220.925 322.99 221.333 322.564 221.633 322.012C221.933 321.448 222.083 320.794 222.083 320.05ZM228.505 316.486V322.3C228.505 322.78 228.607 323.122 228.811 323.326C229.015 323.518 229.369 323.614 229.873 323.614H231.079V325H229.603C228.691 325 228.007 324.79 227.551 324.37C227.095 323.95 226.867 323.26 226.867 322.3V316.486H225.589V315.136H226.867V312.652H228.505V315.136H231.079V316.486H228.505ZM241.812 315.136V325H240.174V323.542C239.862 324.046 239.424 324.442 238.86 324.73C238.308 325.006 237.696 325.144 237.024 325.144C236.256 325.144 235.566 324.988 234.954 324.676C234.342 324.352 233.856 323.872 233.496 323.236C233.148 322.6 232.974 321.826 232.974 320.914V315.136H234.594V320.698C234.594 321.67 234.84 322.42 235.332 322.948C235.824 323.464 236.496 323.722 237.348 323.722C238.224 323.722 238.914 323.452 239.418 322.912C239.922 322.372 240.174 321.586 240.174 320.554V315.136H241.812ZM246.215 316.738C246.503 316.174 246.911 315.736 247.439 315.424C247.979 315.112 248.633 314.956 249.401 314.956V316.648H248.969C247.133 316.648 246.215 317.644 246.215 319.636V325H244.577V315.136H246.215V316.738ZM260.292 319.69C260.292 320.002 260.274 320.332 260.238 320.68H252.354C252.414 321.652 252.744 322.414 253.344 322.966C253.956 323.506 254.694 323.776 255.558 323.776C256.266 323.776 256.854 323.614 257.322 323.29C257.802 322.954 258.138 322.51 258.33 321.958H260.094C259.83 322.906 259.302 323.68 258.51 324.28C257.718 324.868 256.734 325.162 255.558 325.162C254.622 325.162 253.782 324.952 253.038 324.532C252.306 324.112 251.73 323.518 251.31 322.75C250.89 321.97 250.68 321.07 250.68 320.05C250.68 319.03 250.884 318.136 251.292 317.368C251.7 316.6 252.27 316.012 253.002 315.604C253.746 315.184 254.598 314.974 255.558 314.974C256.494 314.974 257.322 315.178 258.042 315.586C258.762 315.994 259.314 316.558 259.698 317.278C260.094 317.986 260.292 318.79 260.292 319.69ZM258.6 319.348C258.6 318.724 258.462 318.19 258.186 317.746C257.91 317.29 257.532 316.948 257.052 316.72C256.584 316.48 256.062 316.36 255.486 316.36C254.658 316.36 253.95 316.624 253.362 317.152C252.786 317.68 252.456 318.412 252.372 319.348H258.6ZM265.946 325.162C265.19 325.162 264.512 325.036 263.912 324.784C263.312 324.52 262.838 324.16 262.49 323.704C262.142 323.236 261.95 322.702 261.914 322.102H263.606C263.654 322.594 263.882 322.996 264.29 323.308C264.71 323.62 265.256 323.776 265.928 323.776C266.552 323.776 267.044 323.638 267.404 323.362C267.764 323.086 267.944 322.738 267.944 322.318C267.944 321.886 267.752 321.568 267.368 321.364C266.984 321.148 266.39 320.938 265.586 320.734C264.854 320.542 264.254 320.35 263.786 320.158C263.33 319.954 262.934 319.66 262.598 319.276C262.274 318.88 262.112 318.364 262.112 317.728C262.112 317.224 262.262 316.762 262.562 316.342C262.862 315.922 263.288 315.592 263.84 315.352C264.392 315.1 265.022 314.974 265.73 314.974C266.822 314.974 267.704 315.25 268.376 315.802C269.048 316.354 269.408 317.11 269.456 318.07H267.818C267.782 317.554 267.572 317.14 267.188 316.828C266.816 316.516 266.312 316.36 265.676 316.36C265.088 316.36 264.62 316.486 264.272 316.738C263.924 316.99 263.75 317.32 263.75 317.728C263.75 318.052 263.852 318.322 264.056 318.538C264.272 318.742 264.536 318.91 264.848 319.042C265.172 319.162 265.616 319.3 266.18 319.456C266.888 319.648 267.464 319.84 267.908 320.032C268.352 320.212 268.73 320.488 269.042 320.86C269.366 321.232 269.534 321.718 269.546 322.318C269.546 322.858 269.396 323.344 269.096 323.776C268.796 324.208 268.37 324.55 267.818 324.802C267.278 325.042 266.654 325.162 265.946 325.162Z" fill="white"/>
<path d="M27.4722 327.546L20.3222 319.746C19.8926 319.277 19.8926 318.517 20.3222 318.049L21.8778 316.351C22.3073 315.883 23.0038 315.883 23.4334 316.351L28.25 321.606L38.5666 310.351C38.9961 309.883 39.6927 309.883 40.1222 310.351L41.6778 312.049C42.1074 312.517 42.1074 313.277 41.6778 313.746L29.0278 327.546C28.5982 328.014 27.9017 328.014 27.4722 327.546Z" fill="white"/>
<path d="M40.5661 28.64V33.104H31.6861V62H26.2141V33.104H17.2861V28.64H40.5661ZM51.5798 39.392C52.3798 38.048 53.4358 37.008 54.7478 36.272C56.0918 35.504 57.6758 35.12 59.4998 35.12V40.784H58.1078C55.9638 40.784 54.3318 41.328 53.2118 42.416C52.1238 43.504 51.5798 45.392 51.5798 48.08V62H46.1078V35.552H51.5798V39.392ZM88.3377 35.552L72.1137 74.432H66.4497L71.8257 61.568L61.4097 35.552H67.5057L74.9457 55.712L82.6737 35.552H88.3377ZM112.771 42.32V46.928H93.0432V42.32H112.771ZM132.017 62.432C129.521 62.432 127.265 61.872 125.249 60.752C123.233 59.6 121.649 58 120.497 55.952C119.345 53.872 118.769 51.472 118.769 48.752C118.769 46.064 119.361 43.68 120.545 41.6C121.729 39.52 123.345 37.92 125.393 36.8C127.441 35.68 129.729 35.12 132.257 35.12C134.785 35.12 137.073 35.68 139.121 36.8C141.169 37.92 142.785 39.52 143.969 41.6C145.153 43.68 145.745 46.064 145.745 48.752C145.745 51.44 145.137 53.824 143.921 55.904C142.705 57.984 141.041 59.6 138.929 60.752C136.849 61.872 134.545 62.432 132.017 62.432ZM132.017 57.68C133.425 57.68 134.737 57.344 135.953 56.672C137.201 56 138.209 54.992 138.977 53.648C139.745 52.304 140.129 50.672 140.129 48.752C140.129 46.832 139.761 45.216 139.025 43.904C138.289 42.56 137.313 41.552 136.097 40.88C134.881 40.208 133.569 39.872 132.161 39.872C130.753 39.872 129.441 40.208 128.225 40.88C127.041 41.552 126.097 42.56 125.393 43.904C124.689 45.216 124.337 46.832 124.337 48.752C124.337 51.6 125.057 53.808 126.497 55.376C127.969 56.912 129.809 57.68 132.017 57.68ZM175.107 35.552V62H169.635V58.88C168.771 59.968 167.635 60.832 166.227 61.472C164.851 62.08 163.379 62.384 161.811 62.384C159.731 62.384 157.859 61.952 156.195 61.088C154.563 60.224 153.267 58.944 152.307 57.248C151.379 55.552 150.915 53.504 150.915 51.104V35.552H156.339V50.288C156.339 52.656 156.931 54.48 158.115 55.76C159.299 57.008 160.915 57.632 162.963 57.632C165.011 57.632 166.627 57.008 167.811 55.76C169.027 54.48 169.635 52.656 169.635 50.288V35.552H175.107ZM188.711 40.016V54.656C188.711 55.648 188.935 56.368 189.383 56.816C189.863 57.232 190.663 57.44 191.783 57.44H195.143V62H190.823C188.359 62 186.471 61.424 185.159 60.272C183.847 59.12 183.191 57.248 183.191 54.656V40.016H180.071V35.552H183.191V28.976H188.711V35.552H195.143V40.016H188.711Z" fill="#F2F2F2"/>
</svg>
